<?xml version="1.0" encoding="UTF-8" standalone="no"?>
<!DOCTYPE svg PUBLIC "-//W3C//DTD SVG 1.1//EN" "http://www.w3.org/Graphics/SVG/1.1/DTD/svg11.dtd">
<svg width="100%" height="100%" viewBox="0 0 750 747" version="1.1" xmlns="http://www.w3.org/2000/svg" xmlns:xlink="http://www.w3.org/1999/xlink" xml:space="preserve" xmlns:serif="http://www.serif.com/" style="fill-rule:evenodd;clip-rule:evenodd;stroke-linejoin:round;stroke-miterlimit:2;">
    <g transform="matrix(1,0,0,1,-25.075,-26.975)">
        <path d="M398.75,26.975L399.3,26.975C436.025,26.975 471.7,31.425 505.825,39.8L502.775,39.175C539.1,47.7 571.075,60.05 600.75,76.125L598.7,75.1C629.975,92.15 656.875,112.2 680.6,135.45L680.55,135.4C704.925,159.5 725.55,187.3 741.525,217.925L742.4,219.75C751.775,237.25 759.875,257.6 765.675,278.9L766.15,280.975C771.7,300.225 774.9,322.325 774.9,345.175L774.9,346L774.9,345.95L774.9,346.8C774.9,365.4 772.275,383.4 767.375,400.425L767.7,399.05C757.4,433.125 737.9,461.825 712.075,483.175L711.775,483.4C698.725,494.2 683.8,503.425 667.675,510.425L666.475,510.9C656.575,515.45 645,519.325 632.925,521.95L631.775,522.15C620.9,524.725 608.4,526.2 595.55,526.2C586.8,526.2 576.7,525.892 565.25,525.275C552.375,524.525 540.55,523.2 528.95,521.25L530.9,521.525C518.3,519.225 507.275,516.2 496.675,512.325L498.1,512.775C487.975,509.05 479.25,503.75 471.775,497.075L471.85,497.15C469.1,495 466.725,492.525 464.725,489.75L464.65,489.65C462.725,486.75 461.575,483.175 461.525,479.35C461.975,475.075 463.8,471.3 466.525,468.4C470.1,463.9 473.7,458.8 477.025,453.5L477.45,452.775C481.75,446.65 485.525,439.65 488.45,432.225L488.7,431.55C491.875,423.275 493.725,413.7 493.725,403.7C493.725,403.05 493.725,402.425 493.7,401.775L493.7,401.875L493.7,400.4C493.7,378.775 489.1,358.225 480.825,339.7L481.2,340.65C472.475,320.975 461.35,304.05 447.95,289.25L448.1,289.4C434.375,274.075 418.75,260.85 401.525,249.95L400.625,249.425C384.575,238.95 366.125,229.575 346.675,222.275L344.7,221.625C329.45,215.95 311.35,211.175 292.7,208.125L290.975,207.9C274.5,205.125 255.525,203.525 236.175,203.525L235.975,203.525C201.875,203.55 168.975,208.675 138.025,218.2L140.375,217.575C107.5,227.45 78.925,242.275 53.825,261.475L54.475,261C69.725,223.625 88.725,191.375 111.65,162.375L111,163.225C133.55,134.95 159.5,110.675 188.525,90.6L189.725,89.825C217.55,70.525 249.675,54.675 284.075,43.95L286.575,43.275C319.475,32.975 357.325,27.025 396.55,27.025L398.525,27.025L398.425,27.025L398.75,26.975ZM223.8,543.3L223.8,543.775C223.8,567.5 226.875,590.525 232.65,612.45L232.225,610.575C238.45,634.725 246.8,655.825 257.35,675.55L256.6,674C267.875,695.025 280.75,713.175 295.55,729.525L295.35,729.3C310.4,746 327.45,760.45 346.225,772.45L347.225,773.05C314.6,768.6 285.1,760.525 257.35,749.05L259.75,749.925C230.15,737.6 204.65,723.25 181.1,706.325L182.25,707.125C157.85,689.425 136.55,669.9 117.65,648.225L117.25,647.775C98.9,626.525 82.5,602.65 68.9,577.075L67.875,575C55.1,551.175 44.3,523.5 36.875,494.5L36.325,491.9C29.175,465.1 25.075,434.35 25.075,402.65L25.075,401.9L25.075,401.95L25.075,400.775C25.075,384.3 28.775,368.7 35.35,354.725L35.075,355.375C41.9,340.575 50.6,327.875 61.05,316.9L61,316.95C71.95,305.625 84.25,295.7 97.675,287.425L98.475,286.95C110.475,279.5 124.375,272.55 138.925,266.925L140.65,266.325C154,261.25 169.775,257 186.075,254.325L187.525,254.125C202.075,251.75 218.85,250.4 235.925,250.375L235.95,250.375C251.625,250.4 267,251.525 282.05,253.7L280.325,253.5C297.1,256.325 311.825,260.125 326.025,265.025L324.05,264.425C340.125,269.925 353.75,275.925 366.75,282.95L365.275,282.225C379.025,289.925 390.9,298.525 401.675,308.3L401.525,308.15C393.775,308.15 386.225,308.95 378.925,310.45L379.65,310.325C371.975,312 365.175,314.475 358.875,317.725L359.35,317.5L359.35,316.875C345.05,323.375 332.7,331.1 321.575,340.225L321.875,340C309.75,349.85 299,360.5 289.375,372.1L289.075,372.475C279.475,384.025 270.5,396.9 262.625,410.5L261.9,411.85C254.825,424.025 248,438.325 242.3,453.175L241.6,455.275C236.625,467.775 232.1,482.85 228.825,498.35L228.475,500.25C225.575,513.175 223.875,528.05 223.8,543.3ZM708.025,583.075C711.175,583.125 713.95,584.575 715.825,586.8L715.85,586.825C717.675,588.925 718.825,591.625 718.975,594.6L718.975,594.625C718.575,598.475 717.35,601.975 715.475,605.05L715.525,604.95L705.525,619.325L692.1,635.875L678.35,651.5C673.983,656.7 670.025,661.075 666.475,664.625L659.6,671.8C647.1,683.125 633.425,693.825 619.025,703.475L617.75,704.275C603.55,713.95 587.175,723.425 570.1,731.675L567.775,732.7C552.575,740.025 534.525,746.85 515.825,752.125L513.425,752.7C497.825,757.3 479.9,760.025 461.35,760.2L460.125,760.2C441.625,760.2 423.85,757 407.35,751.1L408.45,751.45C390.8,745.2 375.5,736.95 361.75,726.75L362.225,727.075C347.8,716.375 335.275,704.35 324.425,690.9L324.125,690.525C313.55,677.425 304,662.675 296.05,646.975L295.4,645.55C288.15,631.25 281.925,614.6 277.625,597.2L277.275,595.55C273.325,579.875 271.025,561.9 271.025,543.375L271.025,543.35C271.025,521.45 274.675,500.4 281.425,480.775L281.025,482.125C288.35,460.65 297.55,442.075 308.8,424.925L308.225,425.875C311.225,446.5 317.25,465.125 325.875,482.225L325.4,481.175C334.425,499.05 345.05,514.45 357.425,528.225L357.25,528.025C369.9,542.25 384.05,554.725 399.575,565.325L400.375,565.825C415.15,576.225 432,585.625 449.8,593.25L451.625,593.95C467.175,600.7 485.65,606.725 504.775,611.025L506.925,611.425C523.8,615.325 543.2,617.6 563.1,617.675L563.75,617.675C587.675,617.675 610.975,614.95 633.325,609.775L631.25,610.175C655.625,604.775 677.125,597.025 697.225,586.95L695.6,587.675L701.85,584.55L708.025,583.075Z" style="fill:white;fill-rule:nonzero;"/>
    </g>
</svg>
