<?xml version="1.0" encoding="UTF-8" standalone="no"?>
<!DOCTYPE svg PUBLIC "-//W3C//DTD SVG 1.1//EN" "http://www.w3.org/Graphics/SVG/1.1/DTD/svg11.dtd">
<svg width="100%" height="100%" viewBox="0 0 717 743" version="1.1" xmlns="http://www.w3.org/2000/svg" xmlns:xlink="http://www.w3.org/1999/xlink" xml:space="preserve" xmlns:serif="http://www.serif.com/" style="fill-rule:evenodd;clip-rule:evenodd;stroke-linejoin:round;stroke-miterlimit:2;">
    <g transform="matrix(1,0,0,1,-41.6667,-28.667)">
        <path d="M400,771.333C310.667,771.333 41.667,710.333 41.667,399.667C41.517,298.776 92.932,204.505 177.833,150C175.882,180.824 179.958,211.735 189.833,241L191,241C215.071,213.686 244.007,191.08 276.333,174.333C273.547,188.106 272.096,202.115 272,216.167C272.027,230.993 273.818,245.763 277.333,260.167C280.282,262.284 283.017,264.685 285.5,267.333C298.059,282.096 312.849,294.805 329.333,305C370.667,327.667 400,341.333 400,341.333C400,341.333 380.167,381.167 356,381.167C257.667,381.167 238,445.167 238,445.167C238,445.167 257.833,577.333 397.167,577.333C448.5,577.333 550.167,549 550.167,430.167C550.863,375.526 521.07,324.821 473,298.833C506.612,294.657 540.505,304.487 566.667,326C533.206,265.4 469.224,227.65 400,227.667L388.333,227.667C396.195,145.716 442.002,72.004 512,28.667C528.189,63.168 549.175,95.207 574.333,123.833C617.833,173.833 674.333,232.333 697,293.333C690.443,256.578 678.833,220.907 662.5,187.333C646.167,153.76 758.333,243.5 758.333,415.167C755.462,610.27 595.117,769.645 400,771.333Z" style="fill:white;fill-rule:nonzero;"/>
    </g>
</svg>
