<?xml version="1.0" encoding="UTF-8" standalone="no"?>
<!DOCTYPE svg PUBLIC "-//W3C//DTD SVG 1.1//EN" "http://www.w3.org/Graphics/SVG/1.1/DTD/svg11.dtd">
<svg width="100%" height="100%" viewBox="0 0 749 749" version="1.1" xmlns="http://www.w3.org/2000/svg" xmlns:xlink="http://www.w3.org/1999/xlink" xml:space="preserve" xmlns:serif="http://www.serif.com/" style="fill-rule:evenodd;clip-rule:evenodd;stroke-linejoin:round;stroke-miterlimit:2;">
    <g transform="matrix(1,0,0,1,-25.6,-25.625)">
        <path d="M774.375,400L774.375,400.5C774.375,511.075 726.275,610.425 649.875,678.75L649.525,679.075C619.925,694.3 584.925,703.2 547.875,703.2C506.075,703.2 466.925,691.85 433.325,672.1L434.375,672.675C528.7,651.95 599.95,537.9 599.95,400C599.95,262.05 528.725,148.075 434.375,127.325C466.925,108.15 506.075,96.85 547.875,96.85C584.925,96.85 619.925,105.75 650.8,121.525L649.525,120.925C726.3,189.575 774.375,288.9 774.375,399.475L774.375,400.025L774.375,400ZM276.8,189.025C233.125,244.025 206.725,314.475 206.725,391.1L206.725,408.825C206.725,485.45 233.125,555.9 277.325,611.6L276.8,610.925C327.95,679.525 408.45,723.8 499.35,724.925L499.525,724.925C555.475,724.8 607.4,707.675 650.425,678.425L649.475,679.025C583.85,738.175 496.525,774.375 400.725,774.375L399.925,774.375L399.975,774.375C393.975,774.375 388.025,774.25 382.2,773.95C183.225,764.2 25.6,600.5 25.6,400C25.6,193.25 193.225,25.625 399.975,25.625L401.4,25.625C496.95,25.9 584,62.025 649.875,121.25L649.525,120.95C607.375,92.35 555.45,75.225 499.5,75.05L499.45,75.05C408.375,76.25 327.875,120.475 277.225,188.3L276.7,189.05L276.8,189.025Z" style="fill:white;fill-rule:nonzero;"/>
    </g>
</svg>
