<?xml version="1.0" encoding="UTF-8" standalone="no"?>
<!DOCTYPE svg PUBLIC "-//W3C//DTD SVG 1.1//EN" "http://www.w3.org/Graphics/SVG/1.1/DTD/svg11.dtd">
<svg width="100%" height="100%" viewBox="0 0 701 671" version="1.1" xmlns="http://www.w3.org/2000/svg" xmlns:xlink="http://www.w3.org/1999/xlink" xml:space="preserve" xmlns:serif="http://www.serif.com/" style="fill-rule:evenodd;clip-rule:evenodd;stroke-linejoin:round;stroke-miterlimit:2;">
    <g transform="matrix(1,0,0,1,-24.7051,-40.2891)">
        <path d="M261.691,257.605C261.706,257.227 261.705,257.019 261.705,257.019C252.705,229.359 258.705,177.949 314.705,154.949L314.865,154.949C336.905,77.899 432.945,40.289 530.815,40.289C598.445,40.289 659.156,61.699 700.776,95.689C675.938,96.86 651.414,101.734 628.016,110.149C661.646,122.649 690.535,141.879 711.945,165.669C695.792,162.889 679.413,161.65 663.026,161.969C703.302,220.312 724.82,289.554 724.706,360.449C724.706,553.749 568.005,710.449 374.705,710.449C184.385,710.449 24.705,551.099 24.705,360.449C24.705,330.339 28.705,299.249 36.475,270.089C38.515,263.969 41.355,258.099 45.125,255.949C49.845,253.259 54.145,261.279 54.835,263.889C59.953,283.059 66.839,301.712 75.405,319.609C74.655,279.649 91.725,243.249 115.205,211.769C130.865,190.779 145.385,171.329 152.085,115.199C152.535,111.429 156.105,108.719 159.715,109.899C210.675,126.579 237.915,211.439 233.685,282.399C233.763,282.41 233.84,282.421 233.917,282.432C214.637,304.545 202.56,332.329 202.575,365.02C202.615,503.69 349.115,583.47 473.995,571.39C464.615,570.3 406.095,567.19 366.545,522.45C362.975,518.42 356.785,511.38 359.595,506.81C362.395,502.24 370.115,503.41 374.695,503.41L374.705,503.419C469.765,503.419 546.835,440.54 546.835,362.97C546.835,285.4 469.765,222.52 374.705,222.52C335.569,222.52 294.111,234.806 261.691,257.605ZM398.855,152.258C417.275,146.458 415.655,128.228 415.655,128.228C415.655,128.228 406.445,117.378 388.195,123.388C371.115,129.018 368.465,141.188 368.465,141.188C368.465,141.188 377.795,158.888 398.855,152.258ZM334.745,422.298C309.395,395.918 233.475,308.268 233.475,308.268L239.345,308.528L358.205,397.298C367.105,403.768 379.805,403.698 388.625,397.148L505.175,308.648L511.355,308.158C511.355,308.158 437.915,393.728 409.785,421.918C381.655,450.108 360.095,448.678 334.745,422.298Z" style="fill:white;"/>
    </g>
</svg>
