<svg height="800" viewBox="0 0 32 32" width="800" xmlns="http://www.w3.org/2000/svg">
    <path d="m24.26 32h-16.521c-.708 0-1.281-.573-1.281-1.281v-12.224c0-.708.573-1.286 1.281-1.286h1.552v-1.974c0-3.698 3.01-6.708 6.708-6.708s6.708 3.01 6.708 6.708v1.974h1.552c.708 0 1.281.578 1.281 1.286v12.224c0 .708-.573 1.281-1.281 1.281zm-7.421-6.76c1.521-.859.911-3.182-.839-3.182-1.745.005-2.354 2.318-.839 3.182v1.656c0 1.115 1.677 1.115 1.677 0zm-3.698-8.032h5.724v-1.974c0-1.578-1.286-2.859-2.865-2.859s-2.859 1.281-2.859 2.859zm-7.078-1.817h-3.984c-.651 0-1.172-.526-1.172-1.172s.521-1.172 1.172-1.172h3.984c.646 0 1.172.526 1.172 1.172s-.526 1.172-1.172 1.172zm2.807-6.271c-.271 0-.531-.094-.74-.271l-3.156-2.594c-.5-.406-.568-1.146-.156-1.646.406-.5 1.146-.573 1.646-.161l3.156 2.594c.849.698.349 2.078-.75 2.073zm7.13-2.761c-.646 0-1.172-.526-1.172-1.172v-4.016c0-.646.526-1.172 1.172-1.172s1.172.526 1.172 1.172v4.016c0 .646-.526 1.172-1.172 1.172zm7.13 2.761c-1.104 0-1.599-1.38-.75-2.078l3.156-2.594c1.208-.99 2.693.818 1.49 1.813l-3.156 2.594c-.208.172-.469.266-.74.266zm6.792 6.271h-4.021c-.651 0-1.172-.526-1.172-1.172s.521-1.172 1.172-1.172h4.021c.651 0 1.172.526 1.172 1.172s-.521 1.172-1.172 1.172z"
          fill="#eee"/>
</svg>