<?xml version="1.0" encoding="UTF-8" standalone="no"?>
<svg width="100%" height="100%" viewBox="0 0 800 800" version="1.1" xmlns="http://www.w3.org/2000/svg"
     style="fill-rule:evenodd;clip-rule:evenodd;stroke-linejoin:round;stroke-miterlimit:2;">
    <g transform="matrix(0.831485,0,0,0.831485,109.767,67.4061)">
        <path fill="black" d="M565.251,225.398L565.251,364.938C565.251,369.623 561.453,373.421 556.768,373.421L531.844,373.421C527.159,373.421 523.361,369.623 523.361,364.938L523.361,225.398L471.169,280.76C469.566,282.46 467.333,283.424 464.997,283.424C462.66,283.424 460.427,282.46 458.824,280.76L441.202,262.068C438.122,258.8 438.122,253.698 441.202,250.43L538.134,147.611C539.736,145.911 541.97,144.947 544.306,144.947C546.643,144.947 548.876,145.911 550.479,147.611L647.41,250.43C650.491,253.698 650.491,258.8 647.41,262.068L629.788,280.76C628.185,282.46 625.952,283.424 623.616,283.424C621.279,283.424 619.046,282.46 617.443,280.76L565.251,225.398ZM565.251,574.602L617.443,519.24C619.046,517.54 621.279,516.576 623.616,516.576C625.952,516.576 628.185,517.54 629.788,519.24L647.41,537.932C650.491,541.2 650.491,546.302 647.41,549.57L550.479,652.389C548.876,654.089 546.643,655.053 544.306,655.053C541.97,655.053 539.736,654.089 538.134,652.389L441.202,549.57C438.122,546.302 438.122,541.2 441.202,537.932L458.824,519.24C460.427,517.54 462.66,516.576 464.997,516.576C467.333,516.576 469.566,517.54 471.169,519.24L523.361,574.602L523.361,435.062C523.361,430.377 527.159,426.579 531.844,426.579L556.768,426.579C561.453,426.579 565.251,430.377 565.251,435.062L565.251,574.602ZM158.289,525.886L120.573,640.18C119.426,643.656 116.178,646.004 112.517,646.004L56.869,646.004C54.128,646.004 51.556,644.679 49.964,642.447C48.371,640.216 47.956,637.352 48.849,634.76L212.399,159.717C213.578,156.294 216.799,153.996 220.42,153.996L284.89,153.996C288.472,153.996 291.666,156.244 292.875,159.616L463.212,634.658C464.144,637.257 463.753,640.146 462.164,642.403C460.575,644.661 457.987,646.004 455.227,646.004L399.579,646.004C395.958,646.004 392.737,643.706 391.558,640.283L352.173,525.886L158.289,525.886ZM253.178,238.348L178.669,464.131L330.912,464.131L253.178,238.348Z"/>
    </g>
</svg>
