<?xml version="1.0" encoding="UTF-8" standalone="no"?>
<!DOCTYPE svg PUBLIC "-//W3C//DTD SVG 1.1//EN" "http://www.w3.org/Graphics/SVG/1.1/DTD/svg11.dtd">
<svg width="100%" height="100%" viewBox="0 0 800 800" version="1.1" xmlns="http://www.w3.org/2000/svg"
     xmlns:xlink="http://www.w3.org/1999/xlink" xml:space="preserve" xmlns:serif="http://www.serif.com/"
     style="fill-rule:evenodd;clip-rule:evenodd;stroke-linejoin:round;stroke-miterlimit:2;">
    <g>
        <g id="Editor">
            <g id="bold_fill">
                <path id="MingCute"
                      d="M800,0L800,800L0,800L0,0L800,0ZM419.783,775.261L419.398,775.317L417.029,776.501L416.396,776.625L415.891,776.501L413.522,775.317C413.194,775.212 412.902,775.301 412.738,775.497L412.601,775.861L412.031,790.104L412.196,790.783L412.563,791.19L416.016,793.656L416.512,793.787L416.904,793.656L420.356,791.19L420.776,790.656L420.888,790.104L420.319,775.861C420.252,775.523 420.034,775.31 419.783,775.261ZM428.613,771.51L428.152,771.577L421.995,774.655L421.663,774.997L421.573,775.37L422.17,789.688L422.331,790.114L422.613,790.35L429.311,793.441C429.714,793.563 430.074,793.433 430.261,793.174L430.394,792.705L429.256,772.218C429.176,771.82 428.914,771.567 428.613,771.51ZM404.768,771.577C404.441,771.413 404.073,771.509 403.855,771.753L403.664,772.218L402.526,792.705C402.504,793.089 402.76,793.395 403.088,793.486L403.609,793.441L410.307,790.35L410.622,790.081L410.75,789.688L411.347,775.37L411.242,774.951L410.925,774.655L404.768,771.577Z"
                      style="fill:none;fill-rule:nonzero;"/>
                <path d="M433.333,83.333C534.587,83.333 616.667,165.414 616.667,266.667C616.667,311.544 600.543,352.653 573.77,384.523C619.943,417.813 650,472.063 650,533.333C650,632.117 571.875,712.651 474.04,716.521L466.667,716.667L203.333,716.667C175.515,716.667 152.67,695.369 150.218,668.188L150,663.333L150,136.667C150,108.848 171.299,86.004 198.479,83.551L203.333,83.333L433.333,83.333ZM466.667,450L250,450L250,616.667L466.667,616.667C512.69,616.667 550,579.357 550,533.333C550,487.31 512.69,450 466.667,450ZM433.333,183.333L250,183.333L250,350L433.333,350C479.357,350 516.667,312.69 516.667,266.667C516.667,220.643 479.357,183.333 433.333,183.333Z"
                      style="fill:rgb(9,36,75);fill-rule:nonzero;stroke:rgb(9,36,75);stroke-width:41px;"/>
            </g>
        </g>
    </g>
</svg>
