<?xml version="1.0" encoding="UTF-8" standalone="no"?>
<svg width="100%" height="100%" viewBox="0 0 800 800" version="1.1" xmlns="http://www.w3.org/2000/svg"
     style="fill-rule:evenodd;clip-rule:evenodd;stroke-linejoin:round;stroke-miterlimit:2;">
    <g transform="matrix(0.892857,0,0,0.892857,-61.2205,326.719)">
        <path fill="black" d="M305.767,362.075L305.767,-197.925L476.167,-197.925C516.7,-197.925 553.633,-193.259 586.967,-183.925C620.3,-174.592 646.833,-158.059 666.567,-134.325C686.3,-110.592 696.167,-77.125 696.167,-33.925C696.167,-16.859 693.233,0.875 687.367,19.275C681.5,37.675 671.633,53.408 657.767,66.475C655.12,68.969 652.269,71.254 649.214,73.331C654.479,75.631 659.597,78.279 664.567,81.275C684.033,93.008 699.367,108.475 710.567,127.675C721.767,146.875 727.367,168.741 727.367,193.275C727.367,235.941 717.5,269.675 697.767,294.475C678.033,319.275 651.5,336.741 618.167,346.875C584.833,357.008 547.9,362.075 507.367,362.075L305.767,362.075ZM421.767,-97.125L421.767,29.275L476.167,29.275C493.767,29.275 510.167,27.941 525.367,25.275C540.567,22.608 552.7,16.741 561.767,7.675C570.833,-1.392 575.367,-15.259 575.367,-33.925C575.367,-52.592 570.833,-66.459 561.767,-75.525C552.7,-84.592 540.567,-90.459 525.367,-93.125C510.167,-95.792 493.767,-97.125 476.167,-97.125L421.767,-97.125ZM421.767,130.075L421.767,261.275L507.367,261.275C524.967,261.275 541.367,259.541 556.567,256.075C571.767,252.608 583.9,245.941 592.967,236.075C602.033,226.208 606.567,211.941 606.567,193.275C606.567,174.608 602.033,160.741 592.967,151.675C583.9,142.608 571.767,136.741 556.567,134.075C541.367,131.408 524.967,130.075 507.367,130.075L421.767,130.075Z"/>
    </g>
</svg>
