<?xml version="1.0" encoding="UTF-8" standalone="no"?>
<!DOCTYPE svg PUBLIC "-//W3C//DTD SVG 1.1//EN" "http://www.w3.org/Graphics/SVG/1.1/DTD/svg11.dtd">
<svg width="100%" height="100%" viewBox="0 0 800 800" version="1.1" xmlns="http://www.w3.org/2000/svg"
     xmlns:xlink="http://www.w3.org/1999/xlink" xml:space="preserve" xmlns:serif="http://www.serif.com/"
     style="fill-rule:evenodd;clip-rule:evenodd;stroke-linejoin:round;stroke-miterlimit:2;">
    <path d="M253.623,33.333C187.189,33.333 133.333,87.189 133.333,153.623L133.333,664.707C133.333,721.017 178.983,766.667 235.294,766.667L466.667,766.667C577.123,766.667 666.667,677.123 666.667,566.667C666.667,480.863 612.637,407.68 536.74,379.287C575.673,342.797 600,290.905 600,233.333C600,122.876 510.457,33.333 400,33.333L253.623,33.333ZM400,366.667C473.637,366.667 533.333,306.971 533.333,233.333C533.333,159.695 473.637,100 400,100L253.623,100C224.008,100 200,124.008 200,153.623L200,366.667L400,366.667ZM200,433.333L200,664.707C200,684.197 215.802,700 235.294,700L466.667,700C540.303,700 600,640.303 600,566.667C600,493.03 540.303,433.333 466.667,433.333L200,433.333Z"
          style="fill:rgb(0,0,0);stroke:rgb(0,0,0);stroke-width:40px;"/>
</svg>
