<?xml version="1.0" encoding="UTF-8" standalone="no"?>
<!DOCTYPE svg PUBLIC "-//W3C//DTD SVG 1.1//EN" "http://www.w3.org/Graphics/SVG/1.1/DTD/svg11.dtd">
<svg width="100%" height="100%" viewBox="0 0 800 800" version="1.1" xmlns="http://www.w3.org/2000/svg"
     xmlns:xlink="http://www.w3.org/1999/xlink" xml:space="preserve" xmlns:serif="http://www.serif.com/"
     style="fill-rule:evenodd;clip-rule:evenodd;stroke-linecap:round;stroke-linejoin:round;stroke-miterlimit:2;">
    <path d="M160,40C138.057,40 120,58.057 120,80L120,720C120,741.943 138.057,760 160,760L160,720L160,760L480.149,760C589.866,760 680.149,669.717 680.149,560C680.149,476.599 627.981,401.565 549.8,372.52C582.139,335.965 600.005,288.807 600.005,240C600.005,130.283 509.722,40 400.005,40L160,40ZM400,360C465.83,360 520,305.83 520,240C520,174.17 465.83,120 400,120L200,120L200,360L400,360ZM200,440L200,680L480,680C545.83,680 600,625.83 600,560C600,494.17 545.83,440 480,440L200,440Z"
          style="fill:#000000;stroke:#000000;stroke-width:30px;"/>
</svg>
