<?xml version="1.0" encoding="UTF-8" standalone="no"?>
<!DOCTYPE svg PUBLIC "-//W3C//DTD SVG 1.1//EN" "http://www.w3.org/Graphics/SVG/1.1/DTD/svg11.dtd">
<svg width="100%" height="100%" viewBox="0 0 800 800" version="1.1" xmlns="http://www.w3.org/2000/svg" xmlns:xlink="http://www.w3.org/1999/xlink" xml:space="preserve" xmlns:serif="http://www.serif.com/" style="fill-rule:evenodd;clip-rule:evenodd;stroke-linejoin:round;stroke-miterlimit:2;">
    <path d="M300,133.333L733.333,133.333L733.333,166.667L300,166.667L300,133.333ZM300,700L733.333,700L733.333,666.667L300,666.667L300,700ZM300,433.333L733.333,433.333L733.333,400L300,400L300,433.333ZM118.667,739L233.333,624.667L208.667,600L118.333,690L81,656.667L56.333,681.333L118.333,739L118.667,739ZM118.667,205.667L233.333,91.333L208.667,66.667L118.333,156.667L81,123.333L56.333,148L118.333,205.667L118.667,205.667ZM118.667,472.333L233.333,358L208.667,333.333L118.333,423.333L81,390L56.333,414.667L118.333,472.333L118.667,472.333Z" style="fill-rule:nonzero;stroke:black;stroke-width:40px;"/>
</svg>
