<?xml version="1.0" encoding="UTF-8" standalone="no"?>
<svg width="100%" height="100%" viewBox="0 0 800 800" version="1.1" xmlns="http://www.w3.org/2000/svg"
     style="fill-rule:evenodd;clip-rule:evenodd;stroke-linejoin:round;stroke-miterlimit:2;">
    <g transform="matrix(33.0043,0,0,33.0043,135.982,125.639)">
        <path d="M7.944,2.348C7.926,2.33 7.911,2.308 7.901,2.284C7.87,2.209 7.887,2.123 7.945,2.066C8.798,1.212 10.202,1.212 11.055,2.066L14.934,5.945C15.788,6.798 15.788,8.202 14.934,9.055L9.434,14.555C9.022,14.968 8.462,15.2 7.879,15.2L5.12,15.2C4.537,15.2 3.977,14.968 3.565,14.555L1.065,12.055C0.211,11.202 0.211,9.798 1.065,8.945L7.944,2.066C7.886,2.123 7.869,2.209 7.9,2.284C7.91,2.308 7.925,2.33 7.944,2.348L7.944,2.348ZM10.066,3.055C9.755,2.745 9.245,2.745 8.934,3.055L4.443,7.547L9.453,12.557L13.945,8.066C14.255,7.755 14.255,7.245 13.945,6.934L10.066,3.055ZM8.464,13.548L3.453,8.537L2.055,9.934C1.745,10.245 1.745,10.755 2.055,11.066L4.555,13.566C4.705,13.716 4.909,13.8 5.121,13.8L7.88,13.8C8.092,13.8 8.296,13.716 8.446,13.566L8.464,13.548Z"/>
    </g>
</svg>
