<?xml version="1.0" encoding="UTF-8" standalone="no"?>
<svg width="100%" height="100%" viewBox="0 0 800 800" version="1.1" xmlns="http://www.w3.org/2000/svg"
     style="fill-rule:evenodd;clip-rule:evenodd;stroke-linejoin:round;stroke-miterlimit:2;">
    <g transform="matrix(24.0385,0,0,24.0385,111.538,111.539)">
        <path fill="black" d="M6.05,6.971C6.618,6.447 7.505,6.483 8.029,7.05C8.553,7.618 8.517,8.505 7.95,9.029L4.981,11.769L8.026,15.047C8.552,15.614 8.519,16.5 7.953,17.026C7.386,17.552 6.5,17.519 5.974,16.953L1.974,12.645C1.721,12.372 1.587,12.01 1.601,11.638C1.615,11.267 1.777,10.916 2.05,10.664L6.05,6.971ZM16.05,9.029C15.483,8.505 15.447,7.618 15.971,7.05C16.495,6.483 17.382,6.447 17.95,6.971L21.95,10.664C22.223,10.916 22.385,11.267 22.399,11.638C22.413,12.01 22.279,12.372 22.026,12.645L18.026,16.953C17.5,17.519 16.614,17.552 16.047,17.026C15.481,16.5 15.448,15.614 15.974,15.047L19.019,11.769L16.05,9.029ZM11.728,5.489C11.915,4.739 12.676,4.283 13.425,4.47C14.175,4.657 14.632,5.418 14.444,6.168L11.358,18.511C11.171,19.261 10.41,19.717 9.66,19.53C8.911,19.343 8.454,18.582 8.642,17.832L11.728,5.489Z"/>
    </g>
</svg>
