<?xml version="1.0" encoding="UTF-8" standalone="no"?>
<!DOCTYPE svg PUBLIC "-//W3C//DTD SVG 1.1//EN" "http://www.w3.org/Graphics/SVG/1.1/DTD/svg11.dtd">
<svg width="100%" height="100%" viewBox="0 0 800 800" version="1.1" xmlns="http://www.w3.org/2000/svg"
     xmlns:xlink="http://www.w3.org/1999/xlink" xml:space="preserve" xmlns:serif="http://www.serif.com/"
     style="fill-rule:evenodd;clip-rule:evenodd;stroke-linejoin:round;stroke-miterlimit:2;">
    <g transform="matrix(30.0481,0,0,30.0481,159.615,159.615)">
        <path d="M-0.32,3.5C-0.32,2.502 0.502,1.68 1.5,1.68L14.5,1.68C15.498,1.68 16.32,2.502 16.32,3.5L16.32,12.5C16.32,13.498 15.498,14.32 14.5,14.32L1.5,14.32C0.502,14.32 -0.32,13.498 -0.32,12.5L-0.32,3.5ZM1.5,3.32C1.401,3.32 1.32,3.401 1.32,3.5L1.32,12.5C1.32,12.599 1.401,12.68 1.5,12.68L14.5,12.68C14.599,12.68 14.68,12.599 14.68,12.5L14.68,3.5C14.68,3.401 14.599,3.32 14.5,3.32L1.5,3.32ZM1.68,4.5C1.68,4.05 2.05,3.68 2.5,3.68L5.5,3.68C5.95,3.68 6.32,4.05 6.32,4.5C6.32,4.95 5.95,5.32 5.5,5.32L3.32,5.32L3.32,7.5C3.32,7.95 2.95,8.32 2.5,8.32C2.05,8.32 1.68,7.95 1.68,7.5L1.68,4.5ZM14.32,11.5C14.32,11.95 13.95,12.32 13.5,12.32L10.5,12.32C10.05,12.32 9.68,11.95 9.68,11.5C9.68,11.05 10.05,10.68 10.5,10.68L12.68,10.68L12.68,8.5C12.68,8.05 13.05,7.68 13.5,7.68C13.95,7.68 14.32,8.05 14.32,8.5L14.32,11.5Z"/>
    </g>
</svg>
