<?xml version="1.0" encoding="UTF-8" standalone="no"?>
<svg width="100%" height="100%" viewBox="0 0 800 800" version="1.1" xmlns="http://www.w3.org/2000/svg"
     style="fill-rule:evenodd;clip-rule:evenodd;stroke-linejoin:round;stroke-miterlimit:2;">
    <g transform="matrix(1.17994,0,0,1.17994,-74.8706,-71.9764)">
        <path fill="black" d="M213.452,538.894L213.452,262.47C213.452,259.608 215.772,257.288 218.634,257.288L255.214,257.288C258.075,257.288 260.395,259.608 260.395,262.47L260.395,370.8L393.712,370.8L393.712,262.47C393.712,259.608 396.032,257.288 398.895,257.288L435.474,257.288C438.336,257.288 440.656,259.608 440.656,262.47L440.656,538.894C440.656,541.756 438.336,544.075 435.474,544.075L398.895,544.075C396.032,544.075 393.712,541.756 393.712,538.894L393.712,413.783L260.395,413.783L260.395,538.894C260.395,541.756 258.075,544.075 255.214,544.075L218.634,544.075C215.772,544.075 213.452,541.756 213.452,538.894ZM586.273,543.843L552.333,543.843C549.47,543.843 547.15,541.524 547.15,538.661L547.15,333.749C540.264,339.246 532.153,344.745 522.809,350.235C509.241,358.209 497.049,364.179 486.246,368.165C484.656,368.752 482.88,368.524 481.489,367.555C480.098,366.586 479.27,364.998 479.27,363.304L479.27,330.495C479.27,328.487 480.43,326.66 482.247,325.806C500.75,317.105 516.931,306.575 530.778,294.2C544.397,282.027 554.09,270.257 559.756,258.808C560.63,257.042 562.429,255.925 564.4,255.925L586.273,255.925C589.134,255.925 591.454,258.244 591.454,261.106L591.454,538.661C591.454,541.524 589.134,543.843 586.273,543.843Z"/>
    </g>
</svg>
