<?xml version="1.0" encoding="UTF-8" standalone="no"?>
<svg width="100%" height="100%" viewBox="0 0 800 800" version="1.1" xmlns="http://www.w3.org/2000/svg"
     style="fill-rule:evenodd;clip-rule:evenodd;stroke-linejoin:round;stroke-miterlimit:2;">
    <g transform="matrix(0.906754,0,0,0.906754,37.2985,37.2985)">
        <path fill="black" d="M124.811,579.838L124.811,221.928C124.811,217.706 128.233,214.284 132.455,214.284L179.818,214.284C184.04,214.284 187.462,217.706 187.462,221.928L187.462,361.257L358.21,361.257L358.21,221.928C358.21,217.706 361.632,214.284 365.854,214.284L413.217,214.284C417.439,214.284 420.861,217.706 420.861,221.928L420.861,579.838C420.861,584.06 417.439,587.482 413.217,587.482L365.854,587.482C361.632,587.482 358.21,584.06 358.21,579.838L358.21,418.781L187.462,418.781L187.462,579.838C187.462,584.06 184.04,587.482 179.818,587.482L132.455,587.482C128.233,587.482 124.811,584.06 124.811,579.838ZM675.189,537.301L675.189,579.537C675.189,583.759 671.767,587.181 667.545,587.181L430.973,587.181C426.843,587.181 423.46,583.901 423.332,579.772C422.975,568.174 424.85,557.021 428.951,546.313C435.258,529.448 445.319,512.819 459.203,496.465C472.699,480.567 492.178,462.166 517.68,441.301C555.899,409.958 581.787,385.195 595.22,366.885C607.746,349.811 614.247,333.761 614.247,318.551C614.247,303.315 608.81,290.461 597.918,279.995C586.836,269.347 572.326,264.183 554.508,264.183C535.63,264.183 520.459,269.661 509.132,280.987C497.746,292.373 492.229,308.227 492.084,328.371C492.068,330.525 491.145,332.572 489.541,334.009C487.937,335.446 485.802,336.14 483.659,335.92L438.493,331.282C434.326,330.854 431.279,327.151 431.662,322.979C434.961,287.029 447.617,259.742 469.152,240.898C490.602,222.13 519.331,212.518 555.484,212.518C592.08,212.518 620.963,222.895 642.295,243.187C663.884,263.723 674.701,289.164 674.701,319.527C674.701,334.86 671.579,349.935 665.307,364.745C659.171,379.231 649.039,394.52 634.808,410.542C621.057,426.021 598.226,447.283 566.279,474.291L566.259,474.308C540.229,496.16 523.501,510.964 516.109,518.757C512.671,522.383 509.52,526.015 506.659,529.657L667.545,529.657C671.767,529.657 675.189,533.079 675.189,537.301Z"/>
    </g>
</svg>
