<svg fill="#ffffff" clip-rule="evenodd" fill-rule="evenodd" stroke-linejoin="round" stroke-miterlimit="2" viewBox="0 0 800 800"
     xmlns="http://www.w3.org/2000/svg">
    <path d="m0 0h800v800h-800z" fill="none"/>
    <g fill-rule="nonzero">
        <path d="m254.497 474.154v-357.91h47.363v146.973h186.036v-146.973h47.363v357.91h-47.363v-168.701h-186.036v168.701z"
              transform="translate(-122.0419 105.684)"/>
        <path d="m251.709-42.236v42.236h-236.572c-.326-10.579 1.383-20.752 5.127-30.518 6.022-16.113 15.665-31.982 28.93-47.607s32.43-33.691 57.495-54.199c38.9-31.901 65.186-57.17 78.858-75.806s20.508-36.255 20.508-52.856c0-17.416-6.226-32.105-18.677-44.068s-28.687-17.944-48.706-17.944c-21.159 0-38.086 6.348-50.781 19.043-12.696 12.695-19.125 30.273-19.287 52.734l-45.166-4.638c3.092-33.692 14.729-59.367 34.912-77.027 20.182-17.659 47.282-26.489 81.298-26.489 34.343 0 61.524 9.521 81.543 28.564 20.02 19.043 30.03 42.644 30.03 70.801 0 14.323-2.93 28.402-8.789 42.237-5.86 13.834-15.585 28.401-29.175 43.701-13.591 15.299-36.174 36.295-67.749 62.988-26.367 22.135-43.294 37.15-50.781 45.044s-13.672 15.828-18.555 23.804z"
              transform="translate(415.836 579.537)"/>
    </g>
</svg>