<?xml version="1.0" encoding="UTF-8" standalone="no"?>
<svg width="100%" height="100%" viewBox="0 0 800 800" version="1.1" xmlns="http://www.w3.org/2000/svg"
     style="fill-rule:evenodd;clip-rule:evenodd;stroke-linejoin:round;stroke-miterlimit:2;">
    <g transform="matrix(0.679997,0,0,0.679997,128,128)">
        <path fill="black" d="M36.499,631.972L36.499,162.415C36.499,156.838 41.019,152.317 46.596,152.317L108.733,152.317C114.31,152.317 118.83,156.838 118.83,162.415L118.83,345.137L342.705,345.137L342.705,162.415C342.705,156.838 347.224,152.317 352.801,152.317L414.939,152.317C420.516,152.317 425.035,156.838 425.035,162.415L425.035,631.972C425.035,637.547 420.516,642.068 414.939,642.068L352.801,642.068C347.224,642.068 342.705,637.547 342.705,631.972L342.705,420.743L118.83,420.743L118.83,631.972C118.83,637.547 114.31,642.068 108.733,642.068L46.596,642.068C41.019,642.068 36.499,637.547 36.499,631.972ZM444.586,497.612L502.239,489.925C507.505,489.223 512.415,492.722 513.469,497.929C519.558,527.977 529.514,549.821 544.145,563.076C558.189,575.802 575.327,582.083 595.5,582.083C619.786,582.083 640.31,573.703 657.043,556.874C673.815,540.006 682.132,519.086 682.132,494.168C682.132,470.606 674.56,451.126 659.167,435.83C643.75,420.508 624.095,412.981 600.304,412.981C590.098,412.981 577.403,415.053 562.196,419.054C558.95,419.908 555.493,419.095 552.971,416.883C550.446,414.671 549.187,411.351 549.608,408.022L556.014,357.414C556.707,351.942 561.665,348.038 567.147,348.646C570.53,349.023 573.253,349.226 575.321,349.226C597.83,349.226 618.099,343.392 636.107,331.648C652.898,320.697 660.992,303.665 660.992,280.851C660.992,262.642 654.921,247.523 642.598,235.569C630.124,223.468 613.952,217.599 594.218,217.599C574.586,217.599 558.18,223.649 545.092,235.989C531.556,248.751 523.19,268.047 519.322,293.574C518.915,296.266 517.437,298.679 515.225,300.266C513.012,301.852 510.253,302.479 507.572,302.002L449.918,291.753C447.274,291.282 444.926,289.778 443.393,287.573C441.861,285.368 441.271,282.643 441.752,280C449.268,238.777 466.541,206.937 493.189,184.276C519.94,161.526 553.154,150 592.938,150C620.223,150 645.343,155.887 668.31,167.597C691.669,179.508 709.489,195.808 721.863,216.392C734.268,237.028 740.442,258.946 740.442,282.131C740.442,304.442 734.438,324.751 722.46,343.068C714.481,355.272 703.962,365.838 690.85,374.705C710.3,382.798 726.122,394.934 738.377,411.017C755.004,432.841 763.503,460.093 763.503,492.888C763.503,536.758 747.521,573.949 715.533,604.452C683.787,634.724 643.704,650.002 595.18,650.002C551.23,650.002 514.794,636.755 485.761,610.567C456.666,584.326 439.978,550.368 435.871,508.61C435.339,503.194 439.193,498.331 444.586,497.612Z"/>
    </g>
</svg>
