<?xml version="1.0" encoding="UTF-8" standalone="no"?>
<svg width="100%" height="100%" viewBox="0 0 800 800" version="1.1" xmlns="http://www.w3.org/2000/svg"
     style="fill-rule:evenodd;clip-rule:evenodd;stroke-linejoin:round;stroke-miterlimit:2;">
    <g transform="matrix(0.679997,0,0,0.679997,128,128)">
        <path fill="black" d="M426.496,534.758L426.496,639.73C426.496,645.404 421.895,650.003 416.222,650.003L352.828,650.003C347.154,650.003 342.555,645.404 342.555,639.73L342.555,424.202L114.098,424.202L114.098,639.73C114.098,645.404 109.498,650.003 103.824,650.003L40.43,650.003C34.756,650.003 30.157,645.404 30.157,639.73L30.157,160.678C30.157,155.003 34.756,150.404 40.43,150.404L103.824,150.404C109.498,150.404 114.098,155.003 114.098,160.678L114.098,347.123L342.555,347.123L342.555,160.678C342.555,155.003 347.154,150.404 352.828,150.404L416.222,150.404C421.895,150.404 426.496,155.003 426.496,160.678L426.496,455.321L638.436,154.359C640.36,151.627 643.494,150.001 646.836,150.001L694.872,150.001C700.546,150.001 705.145,154.6 705.145,160.274L705.145,460.437L759.574,460.437C765.248,460.437 769.847,465.037 769.847,470.711L769.847,524.628C769.847,530.302 765.248,534.902 759.574,534.902L705.145,534.902L705.145,639.327C705.145,645.001 700.546,649.6 694.872,649.6L636.052,649.6C630.378,649.6 625.779,645.001 625.779,639.327L625.779,534.902L428.224,534.902C427.635,534.902 427.058,534.853 426.496,534.758ZM625.779,460.437L625.779,287.52L505.704,460.437L625.779,460.437Z"/>
    </g>
</svg>
