<?xml version="1.0" encoding="UTF-8" standalone="no"?>
<svg width="100%" height="100%" viewBox="0 0 800 800" version="1.1" xmlns="http://www.w3.org/2000/svg"
     style="fill-rule:evenodd;clip-rule:evenodd;stroke-linejoin:round;stroke-miterlimit:2;">
    <g transform="matrix(0.998719,0,0,0.998719,0.511286,0.511286)">
        <path fill="black" d="M150.001,558.065L150.001,236.728C150.001,232.893 153.11,229.783 156.946,229.783L199.469,229.783C203.304,229.783 206.413,232.893 206.413,236.728L206.413,361.738L359.55,361.738L359.55,236.728C359.55,232.893 362.659,229.783 366.495,229.783L409.018,229.783C412.853,229.783 415.962,232.893 415.962,236.728L415.962,558.065C415.962,561.9 412.853,565.009 409.018,565.009L366.495,565.009C362.659,565.009 359.55,561.9 359.55,558.065L359.55,413.547L206.413,413.547L206.413,558.065C206.413,561.9 203.304,565.009 199.469,565.009L156.946,565.009C153.11,565.009 150.001,561.9 150.001,558.065ZM429.415,466.704L470.842,463.197C474.485,462.889 477.744,465.458 478.293,469.073C481.079,487.376 487.322,501.241 497.469,510.46C507.353,519.439 519.286,523.89 533.24,523.89C550.227,523.89 564.588,517.46 576.348,504.656C588.401,491.53 594.246,474.058 594.246,452.362C594.246,431.935 588.723,415.744 577.25,403.939C565.891,392.251 550.968,386.535 532.583,386.535C521.134,386.535 510.794,389.099 501.582,394.296C492.401,399.477 485.167,406.175 479.921,414.438C478.474,416.717 475.838,417.951 473.162,417.602L436.118,412.78C434.224,412.534 432.514,411.517 431.393,409.97C430.272,408.424 429.836,406.484 430.191,404.607L461.316,239.554C461.935,236.273 464.801,233.897 468.141,233.897L627.932,233.897C631.767,233.897 634.876,237.006 634.876,240.841L634.876,278.543C634.876,282.377 631.767,285.487 627.932,285.487L505.395,285.487L492.318,350.703C508.636,342.077 525.571,337.794 543.105,337.794C573.112,337.794 598.422,348.212 619.052,368.999C639.611,389.714 650.001,416.304 650.001,448.856C650.001,479.609 640.986,506.174 623.062,528.583C601.119,556.276 571.208,570.219 533.24,570.219C502.114,570.219 476.758,561.354 457.071,543.924C437.288,526.409 425.904,503.228 423.089,474.297C422.909,472.448 423.477,470.605 424.666,469.178C425.854,467.752 427.565,466.861 429.415,466.704Z"/>
    </g>
</svg>
