<?xml version="1.0" encoding="UTF-8" standalone="no"?>
<svg width="100%" height="100%" viewBox="0 0 800 800" version="1.1" xmlns="http://www.w3.org/2000/svg"
     style="fill-rule:evenodd;clip-rule:evenodd;stroke-linejoin:round;stroke-miterlimit:2;">
    <g transform="matrix(0.680003,0,0,0.680003,128,128)">
        <path fill="black" d="M36.423,632.282L36.423,162.418C36.423,156.84 40.944,152.318 46.522,152.318L108.7,152.318C114.279,152.318 118.8,156.84 118.8,162.418L118.8,345.264L342.829,345.264L342.829,162.418C342.829,156.84 347.35,152.318 352.929,152.318L415.107,152.318C420.685,152.318 425.206,156.84 425.206,162.418L425.206,632.282C425.206,637.859 420.685,642.381 415.107,642.381L352.929,642.381C347.35,642.381 342.829,637.859 342.829,632.282L342.829,420.911L118.8,420.911L118.8,632.282C118.8,637.859 114.279,642.381 108.7,642.381L46.522,642.381C40.944,642.381 36.423,637.859 36.423,632.282ZM745.93,287.153L688.559,291.64C683.559,292.03 679.029,288.693 677.921,283.802C673.295,263.368 667.059,248.375 658.568,239.077C644.967,224.773 628.203,217.634 608.285,217.634C592.196,217.634 578.05,222.062 565.888,231.043L565.84,231.078C549.058,243.319 535.954,261.281 526.28,284.776C518.54,303.573 513.756,328.495 511.754,359.516C522.302,348.742 534.045,340.07 546.963,333.473C568.507,322.472 591.088,316.984 614.696,316.984C656.012,316.984 691.2,332.164 720.236,362.576C749,392.705 763.575,431.573 763.575,479.325C763.575,510.438 756.846,539.349 743.431,566.067C729.81,593.195 711.043,613.922 687.234,628.345C663.471,642.741 636.525,649.998 606.362,649.998C555.143,649.998 513.396,631.106 481.071,593.431C449.559,556.703 433.125,496.349 433.125,412.018C433.125,318.214 451.058,250.169 485.709,207.571L485.717,207.562C516.942,169.272 558.934,150 611.811,150C651.516,150 683.977,161.336 709.338,183.598C734.707,205.867 750.108,236.537 755.159,275.795C755.512,278.539 754.724,281.307 752.981,283.454C751.236,285.6 748.688,286.937 745.93,287.153ZM519.669,479.645C519.669,498.035 523.577,515.632 531.388,532.44C538.941,548.692 549.432,561.135 563.009,569.644C576.481,578.088 590.6,582.364 605.401,582.364C626.86,582.364 645.246,573.575 660.682,556.258C676.71,538.274 684.403,513.735 684.403,482.85C684.403,453.322 676.866,429.948 661.129,412.95C645.789,396.378 626.452,388.143 603.157,388.143C579.935,388.143 560.235,396.47 544.056,413.126C527.652,430.012 519.669,452.239 519.669,479.645Z"/>
    </g>
</svg>
