<?xml version="1.0" encoding="UTF-8" standalone="no"?>
<svg width="100%" height="100%" viewBox="0 0 800 800" version="1.1" xmlns="http://www.w3.org/2000/svg"
     style="fill-rule:evenodd;clip-rule:evenodd;stroke-linejoin:round;stroke-miterlimit:2;">
    <g transform="matrix(1.1782,0,0,1.1782,177.885,151.789)">
        <path fill="black" d="M405.333,381.71L362.667,424.376L85.333,424.376L128,381.71L405.333,381.71ZM41.168,299.372L103.67,361.874L42.667,392.376L0,403.043L10.667,360.376L41.168,299.372ZM61.1,191.304L212.137,342.341L206.972,347.655L201.097,347.365L194.944,347.269C184.457,347.272 172.809,348.085 160,349.71L151.97,350.837L144.124,352.129L136.617,353.518L127.387,355.421L48.949,276.983C50.507,270.71 52.086,262.939 53.333,253.71C55.865,234.979 56.794,216.011 56.122,196.806L59.428,193.084L61.1,191.304ZM282.327,0L403.007,120.68L384.971,143.929L352.416,185.429L333.317,209.394L316.303,230.396L304.91,244.205L291.543,260.024L282.885,269.945L275.4,278.199L269.086,284.788L254.094,299.615L227.035,327.069L75.976,176.01L78.539,173.389L116.393,135.765L128.06,124.569L141.034,112.688L152.353,102.69L164.509,92.253L177.5,81.378L191.328,70.064L205.992,58.312L229.556,39.861L246.31,27.013L263.901,13.726L282.327,0Z"/>
    </g>
</svg>
