<?xml version="1.0" encoding="UTF-8" standalone="no"?>
<svg width="100%" height="100%" viewBox="0 0 800 800" version="1.1" xmlns="http://www.w3.org/2000/svg"
     style="fill-rule:evenodd;clip-rule:evenodd;stroke-linejoin:round;stroke-miterlimit:2;">
    <g transform="matrix(0.767623,0,0,0.767623,143.689,105.974)">
        <path fill="black" d="M328.578,648.714L394.839,648.714C397.426,648.714 399.523,653.191 399.523,658.714L399.523,698.714C399.523,704.237 397.426,708.714 394.839,708.714L161.406,708.714C158.819,708.714 156.722,704.237 156.722,698.714L156.722,658.714C156.722,653.191 158.819,648.714 161.406,648.714L231.592,648.714L342.866,117.353L272.965,117.353C270.378,117.353 268.282,112.876 268.282,107.353L268.282,67.353C268.282,61.83 270.378,57.353 272.965,57.353L506.399,57.353C508.986,57.353 511.083,61.83 511.083,67.353L511.083,107.353C511.083,112.876 508.986,117.353 506.399,117.353L439.49,117.353L328.578,648.714Z"/>
    </g>
</svg>
