<?xml version="1.0" encoding="UTF-8" standalone="no"?>
<!DOCTYPE svg PUBLIC "-//W3C//DTD SVG 1.1//EN" "http://www.w3.org/Graphics/SVG/1.1/DTD/svg11.dtd">
<svg width="100%" height="100%" viewBox="0 0 800 800" version="1.1" xmlns="http://www.w3.org/2000/svg" xmlns:xlink="http://www.w3.org/1999/xlink" xml:space="preserve" xmlns:serif="http://www.serif.com/" style="fill-rule:evenodd;clip-rule:evenodd;stroke-linejoin:round;stroke-miterlimit:2;">
    <path d="M499.227,33.334L300,33.334C281.591,33.334 266.667,48.258 266.667,66.667C266.667,85.077 281.591,100.001 300,100.001L455.2,100.001L275.199,700L100,700C81.591,700 66.667,714.923 66.667,733.333C66.667,751.743 81.591,766.667 100,766.667L299.251,766.667C299.76,766.68 300.268,766.68 300.775,766.667L500,766.667C518.41,766.667 533.333,751.743 533.333,733.333C533.333,714.923 518.41,700 500,700L344.8,700L524.8,100.001L700,100.001C718.41,100.001 733.333,85.077 733.333,66.667C733.333,48.258 718.41,33.334 700,33.334L500.75,33.334C500.24,33.322 499.733,33.322 499.227,33.334Z"/>
</svg>
