<?xml version="1.0" encoding="UTF-8" standalone="no"?>
<svg width="100%" height="100%" viewBox="0 0 800 800" version="1.1" xmlns="http://www.w3.org/2000/svg"
     style="fill-rule:evenodd;clip-rule:evenodd;stroke-linejoin:round;stroke-miterlimit:2;">
    <g transform="matrix(23.4403,0,0,23.4403,118.723,118.717)">
        <path fill="black" d="M9.165,19.281C7.841,20.029 6.218,20.023 4.899,19.261C4.492,19.026 4.084,18.653 3.301,17.87C2.518,17.087 2.146,16.679 1.911,16.272C1.142,14.941 1.142,13.301 1.911,11.971C2.146,11.563 2.518,11.156 3.301,10.373L6.13,7.544C6.913,6.761 7.32,6.389 7.728,6.154C9.059,5.385 10.698,5.385 12.029,6.154C12.436,6.389 12.844,6.761 13.627,7.544C14.41,8.327 14.783,8.735 15.018,9.142C15.786,10.473 15.786,12.113 15.018,13.444L15.013,13.451L15.017,13.445L15.015,13.447L15.015,13.447C15.012,13.452 15.01,13.456 15.007,13.46C15.01,13.456 15.012,13.452 15.015,13.447L15.011,13.455L14.984,13.496C14.989,13.488 14.995,13.479 15.002,13.468C14.954,13.541 14.965,13.524 14.984,13.496C14.959,13.535 14.969,13.524 15.005,13.465C14.856,13.719 14.659,13.975 14.359,14.296C13.868,14.821 13.044,14.849 12.519,14.359C11.994,13.869 11.966,13.044 12.456,12.519C12.596,12.37 12.696,12.26 12.764,12.142C13.067,11.617 13.067,10.969 12.764,10.444C12.604,10.167 12.319,9.917 11.787,9.385C11.254,8.852 11.005,8.568 10.728,8.408C10.202,8.104 9.555,8.104 9.029,8.408C8.752,8.568 8.503,8.852 7.97,9.385L5.142,12.213C4.609,12.746 4.325,12.995 4.165,13.272C3.861,13.798 3.861,14.445 4.165,14.971C4.325,15.248 4.609,15.497 5.142,16.03C5.674,16.562 5.924,16.847 6.201,17.007C6.726,17.31 7.374,17.31 7.899,17.007C8.017,16.938 8.128,16.839 8.277,16.699C8.802,16.209 9.626,16.237 10.116,16.762C10.606,17.288 10.578,18.112 10.053,18.602C9.723,18.91 9.462,19.11 9.201,19.261L9.199,19.261L9.165,19.281ZM15.013,13.451L15.005,13.465L15.011,13.455L15.013,13.451ZM9.165,19.281C9.175,19.275 9.186,19.269 9.197,19.263C9.158,19.285 9.156,19.286 9.165,19.281ZM12.002,17.865L11.97,17.846C11.563,17.611 11.155,17.239 10.372,16.456C9.589,15.673 9.217,15.265 8.982,14.858C8.227,13.551 8.213,11.947 8.94,10.629C8.954,10.605 8.967,10.581 8.981,10.557C8.972,10.572 8.977,10.565 8.982,10.556C8.989,10.545 8.997,10.53 8.982,10.556C9.133,10.295 9.332,10.034 9.641,9.704C10.131,9.179 10.955,9.151 11.48,9.641C12.005,10.131 12.033,10.956 11.543,11.481C11.404,11.63 11.304,11.74 11.236,11.858C10.932,12.383 10.932,13.031 11.236,13.556C11.396,13.833 11.68,14.083 12.213,14.615C12.745,15.148 12.995,15.432 13.272,15.592C13.797,15.896 14.445,15.896 14.97,15.592C15.247,15.432 15.497,15.148 16.029,14.615L18.858,11.787C19.39,11.255 19.674,11.005 19.834,10.728L19.835,10.728C19.831,10.735 19.827,10.742 19.828,10.739C19.819,10.755 19.835,10.728 19.835,10.728L19.835,10.728L19.842,10.716C20.138,10.193 20.136,9.551 19.835,9.03L19.835,9.029C19.675,8.752 19.39,8.503 18.858,7.971C18.325,7.438 18.076,7.153 17.799,6.993C17.273,6.69 16.626,6.69 16.1,6.994C16.054,7.02 16.002,7.034 15.949,7.034C15.949,7.034 16.013,7.044 16.1,6.994C15.982,7.062 15.872,7.162 15.723,7.301C15.197,7.791 14.373,7.763 13.883,7.238C13.393,6.713 13.421,5.888 13.946,5.398C14.277,5.09 14.538,4.89 14.799,4.739C16.13,3.971 17.769,3.971 19.1,4.739C19.507,4.974 19.915,5.347 20.698,6.13C21.481,6.913 21.854,7.321 22.089,7.728C22.857,9.059 22.857,10.699 22.089,12.029C21.854,12.437 21.481,12.844 20.698,13.627L17.87,16.456C17.087,17.239 16.679,17.611 16.272,17.846C14.952,18.609 13.327,18.615 12.002,17.865Z"/>
    </g>
</svg>
