<svg fill="#ffffff" clip-rule="evenodd" fill-rule="evenodd" stroke-linejoin="round" stroke-miterlimit="2"
     viewBox="0 0 693 504"
     xmlns="http://www.w3.org/2000/svg">
    <path d="m282.296 563.495c13.717-12.804 35.25-12.063 48.055 1.655 12.804 13.717 12.063 35.25-1.655 48.055-10.355 9.665-18.504 15.961-26.695 20.692l-.002.001c-41.461 23.938-92.541 23.937-134 0-13.104-7.566-26.131-19.674-51.322-44.863-25.193-25.193-37.301-38.221-44.867-51.326-23.936-41.46-23.936-92.54.001-133.999 7.565-13.102 19.673-26.129 44.865-51.322l94.281-94.281c25.191-25.19 38.218-37.299 51.322-44.865 41.461-23.936 92.542-23.936 134.003.001 13.101 7.566 26.128 19.674 51.319 44.864 25.192 25.192 37.301 38.219 44.866 51.322 23.938 41.46 23.939 92.542 0 134.003l-.001.002c-4.731 8.191-11.029 16.345-20.702 26.701-12.809 13.714-34.342 14.448-48.055 1.639-13.714-12.809-14.448-34.342-1.639-48.055 5.253-5.625 8.94-9.843 11.51-14.292 11.788-20.419 11.788-45.577-.001-65.996-5.602-9.701-15.41-18.59-34.06-37.24-18.651-18.65-27.541-28.458-37.24-34.06-20.42-11.789-45.579-11.788-66 .001-9.7 5.601-18.589 15.409-37.238 34.059l-94.281 94.281c-18.651 18.65-28.459 27.539-34.059 37.239-11.79 20.42-11.79 45.578.001 66l.001.002c5.599 9.701 15.407 18.589 34.056 37.238 18.65 18.648 27.539 28.456 37.24 34.057 20.42 11.79 45.577 11.79 65.997.002 4.452-2.571 8.671-6.26 14.3-11.515zm45.92-233.63c12.809-13.714 34.342-14.448 48.055-1.639 13.714 12.809 14.448 34.342 1.639 48.055-5.253 5.624-8.94 9.843-11.509 14.291-11.788 20.42-11.787 45.579.001 65.999 5.601 9.701 15.409 18.59 34.059 37.237 18.651 18.651 27.541 28.46 37.241 34.061 20.419 11.789 45.578 11.789 65.999-.001 9.701-5.601 18.59-15.41 37.24-34.06l94.28-94.28c18.649-18.648 28.457-27.536 34.056-37.237l.001-.002c11.79-20.42 11.79-45.578-.001-66.002l-.002-.003c-5.598-9.699-15.406-18.586-34.053-37.233-18.651-18.65-27.54-28.459-37.239-34.059-20.422-11.79-45.579-11.791-66.002.001l-.004.002c-4.451 2.569-8.666 6.258-14.294 11.511-13.717 12.805-35.25 12.064-48.054-1.654-12.805-13.717-12.064-35.25 1.654-48.054 10.359-9.671 18.509-15.968 26.703-20.697 41.459-23.936 92.534-23.936 133.997.001 13.102 7.565 26.129 19.673 51.321 44.865 25.193 25.192 37.302 38.221 44.865 51.326 23.936 41.458 23.936 92.537 0 133.996-7.563 13.102-19.672 26.13-44.864 51.323l-94.28 94.28c-25.193 25.192-38.22 37.3-51.325 44.866-41.46 23.938-92.541 23.937-134.002-.001-13.101-7.566-26.128-19.674-51.319-44.865-25.193-25.189-37.301-38.217-44.867-51.323-23.935-41.459-23.935-92.539.001-134.001l.001-.002c4.731-8.191 11.029-16.345 20.702-26.701z"
          transform="translate(-53.8576 -148.1486)"/>
</svg>