<?xml version="1.0" encoding="UTF-8" standalone="no"?>
<!DOCTYPE svg PUBLIC "-//W3C//DTD SVG 1.1//EN" "http://www.w3.org/Graphics/SVG/1.1/DTD/svg11.dtd">
<svg width="100%" height="100%" viewBox="0 0 800 800" version="1.1" xmlns="http://www.w3.org/2000/svg" xmlns:xlink="http://www.w3.org/1999/xlink" xml:space="preserve" xmlns:serif="http://www.serif.com/" style="fill-rule:evenodd;clip-rule:evenodd;stroke-linejoin:round;stroke-miterlimit:2;">
    <path d="M733.333,166.667L266.667,166.667L266.667,133.333L733.333,133.333L733.333,166.667ZM733.333,666.667L266.667,666.667L266.667,700L733.333,700L733.333,666.667ZM733.333,400L266.667,400L266.667,433.333L733.333,433.333L733.333,400ZM166.667,633.333C166.667,615.047 151.619,600 133.333,600L100,600C81.567,600 66.667,600 66.667,633.333L133.333,633.333L133.333,666.667L116.667,666.667C107.524,666.667 100,674.19 100,683.333C100,692.476 107.524,700 116.667,700L133.333,700L133.333,733.333L66.667,733.333C66.667,766.667 81.567,766.667 100,766.667L133.333,766.667C151.619,766.667 166.667,751.619 166.667,733.333L166.667,700C166.516,694.084 164.752,688.32 161.567,683.333C164.769,678.354 166.535,672.585 166.667,666.667L166.667,633.333ZM166.667,200L133.333,200L133.333,66.667L66.667,66.667L66.667,100L100,100L100,200L66.667,200L66.667,233.333L166.667,233.333L166.667,200ZM133.333,433.333C151.619,433.333 166.667,418.286 166.667,400L166.667,366.667C166.667,348.381 151.619,333.333 133.333,333.333L100,333.333C81.714,333.333 66.667,348.381 66.667,366.667L133.333,366.667L133.333,400L100,400C81.714,400 66.667,415.047 66.667,433.333L66.667,466.667C66.667,484.953 81.714,500 100,500L166.667,500L166.667,466.667L100,466.667L100,433.333L133.333,433.333Z" style="fill-rule:nonzero;stroke:black;stroke-width:40px;"/>
    <rect x="0" y="0" width="800" height="800" style="fill:none;fill-rule:nonzero;"/>
</svg>
