<?xml version="1.0" encoding="UTF-8" standalone="no"?>
<!DOCTYPE svg PUBLIC "-//W3C//DTD SVG 1.1//EN" "http://www.w3.org/Graphics/SVG/1.1/DTD/svg11.dtd">
<svg width="100%" height="100%" viewBox="0 0 800 800" version="1.1" xmlns="http://www.w3.org/2000/svg"
     xmlns:xlink="http://www.w3.org/1999/xlink" xml:space="preserve" xmlns:serif="http://www.serif.com/"
     style="fill-rule:evenodd;clip-rule:evenodd;stroke-linejoin:round;stroke-miterlimit:2;">
    <g transform="matrix(1,0,0,1,7.68448,112.395)">
        <path fill="currentColor"
              d="M646.196,140.884L646.196,175.884C646.196,185.542 638.355,193.384 628.696,193.384L400.793,193.384C391.135,193.384 383.293,185.542 383.293,175.884L383.293,140.884C383.293,131.225 391.135,123.384 400.793,123.384L628.696,123.384C638.355,123.384 646.196,131.225 646.196,140.884ZM261.995,271.695L221.546,271.695C217.476,271.695 214.176,268.395 214.176,264.325L214.176,127.637C201.53,137.045 187.343,144.353 171.605,149.549C169.36,150.29 166.894,149.909 164.978,148.523C163.061,147.138 161.926,144.916 161.926,142.551L161.926,105.844C161.926,102.658 163.974,99.832 167.003,98.842C176.883,95.608 187.58,89.411 199.168,80.383C210.345,71.677 218.078,61.567 222.237,49.958C223.287,47.027 226.064,45.073 229.175,45.073L261.995,45.073C266.064,45.073 269.364,48.373 269.364,52.443L269.364,264.325C269.364,268.395 266.064,271.695 261.995,271.695ZM646.196,400.849L646.196,435.849C646.196,445.507 638.355,453.349 628.696,453.349L400.793,453.349C391.135,453.349 383.293,445.507 383.293,435.849L383.293,400.849C383.293,391.19 391.135,383.348 400.793,383.348L628.696,383.348C638.355,383.348 646.196,391.19 646.196,400.849ZM220.877,478.531L285.584,478.531C289.599,478.531 292.855,481.786 292.855,485.802L292.855,522.865C292.855,526.88 289.599,530.136 285.584,530.136L145.706,530.136C143.641,530.136 141.675,529.259 140.295,527.722C138.917,526.187 138.255,524.136 138.477,522.085C140.105,507.027 144.976,492.754 153.115,479.274C160.916,466.354 176.248,449.149 199.26,427.794C216.605,411.637 227.322,400.74 231.289,394.945C235.858,388.074 238.266,381.324 238.266,374.61C238.266,367.983 236.784,362.791 233.224,359.231C229.705,355.712 224.76,354.189 218.556,354.189C212.428,354.189 207.486,355.847 203.865,359.536C199.881,363.598 198.024,370.486 197.41,379.91C197.282,381.878 196.36,383.71 194.855,384.984C193.351,386.259 191.393,386.869 189.431,386.672L149.669,382.697C147.74,382.503 145.969,381.549 144.748,380.044C143.526,378.539 142.956,376.609 143.164,374.683C145.789,350.317 154.406,333.007 168.269,322.399C181.955,311.927 199.021,306.56 219.549,306.56C242.246,306.56 259.995,312.92 272.965,325.157C286.209,337.654 292.855,353.184 292.855,371.77C292.855,382.081 290.998,391.897 287.3,401.218C283.714,410.262 278.065,419.753 270.285,429.654C265.303,436.003 256.342,445.161 243.353,457.078C232.084,467.413 224.585,474.557 220.877,478.531Z"/>
    </g>
</svg>
