<?xml version="1.0" encoding="UTF-8" standalone="no"?>
<svg width="100%" height="100%" viewBox="0 0 800 800" version="1.1" xmlns="http://www.w3.org/2000/svg"
     style="fill-rule:evenodd;clip-rule:evenodd;stroke-linejoin:round;stroke-miterlimit:2;">
    <g transform="matrix(-25.888,0,0,25.888,726.37,85.1764)">
        <path fill="black"
              d="M5.05,12.628C6.947,10.937 8.942,9.422 11.599,9.048C13.757,8.744 15.955,9.15 17.862,10.204C19.769,11.259 21.282,12.904 22.172,14.893C22.409,15.422 22.172,16.043 21.643,16.28C21.114,16.517 20.492,16.28 20.256,15.751C19.551,14.178 18.354,12.876 16.846,12.042C15.337,11.208 13.599,10.887 11.892,11.128C9.786,11.424 8.197,12.608 6.696,13.95L10,13.95C10.58,13.95 11.05,14.42 11.05,15C11.05,15.58 10.58,16.05 10,16.05L4,16.05C3.848,16.05 3.703,16.017 3.572,15.959C3.441,15.901 3.32,15.815 3.219,15.701C3.13,15.603 3.064,15.492 3.019,15.376C2.975,15.259 2.95,15.132 2.95,15L2.95,9C2.95,8.42 3.42,7.95 4,7.95C4.58,7.95 5.05,8.42 5.05,9L5.05,12.628Z"/>
    </g>
</svg>
