<svg fill="#ffffff" clip-rule="evenodd" fill-rule="evenodd" stroke-linejoin="round" stroke-miterlimit="2" viewBox="0 0 800 800"
     xmlns="http://www.w3.org/2000/svg">
    <path d="m0 0h800v800h-800z" fill="none"/>
    <g fill-rule="nonzero">
        <path d="m433.333 539.067 178.8-178.8 47.134 47.133-259.267 259.267-259.267-259.267 47.134-47.133 178.8 178.8v-405.734h66.666z"
              transform="matrix(.44073 0 0 .4675 375.4332 47)"/>
        <path d="m433.333 539.067 178.8-178.8 47.134 47.133-259.267 259.267-259.267-259.267 47.134-47.133 178.8 178.8v-405.734h66.666z"
              transform="matrix(.44073 0 0 -.4675 375.4332 753)"/>
        <path d="m154.221 427.656 64.244-206.515h23.848l68.466 206.515h-25.218l-19.513-62.546h-69.949l-18.371 62.546zm48.268-84.803h56.713l-17.459-57.194c-5.325-17.374-9.281-31.648-11.868-42.824-2.13 13.242-5.134 26.389-9.014 39.443z"
              transform="matrix(1.71163 0 0 1.38647 -129.9608 -49.77)"/>
    </g>
</svg>