<?xml version="1.0" encoding="UTF-8" standalone="no"?>
<svg width="100%" height="100%" viewBox="0 0 800 800" version="1.1" xmlns="http://www.w3.org/2000/svg"
     style="fill-rule:evenodd;clip-rule:evenodd;stroke-linejoin:round;stroke-miterlimit:2;">
    <g transform="matrix(0.831485,0,0,0.831485,67.4061,67.4061)">
        <path fill="black" d="M616.198,292.969L668.389,237.607C669.993,235.907 672.225,234.944 674.562,234.944C676.899,234.944 679.131,235.907 680.735,237.607L698.356,256.299C701.437,259.567 701.437,264.669 698.356,267.937L601.426,370.756C599.822,372.457 597.59,373.42 595.252,373.42C592.917,373.42 590.683,372.457 589.081,370.756L492.149,267.937C489.069,264.669 489.069,259.567 492.149,256.299L509.772,237.607C511.374,235.907 513.606,234.944 515.944,234.944C518.279,234.944 520.513,235.907 522.115,237.607L574.307,292.969L574.307,153.429C574.307,148.744 578.105,144.947 582.791,144.947L607.715,144.947C612.4,144.947 616.198,148.744 616.198,153.429L616.198,292.969ZM616.198,507.031L616.198,646.571C616.198,651.256 612.4,655.053 607.715,655.053L582.791,655.053C578.105,655.053 574.307,651.256 574.307,646.571L574.307,507.031L522.115,562.393C520.513,564.093 518.279,565.056 515.944,565.056C513.606,565.056 511.374,564.093 509.772,562.393L492.149,543.701C489.069,540.433 489.069,535.331 492.149,532.063L589.081,429.244C590.683,427.543 592.917,426.58 595.252,426.58C597.59,426.58 599.822,427.543 601.426,429.244L698.356,532.063C701.437,535.331 701.437,540.433 698.356,543.701L680.735,562.393C679.131,564.093 676.899,565.056 674.562,565.056C672.225,565.056 669.993,564.093 668.389,562.393L616.198,507.031ZM209.236,525.887L171.519,640.18C170.372,643.657 167.124,646.005 163.464,646.005L107.816,646.005C105.074,646.005 102.502,644.68 100.91,642.448C99.318,640.216 98.903,637.352 99.795,634.761L263.346,159.717C264.524,156.293 267.746,153.995 271.366,153.995L335.837,153.995C339.418,153.995 342.613,156.244 343.822,159.615L514.158,634.659C515.09,637.257 514.7,640.146 513.11,642.404C511.522,644.662 508.933,646.005 506.173,646.005L450.526,646.005C446.905,646.005 443.683,643.707 442.505,640.283L403.12,525.887L209.236,525.887ZM304.124,238.348L229.615,464.131L381.858,464.131L304.124,238.348Z"/>
    </g>
</svg>
