<?xml version="1.0" encoding="UTF-8" standalone="no"?>
<svg width="100%" height="100%" viewBox="0 0 800 800" version="1.1" xmlns="http://www.w3.org/2000/svg"
     style="fill-rule:evenodd;clip-rule:evenodd;stroke-linejoin:round;stroke-miterlimit:2;">
    <g transform="matrix(0.557253,0,0,0.557253,183.159,136.574)">
        <path fill="black" d="M767.417,599.036L582.386,830.325C575.807,838.537 565.835,843.325 555.312,843.325C546.105,843.325 537.267,839.66 530.763,833.146L415.118,717.502C408.079,710.943 404.077,701.742 404.077,692.12C404.077,691.627 404.087,691.136 404.108,690.648C404.891,672.287 420.231,657.427 438.77,657.427C448.392,657.427 457.592,661.429 464.152,668.469L552.411,756.682L713.203,555.646C719.782,547.413 729.767,542.611 740.306,542.611C748.193,542.611 755.851,545.3 762.005,550.234C769.751,556.424 774.46,565.629 774.99,575.474C775.024,576.093 775.04,576.714 775.04,577.338C775.04,585.224 772.351,592.882 767.417,599.036ZM389.215,687.97C381.154,685.897 373.149,682.816 365.198,678.729C349.064,670.434 335.163,658.173 323.495,641.948L323.495,684.608L252.122,684.608L252.122,283.714L328.965,283.714L328.965,428.102C352.665,401.12 380.74,387.629 413.191,387.629C448.558,387.629 477.819,400.436 500.972,426.051C524.125,451.665 535.701,488.445 535.701,536.392C535.701,585.98 523.897,624.173 500.288,650.972C495.042,656.927 489.547,662.22 483.802,666.851L474.952,658.005C465.571,648.051 452.468,642.392 438.77,642.392C412.886,642.392 391.353,662.6 389.215,687.97ZM328.418,533.111C328.418,563.191 333.158,585.433 342.638,599.835C355.946,620.254 373.63,630.463 395.689,630.463C412.644,630.463 427.092,623.216 439.033,608.723C450.974,594.229 456.944,571.395 456.944,540.221C456.944,507.041 450.928,483.113 438.896,468.437C426.864,453.761 411.459,446.423 392.681,446.423C374.268,446.423 358.954,453.579 346.74,467.89C334.525,482.201 328.418,503.941 328.418,533.111ZM610.711,659.719C607.566,656.982 604.536,654.066 601.621,650.972C576.371,624.173 563.746,587.074 563.746,539.674C563.746,491.727 576.417,454.399 601.757,427.691C627.098,400.983 661.372,387.629 704.579,387.629C739.946,387.629 768.067,395.241 788.942,410.463C809.816,425.686 824.81,448.885 833.926,480.059L758.177,493.732C755.625,478.601 749.837,467.207 740.812,459.55C731.788,451.893 720.075,448.064 705.673,448.064C686.53,448.064 671.262,454.673 659.868,467.89C648.474,481.107 642.777,503.212 642.777,534.204C642.777,564.977 647.393,587.679 656.627,602.311L610.711,659.719ZM790.071,578.042L837.754,586.162C829.915,620.8 814.875,646.962 792.633,664.645C772.397,680.735 745.898,689.505 713.137,690.955L779.158,608.429C786.074,599.803 789.914,589.098 790.071,578.042ZM18.159,482.794L-51.573,470.215C-43.734,442.139 -30.243,421.356 -11.101,407.865C8.041,394.375 36.481,387.629 74.219,387.629C108.493,387.629 134.016,391.686 150.788,399.798C167.56,407.911 179.365,418.211 186.201,430.699C193.038,443.188 196.456,466.113 196.456,499.475L195.635,589.17C195.635,614.693 196.866,633.516 199.327,645.64C201.788,657.763 206.392,670.753 213.137,684.608L137.115,684.608C135.109,679.503 132.648,671.938 129.731,661.911C128.455,657.353 127.544,654.345 126.997,652.887C113.871,665.648 99.833,675.219 84.884,681.6C69.935,687.981 53.983,691.171 37.028,691.171C7.13,691.171 -16.434,683.058 -33.662,666.833C-50.89,650.608 -59.504,630.098 -59.504,605.304C-59.504,588.897 -55.584,574.267 -47.745,561.414C-39.906,548.561 -28.922,538.717 -14.793,531.88C-0.664,525.044 19.709,519.073 46.326,513.968C82.24,507.223 107.125,500.933 120.981,495.1L120.981,487.443C120.981,472.676 117.334,462.147 110.042,455.858C102.75,449.568 88.986,446.423 68.75,446.423C55.076,446.423 44.411,449.113 36.755,454.491C29.098,459.869 22.899,469.303 18.159,482.794ZM120.981,545.143C111.136,548.424 95.549,552.344 74.219,556.902C52.889,561.459 38.942,565.926 32.379,570.301C22.352,577.411 17.339,586.436 17.339,597.374C17.339,608.13 21.35,617.428 29.371,625.267C37.393,633.106 47.602,637.026 59.999,637.026C73.854,637.026 87.071,632.468 99.651,623.353C108.948,616.425 115.056,607.948 117.972,597.921C119.978,591.358 120.981,578.87 120.981,560.457L120.981,545.143Z"/>
    </g>
</svg>
