<?xml version="1.0" encoding="UTF-8" standalone="no"?>
<svg width="100%" height="100%" viewBox="0 0 800 800" version="1.1" xmlns="http://www.w3.org/2000/svg"
     style="fill-rule:evenodd;clip-rule:evenodd;stroke-linejoin:round;stroke-miterlimit:2;">
    <g transform="matrix(0.557253,0,0,0.557253,183.159,136.713)">
        <path fill="black" d="M564.35,695.546L473.25,604.4C459.693,590.844 459.693,568.913 473.25,555.357C486.806,541.8 508.737,541.8 522.293,555.357L613.439,646.457L704.586,555.357C718.096,541.8 740.073,541.8 753.629,555.357C758.767,560.494 761.957,566.835 763.201,573.466C765.238,584.333 762.048,595.981 753.629,604.4L662.529,695.546L753.629,786.693C767.185,800.203 767.185,822.18 753.629,835.736C740.073,849.292 718.096,849.292 704.586,835.736L613.439,744.636L522.293,835.736C508.737,849.292 486.806,849.292 473.25,835.736C459.693,822.18 459.693,800.249 473.25,786.693L564.35,695.546ZM499.466,651.898C476.014,678.08 447.621,691.171 414.284,691.171C397.694,691.171 381.332,687.024 365.198,678.729C349.064,670.434 335.163,658.173 323.495,641.948L323.495,684.608L252.122,684.608L252.122,283.714L328.965,283.714L328.965,428.102C352.665,401.12 380.74,387.629 413.191,387.629C448.558,387.629 477.819,400.436 500.972,426.051C524.125,451.665 535.701,488.445 535.701,536.392C535.701,540.092 535.635,543.729 535.504,547.303L532.922,544.722C513.488,525.291 482.051,525.292 462.618,544.725C460.365,546.978 458.374,549.392 456.643,551.93C456.844,548.167 456.944,544.264 456.944,540.221C456.944,507.041 450.928,483.113 438.896,468.437C426.864,453.761 411.459,446.423 392.681,446.423C374.268,446.423 358.954,453.579 346.74,467.89C334.525,482.201 328.418,503.941 328.418,533.111C328.418,563.191 333.158,585.433 342.638,599.835C355.946,620.254 373.63,630.463 395.689,630.463C412.644,630.463 427.092,623.216 439.033,608.723C443.146,603.73 446.551,597.748 449.247,590.776C451.238,599.661 455.695,608.108 462.618,615.032L499.466,651.898ZM567.019,578.801C564.837,566.649 563.746,553.606 563.746,539.674C563.746,491.727 576.417,454.399 601.757,427.691C627.098,400.983 661.372,387.629 704.579,387.629C739.946,387.629 768.067,395.241 788.942,410.463C809.816,425.686 824.81,448.885 833.926,480.059L758.177,493.732C755.625,478.601 749.837,467.207 740.812,459.55C731.788,451.893 720.075,448.064 705.673,448.064C686.53,448.064 671.262,454.673 659.868,467.89C648.474,481.107 642.777,503.212 642.777,534.204C642.777,556.591 645.22,574.706 650.106,588.55L613.439,625.199L567.019,578.801ZM778.694,576.105L837.754,586.162C829.915,620.8 814.875,646.962 792.633,664.645C770.392,682.329 740.584,691.171 703.211,691.171C698.259,691.171 693.424,690.989 688.706,690.625L764.263,615.029C774.941,604.352 779.751,590.049 778.694,576.105ZM18.159,482.794L-51.573,470.215C-43.734,442.139 -30.243,421.356 -11.101,407.865C8.041,394.375 36.481,387.629 74.219,387.629C108.493,387.629 134.016,391.686 150.788,399.798C167.56,407.911 179.365,418.211 186.201,430.699C193.038,443.188 196.456,466.113 196.456,499.475L195.635,589.17C195.635,614.693 196.866,633.516 199.327,645.64C201.788,657.763 206.392,670.753 213.137,684.608L137.115,684.608C135.109,679.503 132.648,671.938 129.731,661.911C128.455,657.353 127.544,654.345 126.997,652.887C113.871,665.648 99.833,675.219 84.884,681.6C69.935,687.981 53.983,691.171 37.028,691.171C7.13,691.171 -16.434,683.058 -33.662,666.833C-50.89,650.608 -59.504,630.098 -59.504,605.304C-59.504,588.897 -55.584,574.267 -47.745,561.414C-39.906,548.561 -28.922,538.717 -14.793,531.88C-0.664,525.044 19.709,519.073 46.326,513.968C82.24,507.223 107.125,500.933 120.981,495.1L120.981,487.443C120.981,472.676 117.334,462.147 110.042,455.858C102.75,449.568 88.986,446.423 68.75,446.423C55.076,446.423 44.411,449.113 36.755,454.491C29.098,459.869 22.899,469.303 18.159,482.794ZM120.981,545.143C111.136,548.424 95.549,552.344 74.219,556.902C52.889,561.459 38.942,565.926 32.379,570.301C22.352,577.411 17.339,586.436 17.339,597.374C17.339,608.13 21.35,617.428 29.371,625.267C37.393,633.106 47.602,637.026 59.999,637.026C73.854,637.026 87.071,632.468 99.651,623.353C108.948,616.425 115.056,607.948 117.972,597.921C119.978,591.358 120.981,578.87 120.981,560.457L120.981,545.143Z"/>
    </g>
</svg>
