<?xml version="1.0" encoding="UTF-8" standalone="no"?>
<!DOCTYPE svg PUBLIC "-//W3C//DTD SVG 1.1//EN" "http://www.w3.org/Graphics/SVG/1.1/DTD/svg11.dtd">
<svg width="100%" height="100%" viewBox="0 0 800 800" version="1.1" xmlns="http://www.w3.org/2000/svg"
     xmlns:xlink="http://www.w3.org/1999/xlink" xml:space="preserve" xmlns:serif="http://www.serif.com/"
     style="fill-rule:evenodd;clip-rule:evenodd;stroke-linejoin:round;stroke-miterlimit:2;">
    <path d="M316.597,342.988L140.374,342.988L111.468,422.211C101.742,448.866 69.532,463.471 39.523,454.833C9.515,446.194 -6.928,417.582 2.798,390.927L119.815,70.214C139.266,16.903 203.688,-12.307 263.705,4.97C298.548,15.001 325.863,39.264 337.156,70.214L454.173,390.927C463.899,417.582 447.456,446.194 417.448,454.833C387.439,463.471 355.229,448.866 345.503,422.211L316.597,342.988ZM274.882,228.659L228.485,101.498L182.089,228.659L274.882,228.659Z"
          style="fill:black;stroke:black;stroke-width:1px;"/>
    <g transform="matrix(1.27545,0,0,1.27545,57.4755,57.1694)">
        <path d="M233.162,233.545C220.144,246.563 220.144,267.668 233.162,280.686L352.667,400.19L233.162,519.697C220.144,532.713 220.144,553.82 233.162,566.837C246.179,579.853 267.285,579.853 280.302,566.837L399.807,447.33L519.313,566.837C532.33,579.853 553.437,579.853 566.453,566.837C579.47,553.82 579.47,532.713 566.453,519.697L446.947,400.19L566.453,280.686C579.47,267.669 579.47,246.563 566.453,233.546C553.433,220.528 532.33,220.528 519.313,233.546L399.807,353.05L280.302,233.545C267.285,220.528 246.179,220.528 233.162,233.545Z"
              style="fill:black;fill-rule:nonzero;stroke:black;stroke-width:11.76px;"/>
    </g>
</svg>