<?xml version="1.0" encoding="UTF-8" standalone="no"?>
<!DOCTYPE svg PUBLIC "-//W3C//DTD SVG 1.1//EN" "http://www.w3.org/Graphics/SVG/1.1/DTD/svg11.dtd">
<svg width="100%" height="100%" viewBox="0 0 800 800" version="1.1" xmlns="http://www.w3.org/2000/svg"
     xmlns:xlink="http://www.w3.org/1999/xlink" xml:space="preserve" xmlns:serif="http://www.serif.com/"
     style="fill-rule:evenodd;clip-rule:evenodd;stroke-linejoin:round;stroke-miterlimit:2;">
    <path d="M137.333,409.207L331.529,409.207C340.234,411.886 348.94,414.564 358.65,416.574L420.591,431.306C489.899,448.047 519.029,470.814 519.029,510.993C519.029,559.207 469.81,593.694 399.833,593.694C337.891,593.694 291.686,565.904 274.274,518.359C268.247,503.961 260.881,497.6 246.819,497.6C229.073,497.6 218.024,508.65 218.024,526.06C218.024,532.087 218.694,538.449 220.369,544.81C238.114,608.091 308.091,647.6 400.167,647.6C510.993,647.6 582.31,591.016 582.31,503.627C582.31,461.774 566.909,431.64 533.091,409.207L662.667,409.207C670.369,409.207 676.394,403.18 676.394,395.48C676.394,387.779 670.369,381.751 662.667,381.751L470.48,381.751C461.104,378.739 451.394,376.06 440.68,373.717L386.104,360.659C318.136,344.253 289.341,323.493 289.341,286.327C289.341,239.453 335.547,206.306 399.497,206.306C457.087,206.306 498.27,232.421 514.676,278.627C520.369,291.35 528.069,297.377 541.463,297.377C558.873,297.377 569.587,287.333 569.587,270.591C569.587,265.569 568.917,260.211 567.579,255.19C552.511,194.253 485.547,152.4 399.497,152.4C298.717,152.4 226.06,209.654 226.06,290.681C226.06,330.19 240.793,359.654 272.266,381.751L137.333,381.751C129.631,381.751 123.606,387.779 123.606,395.48C123.606,403.18 129.631,409.207 137.333,409.207Z"
          style="fill-rule:nonzero;stroke:black;stroke-width:20px;"/>
</svg>
