<?xml version="1.0" encoding="UTF-8" standalone="no"?>
<svg width="100%" height="100%" viewBox="0 0 800 800" version="1.1" xmlns="http://www.w3.org/2000/svg"
     style="fill-rule:evenodd;clip-rule:evenodd;stroke-linejoin:round;stroke-miterlimit:2;">
    <g transform="matrix(0.825627,0,0,0.825627,69.749,84.8712)">
        <path fill="black" d="M323.746,408L150.8,408C145.277,408 140.8,403.523 140.8,398L140.8,358C140.8,352.477 145.277,348 150.8,348L649.2,348C654.723,348 659.2,352.477 659.2,358L659.2,398C659.2,403.523 654.723,408 649.2,408L601.027,408C607.99,414.347 614.265,421.34 619.857,428.975C634.822,449.408 642.59,476.525 642.59,510.484C642.59,566.27 621.514,609.314 579.675,639.769C539.043,669.345 482.609,684.484 410.19,684.484C365.356,684.484 325.102,675.705 289.401,658.27C253.373,640.675 224.923,616.751 203.976,586.588C182.896,556.232 171.486,521.95 169.799,483.725C169.679,480.999 170.678,478.342 172.565,476.371C174.451,474.399 177.061,473.284 179.79,473.284L246.19,473.284C251.421,473.284 255.768,477.315 256.161,482.531C258.14,508.743 265.955,531.155 279.803,549.701C293.689,568.299 312.196,582.391 335.257,592.062C358.907,601.98 385.491,606.884 414.99,606.884C460.054,606.884 495.952,598.065 522.534,579.837C547.577,562.665 560.19,539.581 560.19,510.484C560.19,492.424 554.585,478.205 542.846,468.046C529.962,456.896 512.81,448.462 491.502,442.516C468.887,436.205 444.168,430.818 417.346,426.348C389.991,421.789 362.636,416.559 335.281,410.659C331.394,409.821 327.548,408.934 323.746,408ZM193.289,328C182.008,308.293 176.19,283.553 176.19,253.684C176.19,221.717 185.723,192.309 204.847,165.48C223.672,139.068 250.433,117.905 285.274,102.17C319.503,86.712 360.063,78.884 406.99,78.884C448.599,78.884 486.454,87.252 520.574,103.896C555.006,120.692 582.415,144.095 602.85,174.048C623.423,204.203 633.79,239.266 633.79,279.284C633.79,284.807 629.313,289.284 623.79,289.284L558.19,289.284C552.861,289.284 548.468,285.105 548.202,279.783C546.22,240.143 534.042,209.533 511,188.226C487.704,166.683 451.587,156.484 402.99,156.484C354.48,156.484 317.858,165.122 293.35,183.314C270.141,200.541 258.59,224.015 258.59,253.684C258.59,273.421 264.239,288.92 276.173,299.936C289.022,311.797 306.131,320.704 327.381,326.882C328.679,327.259 329.983,327.632 331.295,328L193.289,328Z"/>
    </g>
</svg>
