<?xml version="1.0" encoding="UTF-8" standalone="no"?>
<svg width="100%" height="100%" viewBox="0 0 800 800" version="1.1" xmlns="http://www.w3.org/2000/svg"
     style="fill-rule:evenodd;clip-rule:evenodd;stroke-linejoin:round;stroke-miterlimit:2;">
    <g transform="matrix(0.843659,0,0,0.843659,15.8545,45.516)">
        <path fill="black" d="M311.716,651.929L311.716,251.212L167.098,251.212C162.628,251.212 159.004,247.588 159.004,243.118L159.004,188.42C159.004,183.95 162.628,180.326 167.098,180.326L534.491,180.326C538.961,180.326 542.585,183.95 542.585,188.42L542.585,243.118C542.585,247.588 538.961,251.212 534.491,251.212L389.241,251.212L389.241,651.929C389.241,656.4 385.617,660.023 381.147,660.023L319.81,660.023C315.34,660.023 311.716,656.4 311.716,651.929ZM549.499,642.111L621.994,453.34C623.952,448.243 628.846,444.881 634.303,444.881L661.216,444.881C666.568,444.881 671.391,448.117 673.418,453.072L750.679,641.843C752.342,645.91 751.872,650.538 749.424,654.186C746.975,657.835 742.869,660.023 738.476,660.023L710.018,660.023C704.564,660.023 699.674,656.665 697.713,651.576L678.947,602.85L618.309,602.85L600.73,651.333C598.838,656.549 593.883,660.023 588.335,660.023L561.809,660.023C557.466,660.023 553.4,657.885 550.941,654.305C548.482,650.727 547.943,646.164 549.499,642.111ZM648.212,521.632L635.292,556.135L661.212,556.135L648.235,521.696L648.212,521.632Z"/>
    </g>
</svg>
