<?xml version="1.0" encoding="UTF-8" standalone="no"?>
<svg width="100%" height="100%" viewBox="0 0 800 800" version="1.1" xmlns="http://www.w3.org/2000/svg"
     style="fill-rule:evenodd;clip-rule:evenodd;stroke-linejoin:round;stroke-miterlimit:2;">
    <g transform="matrix(0.682859,0,0,0.682859,89.0718,113.08)">
        <path fill="black" d="M277.897,706.503L277.897,211.425L99.225,211.425C93.702,211.425 89.225,206.947 89.225,201.425L89.225,133.846C89.225,128.324 93.702,123.846 99.225,123.846L553.131,123.846C558.654,123.846 563.131,128.324 563.131,133.846L563.131,201.425C563.131,206.947 558.654,211.425 553.131,211.425L373.678,211.425L373.678,706.503C373.678,712.026 369.201,716.503 363.678,716.503L287.897,716.503C282.374,716.503 277.897,712.026 277.897,706.503ZM571.673,371.136L661.24,137.913C663.658,131.617 669.705,127.463 676.447,127.463L709.697,127.463C716.31,127.463 722.268,131.461 724.773,137.583L820.227,370.805C822.282,375.829 821.701,381.547 818.676,386.055C815.651,390.563 810.578,393.267 805.15,393.267L769.991,393.267C763.253,393.267 757.211,389.118 754.789,382.831L731.604,322.631L656.687,322.631L634.968,382.53C632.631,388.974 626.509,393.267 619.654,393.267L586.882,393.267C581.516,393.267 576.493,390.625 573.455,386.202C570.417,381.78 569.751,376.144 571.673,371.136ZM693.631,222.287L677.669,264.915L709.693,264.915L693.66,222.365L693.631,222.287Z"/>
    </g>
</svg>
