<?xml version="1.0" encoding="UTF-8" standalone="no"?>
<!DOCTYPE svg PUBLIC "-//W3C//DTD SVG 1.1//EN" "http://www.w3.org/Graphics/SVG/1.1/DTD/svg11.dtd">
<svg width="100%" height="100%" viewBox="0 0 800 800" version="1.1" xmlns="http://www.w3.org/2000/svg"
     xmlns:xlink="http://www.w3.org/1999/xlink" xml:space="preserve" xmlns:serif="http://www.serif.com/"
     style="fill-rule:evenodd;clip-rule:evenodd;stroke-linejoin:round;stroke-miterlimit:2;">
    <g transform="matrix(1,0,0,1,35.2542,32.6667)">
        <path fill="currentColor" d="M287.447,240.383C287.447,264.327 279.027,284.717 262.188,301.555C245.35,318.394 225.056,326.813 201.307,326.813C177.363,326.813 156.972,318.345 140.134,301.409C123.294,284.473 114.877,264.131 114.877,240.383C114.877,216.634 123.294,196.339 140.134,179.5C156.972,162.663 177.363,154.243 201.307,154.243C225.056,154.243 245.35,162.613 262.188,179.355C279.027,196.095 287.447,216.438 287.447,240.383ZM287.447,493.994C287.447,517.938 279.027,538.327 262.188,555.166C245.35,572.005 225.056,580.424 201.307,580.424C177.363,580.424 156.972,571.956 140.134,555.02C123.294,538.084 114.877,517.742 114.877,493.994C114.877,470.245 123.294,449.95 140.134,433.111C156.972,416.274 177.363,407.854 201.307,407.854C225.056,407.854 245.35,416.224 262.188,432.966C279.027,449.706 287.447,470.049 287.447,493.994ZM614.615,223.028L614.615,258.028C614.615,267.686 606.774,275.528 597.115,275.528L369.211,275.528C359.553,275.528 351.711,267.686 351.711,258.028L351.711,223.028C351.711,213.369 359.553,205.528 369.211,205.528L597.115,205.528C606.774,205.528 614.615,213.369 614.615,223.028ZM614.615,476.639L614.615,511.639C614.615,521.297 606.774,529.139 597.115,529.139L369.211,529.139C359.553,529.139 351.711,521.297 351.711,511.639L351.711,476.639C351.711,466.98 359.553,459.138 369.211,459.138L597.115,459.138C606.774,459.138 614.615,466.98 614.615,476.639Z"/>
    </g>
</svg>
