<?xml version="1.0" encoding="UTF-8" standalone="no"?>
<!DOCTYPE svg PUBLIC "-//W3C//DTD SVG 1.1//EN" "http://www.w3.org/Graphics/SVG/1.1/DTD/svg11.dtd">
<svg width="100%" height="100%" viewBox="0 0 800 800" version="1.1" xmlns="http://www.w3.org/2000/svg" xmlns:xlink="http://www.w3.org/1999/xlink" xml:space="preserve" xmlns:serif="http://www.serif.com/" style="fill-rule:evenodd;clip-rule:evenodd;stroke-linejoin:round;stroke-miterlimit:2;">
    <g>
        <path d="M166.667,100C166.667,81.591 151.743,66.667 133.333,66.667C114.924,66.667 100,81.591 100,100L100,300C100,465.687 234.315,600 400,600C565.687,600 700,465.687 700,300L700,100C700,81.591 685.077,66.667 666.667,66.667C648.257,66.667 633.333,81.591 633.333,100L633.333,300C633.333,428.867 528.867,533.333 400,533.333C271.134,533.333 166.667,428.867 166.667,300L166.667,100Z" style="fill-rule:nonzero;"/>
        <path d="M133.333,666.667C114.924,666.667 100,681.59 100,700C100,718.41 114.924,733.333 133.333,733.333L666.667,733.333C685.077,733.333 700,718.41 700,700C700,681.59 685.077,666.667 666.667,666.667L133.333,666.667Z" style="fill-rule:nonzero;"/>
    </g>
</svg>
