<?xml version="1.0" encoding="UTF-8" standalone="no"?>
<svg width="100%" height="100%" viewBox="0 0 800 800" version="1.1" xmlns="http://www.w3.org/2000/svg"
     style="fill-rule:evenodd;clip-rule:evenodd;stroke-linejoin:round;stroke-miterlimit:2;">
    <g transform="matrix(0.753954,0,0,0.753954,-74.483,395.134)">
        <path fill="black" d="M501.047,-10.08C501.047,30.379 505.259,64.752 513.818,93.022C521.91,119.752 535.631,140.197 555.249,154.175C575.18,168.376 603.172,175.12 639.047,175.12C674.402,175.12 702.126,168.367 722.044,154.175C741.662,140.197 755.383,119.752 763.476,93.022C772.034,64.752 776.247,30.379 776.247,-10.08L776.247,-330.08C776.247,-335.603 780.724,-340.08 786.247,-340.08L846.247,-340.08C851.77,-340.08 856.247,-335.603 856.247,-330.08L856.247,-10.08C856.247,44.049 849.193,90.374 835.25,128.921C820.871,168.676 797.536,199.212 765.394,220.64C733.581,241.849 691.51,252.72 639.047,252.72C586.606,252.72 544.411,241.862 512.333,220.662C479.902,199.23 456.425,168.685 442.043,128.921C428.101,90.374 421.047,44.049 421.047,-10.08L421.047,-330.08C421.047,-335.603 425.524,-340.08 431.047,-340.08L491.047,-340.08C496.57,-340.08 501.047,-335.603 501.047,-330.08L501.047,-10.08ZM391.141,263.09L889.541,263.09C895.064,263.09 899.541,267.567 899.541,273.09L899.541,313.09C899.541,318.613 895.064,323.09 889.541,323.09L391.141,323.09C385.618,323.09 381.141,318.613 381.141,313.09L381.141,273.09C381.141,267.567 385.618,263.09 391.141,263.09Z"/>
    </g>
</svg>
