<?xml version="1.0" encoding="utf-8"?><!-- Uploaded to: SVG Repo, www.svgrepo.com, Generator: SVG Repo Mixer Tools -->
<svg width="800px" height="800px" viewBox="0 0 20 20" xmlns="http://www.w3.org/2000/svg" fill="none">
    <path fill="#000000" fill-rule="evenodd"
          d="M5 2a1 1 0 00-2 0v6a7 7 0 1014 0V2a1 1 0 10-2 0v6A5 5 0 015 8V2zM3.01 17.636a1 1 0 01.855-1.127L4 17.5l.135.99a1 1 0 01-1.126-.854zM4 17.5l.135.99h.01l.03-.005.116-.015a67.291 67.291 0 011.933-.225C7.425 18.12 8.883 18 10 18s2.575.12 3.776.245a77.975 77.975 0 011.933.225l.117.015.03.005h.008a1 1 0 00.271-1.98l-.134.98.134-.98-.003-.001-.009-.001-.032-.005-.123-.016a78.927 78.927 0 00-1.986-.232C12.768 16.13 11.226 16 10 16c-1.226 0-2.768.13-3.982.255a78.898 78.898 0 00-1.986.232l-.123.016-.033.005h-.008l-.002.001h-.001L4 17.5z"/>
</svg>