<?xml version="1.0" encoding="UTF-8" standalone="no"?>
<svg width="100%" height="100%" viewBox="0 0 800 800" version="1.1" xmlns="http://www.w3.org/2000/svg"
     style="fill-rule:evenodd;clip-rule:evenodd;stroke-linejoin:round;stroke-miterlimit:2;">
    <g transform="matrix(33.3333,0,0,33.3333,0,0)">
        <path fill="black"
              d="M12,4.5C16.14,4.5 19.5,7.86 19.5,12C19.5,16.14 16.14,19.5 12,19.5C7.86,19.5 4.5,16.14 4.5,12C4.5,7.86 7.86,4.5 12,4.5ZM12,17.4C13.875,17.4 15.533,16.44 16.5,14.985C16.478,13.493 13.493,12.675 12,12.675C10.5,12.675 7.523,13.493 7.5,14.985C8.468,16.44 10.125,17.4 12,17.4ZM12,6.75C10.755,6.75 9.75,7.755 9.75,9C9.75,10.245 10.755,11.25 12,11.25C13.245,11.25 14.25,10.245 14.25,9C14.25,7.755 13.245,6.75 12,6.75Z"/>
    </g>
</svg>
