<?xml version="1.0" encoding="UTF-8" standalone="no"?>
<svg width="100%" height="100%" viewBox="0 0 800 800" version="1.1" xmlns="http://www.w3.org/2000/svg"
     style="fill-rule:evenodd;clip-rule:evenodd;stroke-linejoin:round;stroke-miterlimit:2;">
    <g transform="matrix(33.3333,0,0,33.3333,0,0)">
        <path fill="black"
              d="M15.211,5.038L15.257,5.05C16.025,5.256 16.632,5.419 17.11,5.592C17.599,5.768 17.999,5.97 18.327,6.278C18.805,6.726 19.14,7.306 19.289,7.945C19.391,8.383 19.367,8.829 19.275,9.341C19.186,9.842 19.023,10.45 18.818,11.216L18.444,12.611C18.239,13.378 18.075,13.986 17.903,14.465C17.726,14.953 17.524,15.352 17.216,15.681C16.782,16.144 16.225,16.473 15.611,16.628C15.431,17.039 15.169,17.412 14.838,17.722C14.51,18.029 14.111,18.232 13.622,18.408C13.144,18.581 12.536,18.744 11.769,18.95L11.722,18.962C10.955,19.167 10.347,19.331 9.847,19.42C9.335,19.511 8.889,19.536 8.45,19.433C7.811,19.285 7.232,18.95 6.784,18.472C6.476,18.143 6.274,17.744 6.097,17.255C5.925,16.777 5.761,16.169 5.556,15.402L5.182,14.008C4.977,13.241 4.814,12.632 4.725,12.132C4.633,11.62 4.609,11.174 4.711,10.735C4.86,10.097 5.194,9.517 5.673,9.069C6.001,8.761 6.401,8.559 6.89,8.382C7.368,8.21 7.975,8.047 8.742,7.841L8.766,7.835C8.95,7.786 9.125,7.739 9.29,7.695C9.563,6.719 9.803,6.029 10.272,5.528C10.72,5.05 11.3,4.716 11.939,4.566C12.377,4.464 12.824,4.489 13.336,4.58C13.836,4.669 14.444,4.833 15.211,5.038ZM8.974,8.863C8.211,9.067 7.665,9.215 7.245,9.367C6.82,9.52 6.57,9.663 6.389,9.833C6.061,10.139 5.832,10.536 5.73,10.973C5.673,11.216 5.675,11.503 5.755,11.948C5.835,12.399 5.987,12.964 6.2,13.76L6.561,15.108C6.774,15.903 6.926,16.468 7.082,16.899C7.235,17.325 7.377,17.574 7.548,17.756C7.854,18.083 8.251,18.313 8.688,18.415C8.93,18.471 9.217,18.469 9.663,18.389C10.114,18.308 10.679,18.158 11.475,17.945C12.27,17.731 12.835,17.58 13.266,17.424C13.691,17.27 13.941,17.128 14.123,16.958C14.219,16.868 14.306,16.771 14.385,16.667C14.26,16.648 14.131,16.626 13.998,16.6C13.529,16.506 12.966,16.355 12.271,16.169L12.231,16.159C11.464,15.953 10.856,15.79 10.378,15.617C9.889,15.441 9.49,15.239 9.162,14.931C8.683,14.483 8.349,13.903 8.199,13.264C8.097,12.826 8.122,12.38 8.213,11.867C8.303,11.367 8.466,10.759 8.671,9.993L8.974,8.863ZM13.151,5.611C12.706,5.531 12.419,5.529 12.177,5.586C11.74,5.688 11.343,5.916 11.036,6.244C10.732,6.569 10.545,7.071 10.219,8.263C10.166,8.457 10.11,8.666 10.05,8.892L9.688,10.24C9.476,11.036 9.324,11.601 9.244,12.052C9.164,12.497 9.162,12.784 9.219,13.027C9.321,13.464 9.55,13.86 9.877,14.167C10.059,14.338 10.309,14.479 10.734,14.633C11.165,14.789 11.73,14.941 12.525,15.154C13.241,15.346 13.771,15.487 14.202,15.573C14.632,15.658 14.923,15.679 15.162,15.65C15.214,15.644 15.263,15.635 15.312,15.623C15.749,15.522 16.146,15.293 16.452,14.965C16.623,14.783 16.765,14.534 16.918,14.109C17.074,13.677 17.226,13.112 17.439,12.317L17.8,10.969C18.013,10.173 18.165,9.609 18.245,9.157C18.324,8.712 18.327,8.425 18.27,8.182C18.168,7.745 17.939,7.349 17.611,7.042C17.43,6.872 17.18,6.729 16.755,6.576C16.323,6.42 15.759,6.268 14.963,6.055C14.168,5.842 13.603,5.691 13.151,5.611ZM11.484,10.47C11.559,10.191 11.846,10.025 12.125,10.1L15.495,11.003C15.774,11.078 15.94,11.364 15.865,11.644C15.79,11.923 15.503,12.089 15.224,12.014L11.854,11.11C11.575,11.036 11.409,10.749 11.484,10.47ZM10.942,12.492C11.017,12.213 11.304,12.047 11.583,12.121L13.605,12.664C13.884,12.738 14.049,13.025 13.975,13.304C13.9,13.583 13.613,13.749 13.334,13.675L11.312,13.133C11.033,13.058 10.867,12.771 10.942,12.492Z"/>
    </g>
</svg>
