<?xml version="1.0" encoding="UTF-8" standalone="no"?>
<svg width="100%" height="100%" viewBox="0 0 800 800" version="1.1" xmlns="http://www.w3.org/2000/svg"
     style="fill-rule:evenodd;clip-rule:evenodd;stroke-linejoin:round;stroke-miterlimit:2;">
    <g transform="matrix(25.0017,0,0,25.0017,98.2456,99.9735)">
        <path fill="black" d="M2.755,14.716C2.15,12.461 1.848,11.333 2.076,10.358C2.255,9.587 2.659,8.887 3.237,8.346C3.911,7.715 4.922,7.409 6.842,6.892L6.824,6.962L6.289,8.956C6.001,10.031 5.761,10.929 5.627,11.678C5.487,12.459 5.436,13.213 5.615,13.982C5.862,15.041 6.418,16.004 7.211,16.747C7.788,17.287 8.466,17.619 9.213,17.889C9.923,18.146 10.812,18.385 11.876,18.67L11.901,18.676L12.008,18.705C12.986,18.967 13.813,19.189 14.509,19.327C14.852,19.395 15.189,19.449 15.523,19.477C15.466,19.537 15.408,19.596 15.347,19.653C14.616,20.338 13.488,20.64 11.233,21.244C8.978,21.848 7.85,22.15 6.875,21.923C6.104,21.743 5.404,21.339 4.864,20.762C4.179,20.031 3.876,18.903 3.272,16.648L2.755,14.716ZM20.829,10.715L20.312,12.647C19.707,14.902 19.405,16.03 18.72,16.761C18.18,17.339 17.48,17.743 16.709,17.922C16.613,17.945 16.515,17.962 16.415,17.974C15.5,18.087 14.383,17.788 12.351,17.244C10.096,16.639 8.968,16.337 8.237,15.652C7.659,15.111 7.255,14.411 7.076,13.641C6.848,12.665 7.15,11.538 7.755,9.283L8.272,7.351C8.359,7.027 8.44,6.725 8.516,6.446C8.971,4.78 9.277,3.863 9.864,3.237C10.404,2.659 11.104,2.255 11.875,2.076C12.85,1.848 13.978,2.15 16.233,2.755C18.488,3.359 19.616,3.661 20.347,4.346C20.924,4.887 21.328,5.587 21.508,6.357C21.736,7.333 21.434,8.46 20.829,10.715ZM11.052,9.806C10.945,10.206 11.183,10.617 11.583,10.724L16.412,12.018C16.813,12.126 17.224,11.888 17.331,11.488C17.438,11.088 17.201,10.677 16.801,10.57L11.971,9.276C11.571,9.168 11.16,9.406 11.052,9.806ZM10.276,12.703C10.168,13.103 10.406,13.515 10.806,13.622L13.704,14.398C14.104,14.506 14.515,14.268 14.622,13.868C14.729,13.468 14.492,13.057 14.092,12.949L11.194,12.173C10.794,12.066 10.383,12.303 10.276,12.703Z"/>
    </g>
</svg>
