<svg fill="none" height="800" viewBox="0 0 24 24" width="800" xmlns="http://www.w3.org/2000/svg">
    <path clip-rule="evenodd"
          d="m16.3939 2.02121.0665.01783c1.0994.29457 1.9706.528 2.6558.77554.701.25321 1.2726.54286 1.7435.98389.6856.64221 1.1655 1.47332 1.3788 2.38824.1465.62832.1116 1.26815-.0196 2.00178-.1283.71724-.3617 1.58848-.6563 2.68791l-.5355 1.9983c-.2945 1.0993-.528 1.9705-.7755 2.6558-.2532.7009-.5429 1.2725-.9839 1.7434-.6218.6638-1.4206 1.1348-2.3012 1.3577-.2572.5897-.6329 1.1238-1.1068 1.5677-.4709.441-1.0425.7306-1.7435.9839-.6852.2475-1.5564.4809-2.6557.7755l-.0665.0178c-1.0994.2946-1.97063.528-2.68787.6563-.73363.1312-1.37347.1661-2.00178.0196-.91492-.2133-1.74603-.6932-2.38824-1.3788-.44103-.4709-.73069-1.0425-.98389-1.7434-.24754-.6853-.48098-1.5565-.77555-2.6559l-.53545-1.9983c-.29458-1.0994-.52802-1.9706-.65627-2.6878-.13119-.7336-.16614-1.3735-.01964-2.0018.21333-.91491.69318-1.74602 1.37886-2.38823.47088-.44103 1.04247-.73068 1.74341-.98389.68525-.24754 1.55646-.48098 2.65583-.77555l.03324-.0089c.26447-.07087.51469-.1378.7516-.20039.39161-1.39913.73623-2.38818 1.40786-3.10527.6422-.68568 1.47329-1.16553 2.38819-1.37886.6284-.1465 1.2682-.11155 2.0018.01964.7172.12824 1.5884.36169 2.6878.65626zm-8.93888 5.48159c-1.09288.29291-1.87597.50484-2.47782.72225-.60942.22015-.96725.42402-1.22765.66791-.46915.43941-.79746 1.00807-.94342 1.63404-.08102.3475-.07866.7593.03539 1.3972.11571.647.33203 1.4568.6375 2.5968l.51764 1.9319c.30546 1.14.52301 1.9494.74633 2.5676.22015.6095.42402.9673.66791 1.2277.43941.4691 1.00807.7974 1.63406.9434.34746.081.75929.0787 1.39714-.0354.64705-.1157 1.45683-.332 2.5968-.6375 1.14-.3055 1.9495-.523 2.5677-.7463.6094-.2202.9673-.424 1.2277-.6679.1376-.1289.263-.2688.3753-.418-.179-.0253-.3633-.0575-.5539-.0954-.6718-.1336-1.4788-.3498-2.4749-.6167l-.0574-.0154c-1.0994-.2946-1.9706-.528-2.65582-.7755-.70094-.2533-1.27253-.5429-1.74342-.9839-.68567-.6422-1.16552-1.4734-1.37885-2.3883-.1465-.6283-.11155-1.2681.01963-2.0018.12826-.7172.3617-1.5884.65628-2.68776zm5.98708-4.66128c-.6379-.11405-1.0497-.11641-1.3971-.03539-.626.14596-1.1947.47427-1.6341.94342-.43611.46563-.70448 1.18497-1.1712 2.89368-.07586.2777-.15605.577-.24305.90165l-.51763 1.93185c-.30547 1.13997-.52179 1.94977-.6375 2.59687-.11405.6378-.11641 1.0496-.03539 1.3971.14596.626.47427 1.1947.94342 1.6341.2604.2439.61823.4477 1.22765.6679.6182.2233 1.4277.4409 2.5677.7463 1.0254.2748 1.7854.478 2.4033.6009.6153.1223 1.0328.1524 1.375.1101.0744-.0091.1459-.0218.2157-.0381.626-.146 1.1946-.4743 1.634-.9434.2439-.2604.4478-.6182.6679-1.2277.2234-.6182.4409-1.4276.7464-2.5676l.5176-1.9319c.3055-1.14001.5218-1.94979.6375-2.59684.1141-.63785.1164-1.04967.0354-1.39713-.146-.626-.4743-1.19466-.9434-1.63406-.2604-.2439-.6183-.44777-1.2277-.66792-.6182-.22332-1.4277-.44087-2.5677-.74633-1.14-.30547-1.9497-.52179-2.5968-.6375zm-2.3897 6.96436c.1072-.4001.5185-.63754.9186-.53033l4.8296 1.29405c.4001.1072.6375.5185.5303.9186s-.5184.6375-.9185.5303l-4.8297-1.2941c-.4001-.1072-.6375-.5184-.5303-.91852zm-.7769 2.89772c.1073-.4001.5185-.6376.9186-.5303l2.8978.7764c.4001.1072.6375.5185.5303.9186s-.5184.6375-.9185.5303l-2.8978-.7765c-.4001-.1072-.6376-.5184-.5304-.9185z"
          fill="#ffffff" fill-rule="evenodd"/>
</svg>