<?xml version="1.0" encoding="UTF-8" standalone="no"?>
<svg width="100%" height="100%" viewBox="0 0 800 800" version="1.1" xmlns="http://www.w3.org/2000/svg"
     style="fill-rule:evenodd;clip-rule:evenodd;stroke-linejoin:round;stroke-miterlimit:2;">
    <g transform="matrix(26.705,0,0,26.705,78.5488,78.5492)">
        <path fill="black"
              d="M21,3.074C21.531,3.605 21.531,4.466 21,4.997L13.961,12.037L21,19.077C21.531,19.608 21.531,20.469 21,21C20.469,21.531 19.608,21.531 19.077,21L12.037,13.961L4.997,21C4.466,21.531 3.605,21.531 3.074,21C2.543,20.469 2.543,19.608 3.074,19.077L10.114,12.037L3.074,4.997C2.543,4.466 2.543,3.605 3.074,3.074C3.605,2.543 4.466,2.543 4.997,3.074L12.037,10.114L19.077,3.074C19.608,2.543 20.469,2.543 21,3.074Z"/>
    </g>
</svg>
