<svg clip-rule="evenodd" fill-rule="evenodd" stroke-linejoin="round" stroke-miterlimit="2" viewBox="0 0 334 334"
     xmlns="http://www.w3.org/2000/svg">
    <path d="m400 733.333c-157.135 0-235.702 0-284.518-48.816-48.815-48.814-48.815-127.384-48.815-284.517 0-157.135 0-235.702 48.815-284.518 48.816-48.815 127.383-48.815 284.518-48.815 157.133 0 235.703 0 284.517 48.815 48.816 48.816 48.816 127.383 48.816 284.518 0 157.133 0 235.703-48.816 284.517-48.814 48.816-127.384 48.816-284.517 48.816zm-101.012-434.344c9.763-9.763 25.593-9.763 35.355 0l65.657 65.658 65.653-65.657c9.764-9.763 25.594-9.763 35.357 0s9.763 25.592 0 35.353l-65.657 65.657 65.657 65.657c9.763 9.76 9.763 25.59 0 35.353s-25.593 9.763-35.357 0l-65.653-65.653-65.657 65.653c-9.762 9.763-25.591 9.763-35.354 0s-9.763-25.59 0-35.353l65.654-65.657-65.655-65.657c-9.763-9.762-9.763-25.591 0-35.354z"
          fill="#ffffff" transform="scale(.416667)"/>
</svg>