<?xml version="1.0" encoding="UTF-8" standalone="no"?>
<svg width="100%" height="100%" viewBox="0 0 800 800" version="1.1" xmlns="http://www.w3.org/2000/svg"
     style="fill-rule:evenodd;clip-rule:evenodd;stroke-linejoin:round;stroke-miterlimit:2;">
    <g transform="matrix(1.07228,0,0,1.07228,125.496,123.928)">
        <path fill="black" d="M391,233.948C415.659,234.02 435.928,254.289 436,278.948L436,440.948C435.928,465.607 415.659,485.876 391,485.948L121,485.948C96.341,485.876 76.072,465.607 76,440.948L76,278.948C76.072,254.289 96.341,234.02 121,233.948L391,233.948ZM184.123,369.379L167.789,359.949L184.123,350.518C187.17,348.75 189.051,345.483 189.051,341.96C189.051,336.531 184.584,332.065 179.155,332.065C177.426,332.065 175.726,332.518 174.227,333.379L157.897,342.808L157.897,323.949C157.897,318.52 153.429,314.052 148,314.052C142.571,314.052 138.104,318.52 138.104,323.949L138.104,342.808L121.774,333.379C120.274,332.518 118.574,332.065 116.845,332.065C111.416,332.065 106.949,336.531 106.949,341.96C106.949,345.483 108.83,348.75 111.877,350.518L128.212,359.949L111.877,369.379C108.83,371.148 106.949,374.415 106.949,377.938C106.949,383.366 111.416,387.833 116.845,387.833C118.574,387.833 120.274,387.38 121.774,386.518L138.104,377.089L138.104,395.949C138.104,401.378 142.571,405.845 148,405.845C153.429,405.845 157.897,401.378 157.897,395.949L157.897,377.089L174.227,386.518C175.735,387.394 177.449,387.855 179.194,387.855C184.623,387.855 189.09,383.388 189.09,377.96C189.09,374.421 187.191,371.142 184.123,369.379ZM292.123,369.379L275.789,359.949L292.123,350.518C295.17,348.75 297.051,345.483 297.051,341.96C297.051,336.531 292.584,332.065 287.155,332.065C285.426,332.065 283.726,332.518 282.227,333.379L265.897,342.808L265.897,323.949C265.897,318.52 261.429,314.052 256,314.052C250.571,314.052 246.104,318.52 246.104,323.949L246.104,342.808L229.774,333.379C228.274,332.518 226.574,332.065 224.845,332.065C219.416,332.065 214.949,336.531 214.949,341.96C214.949,345.483 216.83,348.75 219.877,350.518L236.212,359.949L219.877,369.379C216.83,371.148 214.949,374.415 214.949,377.938C214.949,383.366 219.416,387.833 224.845,387.833C226.574,387.833 228.274,387.38 229.774,386.518L246.104,377.089L246.104,395.949C246.104,401.378 250.571,405.845 256,405.845C261.429,405.845 265.897,401.378 265.897,395.949L265.897,377.089L282.227,386.518C283.735,387.394 285.449,387.855 287.194,387.855C292.623,387.855 297.09,383.388 297.09,377.96C297.09,374.421 295.191,371.142 292.123,369.379ZM400.123,369.379L383.789,359.949L400.123,350.518C403.17,348.75 405.051,345.483 405.051,341.96C405.051,336.531 400.584,332.065 395.155,332.065C393.426,332.065 391.726,332.518 390.227,333.379L373.897,342.808L373.897,323.949C373.897,318.52 369.429,314.052 364,314.052C358.571,314.052 354.104,318.52 354.104,323.949L354.104,342.808L337.774,333.379C336.274,332.518 334.574,332.065 332.845,332.065C327.416,332.065 322.949,336.531 322.949,341.96C322.949,345.483 324.83,348.75 327.877,350.518L344.212,359.949L327.877,369.379C324.83,371.148 322.949,374.415 322.949,377.938C322.949,383.366 327.416,387.833 332.845,387.833C334.574,387.833 336.274,387.38 337.774,386.518L354.104,377.089L354.104,395.949C354.104,401.378 358.571,405.845 364,405.845C369.429,405.845 373.897,401.378 373.897,395.949L373.897,377.089L390.227,386.518C391.735,387.394 393.449,387.855 395.194,387.855C400.623,387.855 405.09,383.388 405.09,377.96C405.09,374.421 403.191,371.142 400.123,369.379ZM164.297,143.949L164.297,214.147C164.296,217.682 161.431,220.547 157.897,220.547L138.103,220.547C134.569,220.547 131.704,217.682 131.704,214.147L131.704,143.949C131.704,75.762 187.813,19.652 256,19.652C324.187,19.652 380.297,75.762 380.297,143.949L380.297,214.147C380.297,217.682 377.431,220.547 373.897,220.547L354.103,220.547C350.569,220.547 347.704,217.682 347.704,214.147L347.704,143.949C347.704,93.642 306.307,52.245 256,52.245C205.693,52.245 164.297,93.642 164.297,143.949Z"/>
    </g>
</svg>
