<svg fill="#fff" height="800" viewBox="0 0 512 512" width="800" xmlns="http://www.w3.org/2000/svg">
    <path d="m391 233.9478h-270a45.1323 45.1323 0 0 0 -45 45v162a45.1323 45.1323 0 0 0 45 45h270a45.1323 45.1323 0 0 0 45-45v-162a45.1323 45.1323 0 0 0 -45-45zm-206.877 135.4316a9.8954 9.8954 0 1 1 -9.8964 17.1387l-16.33-9.4287v18.8593a9.8965 9.8965 0 0 1 -19.793 0v-18.8593l-16.33 9.4287a9.8954 9.8954 0 0 1 -9.8964-17.1387l16.3344-9.4307-16.3344-9.4306a9.8954 9.8954 0 0 1 9.8964-17.1387l16.33 9.4282v-18.8589a9.8965 9.8965 0 0 1 19.793 0v18.8589l16.33-9.4282a9.8954 9.8954 0 0 1 9.8964 17.1387l-16.3344 9.4306zm108 0a9.8954 9.8954 0 1 1 -9.8964 17.1387l-16.33-9.4287v18.8593a9.8965 9.8965 0 0 1 -19.793 0v-18.8593l-16.33 9.4287a9.8954 9.8954 0 0 1 -9.8964-17.1387l16.3344-9.4307-16.3344-9.4306a9.8954 9.8954 0 0 1 9.8964-17.1387l16.33 9.4282v-18.8589a9.8965 9.8965 0 0 1 19.793 0v18.8589l16.33-9.4282a9.8954 9.8954 0 0 1 9.8964 17.1387l-16.3344 9.4306zm108 0a9.8954 9.8954 0 1 1 -9.8964 17.1387l-16.33-9.4287v18.8593a9.8965 9.8965 0 0 1 -19.793 0v-18.8593l-16.33 9.4287a9.8954 9.8954 0 0 1 -9.8964-17.1387l16.3344-9.4307-16.3344-9.4306a9.8954 9.8954 0 0 1 9.8964-17.1387l16.33 9.4282v-18.8589a9.8965 9.8965 0 0 1 19.793 0v18.8589l16.33-9.4282a9.8954 9.8954 0 0 1 9.8964 17.1387l-16.3344 9.4306z"/>
    <path d="m157.8965 143.9487a98.1035 98.1035 0 1 1 196.207 0v70.1983h19.793v-70.1983a117.8965 117.8965 0 0 0 -235.793 0v70.1983h19.793z"/>
</svg>