<?xml version="1.0" encoding="UTF-8" standalone="no"?>
<svg width="100%" height="100%" viewBox="0 0 800 800" version="1.1" xmlns="http://www.w3.org/2000/svg"
     style="fill-rule:evenodd;clip-rule:evenodd;stroke-linejoin:round;stroke-miterlimit:2;">
    <g transform="matrix(25,0,0,25,99.9996,99.9996)">
        <path fill="black" d="M15.24,2C16.762,2 18.063,2.948 18.59,4.287C17.709,4.169 16.611,4.169 15.335,4.169L12.265,4.169C10.989,4.169 9.889,4.169 9.008,4.287C8.064,4.415 7.159,4.702 6.425,5.439C5.691,6.176 5.405,7.084 5.278,8.032C5.16,8.916 5.16,10.021 5.16,11.302L5.16,16.312C5.16,17.374 5.16,18.65 5.227,19.559C3.92,19.017 3,17.725 3,16.217L3,10.379C3,8.608 3,7.205 3.147,6.107C3.298,4.977 3.617,4.062 4.336,3.341C5.054,2.62 5.965,2.3 7.091,2.148C8.184,2 9.582,2 11.346,2L15.24,2ZM6.6,11.397C6.6,8.671 6.6,7.308 7.444,6.461C8.287,5.614 9.645,5.614 12.36,5.614L15.24,5.614C17.955,5.614 19.313,5.614 20.157,6.461C21,7.308 21,8.671 21,11.397L21,16.217C21,18.943 21,20.306 20.157,21.153C19.313,22 17.955,22 15.24,22L12.36,22C9.645,22 8.287,22 7.444,21.153C6.6,20.306 6.6,18.943 6.6,16.217L6.6,11.397Z"/>
    </g>
</svg>
