<svg fill="none" height="800" viewBox="0 0 24 24" width="800" xmlns="http://www.w3.org/2000/svg">
    <g fill="#ffffff">
        <path d="m15.24 2h-3.8942c-1.76421-.00001-3.16162-.00003-4.25526.1476-1.12553.15193-2.03652.47204-2.75495 1.19336-.71842.72131-1.03726 1.63596-1.18858 2.76601-.14704 1.09803-.14702 2.50105-.14701 4.27233v5.8376c0 1.5081.91995 2.8005 2.22717 3.3423-.06728-.9094-.06723-2.1855-.06717-3.2472v-4.9144-.0952c-.00007-1.2817-.00014-2.38596.11828-3.27029.12691-.94773.41311-1.85619 1.14702-2.59305.73391-.73687 1.63874-1.02421 2.58268-1.15163.88079-.11889 1.98072-.11883 3.25722-.11876l.0948.00001h2.88l.0948-.00001c1.2765-.00007 2.374-.00013 3.2548.11876-.5269-1.33964-1.828-2.28743-3.3496-2.28743z"/>
        <path d="m6.6001 11.3974c0-2.72621 0-4.0893.84353-4.93622s2.20118-.84692 4.91647-.84692h2.88c2.7153 0 4.0729 0 4.9165.84692.8435.84692.8435 2.21002.8435 4.93622v4.8193c0 2.7262 0 4.0893-.8435 4.9362-.8436.8469-2.2012.8469-4.9165.8469h-2.88c-2.71529 0-4.07294 0-4.91647-.8469s-.84353-2.21-.84353-4.9362z"/>
    </g>
</svg>