<svg fill="none" height="800" viewBox="0 0 24 24" width="800" xmlns="http://www.w3.org/2000/svg">
    <g fill="#ffffff">
        <path d="m19.3517 7.61665-3.9588-3.5629c-1.1278-1.01507-1.6917-1.52261-2.3837-1.78813l-.0092 2.73449c0 2.35702 0 3.53553.7322 4.26776.7323.73223 1.9108.73223 4.2678.73223h3.5801c-.3626-.70422-1.0117-1.28846-2.2284-2.38345z"/>
        <path clip-rule="evenodd"
              d="m10 22h4c3.7712 0 5.6569 0 6.8284-1.1716 1.1716-1.1715 1.1716-3.0572 1.1716-6.8284v-.4371c0-.8728 0-1.5285-.0426-2.0628h-3.9574-.0949c-1.0971.0001-2.0666.0002-2.8482-.1049-.8471-.1139-1.6941-.3754-2.3853-1.0667-.6913-.69124-.9528-1.53822-1.0667-2.38534-.1051-.78152-.105-1.75109-.1049-2.84819l.0092-2.8344c.0003-.08244.0074-.16398.0208-.24391-.4086-.01666-.8942-.01666-1.5002-.01666-3.79111 0-5.68665 0-6.85823 1.17157-1.17157 1.17158-1.17157 3.05719-1.17157 6.82843v4c0 3.7712 0 5.6569 1.17157 6.8284 1.17158 1.1716 3.05719 1.1716 6.82843 1.1716zm-4.53033-7.5303c.29289-.2929.76777-.2929 1.06066 0l.96967.9696.96967-.9696c.29289-.2929.76777-.2929 1.06066 0s.29289.7677 0 1.0606l-.96967.9697.96967.9697c.29289.2929.29289.7677 0 1.0606s-.76777.2929-1.06066 0l-.96967-.9696-.96967.9696c-.29289.2929-.76777.2929-1.06066 0s-.29289-.7677 0-1.0606l.96967-.9697-.96967-.9697c-.29289-.2929-.29289-.7677 0-1.0606z"
              fill-rule="evenodd"/>
    </g>
</svg>