<svg fill="none" height="800" viewBox="0 0 24 24" width="800" xmlns="http://www.w3.org/2000/svg">
    <path clip-rule="evenodd"
          d="m6.87114 19.4986c.92971.5014 2.04344.5014 4.27086.5014h2.637c3.8754 0 5.8131 0 7.0171-1.1716 1.2039-1.1715 1.2039-3.0572 1.2039-6.8284 0-3.77124 0-5.65685-1.2039-6.82843-1.204-1.17157-3.1417-1.17157-7.0171-1.17157h-2.637c-2.22742 0-3.34115 0-4.27086.50143-.9297.50143-1.51997 1.42048-2.70053 3.25858l-.6808 1.06c-.99321 1.54639-1.48981 2.31959-1.48981 3.17999s.4966 1.6336 1.48981 3.18l.6808 1.06c1.18056 1.8381 1.77083 2.7571 2.70053 3.2586zm4.15916-10.52893c-.2929-.29289-.7678-.29289-1.06065 0-.29289.29289-.29289.76777 0 1.06063l1.96965 1.9697-1.96963 1.9697c-.29289.2929-.29289.7677 0 1.0606.29293.2929.76773.2929 1.06063 0l1.9697-1.9696 1.9696 1.9696c.2929.2929.7678.2929 1.0607 0s.2929-.7678 0-1.0606l-1.9697-1.9697 1.9697-1.9696c.2929-.29294.2929-.76782 0-1.06071s-.7678-.29289-1.0607 0l-1.9696 1.96971z"
          fill="#ffffff" fill-rule="evenodd"/>
</svg>