<?xml version="1.0" encoding="UTF-8" standalone="no"?>
<svg width="100%" height="100%" viewBox="0 0 800 800" version="1.1" xmlns="http://www.w3.org/2000/svg"
     style="fill-rule:evenodd;clip-rule:evenodd;stroke-linejoin:round;stroke-miterlimit:2;">
    <g transform="matrix(30.4878,0,0,30.4878,156.097,156.097)">
        <path fill="black" d="M14.2,14C14.2,15.207 13.207,16.2 12,16.2L4,16.2C2.793,16.2 1.8,15.207 1.8,14L1.8,2C1.8,0.793 2.793,-0.2 4,-0.2L9.5,-0.2C9.553,-0.2 9.604,-0.179 9.641,-0.141L14.141,4.359C14.179,4.396 14.2,4.447 14.2,4.5L14.2,14ZM9.3,3L9.3,1.2L4,1.2C3.561,1.2 3.2,1.561 3.2,2L3.2,14C3.2,14.439 3.561,14.8 4,14.8L12,14.8C12.439,14.8 12.8,14.439 12.8,14L12.8,4.7L11,4.7C10.067,4.7 9.3,3.933 9.3,3ZM8,8.01L9.005,7.005C9.136,6.873 9.314,6.799 9.5,6.799C9.884,6.799 10.201,7.116 10.201,7.5C10.201,7.686 10.127,7.864 9.995,7.995L8.99,9L9.995,10.005C10.127,10.136 10.201,10.314 10.201,10.5C10.201,10.884 9.884,11.201 9.5,11.201C9.314,11.201 9.136,11.127 9.005,10.995L8,9.99L6.995,10.995C6.864,11.127 6.686,11.201 6.5,11.201C6.116,11.201 5.799,10.884 5.799,10.5C5.799,10.314 5.873,10.136 6.005,10.005L7.01,9L6.005,7.995C5.873,7.864 5.799,7.686 5.799,7.5C5.799,7.116 6.116,6.799 6.5,6.799C6.686,6.799 6.864,6.873 6.995,7.005L8,8.01Z"/>
    </g>
</svg>
