<svg fill="none" height="800" viewBox="0 0 24 24" width="800" xmlns="http://www.w3.org/2000/svg">
    <g fill="#ffffff">
        <path d="m16.5 13.2871c-2.4749-2.7158-5.5-.7125-5.5 2.1124 0 2.5588 1.814 4.0349 3.3584 5.2917l.0434.0353c.1456.1184.2885.235.4272.3504.571.4754 1.121.9231 1.671.9231s1.1-.4477 1.671-.9231c1.6183-1.3473 3.829-2.8526 3.829-5.6774 0-.928-.3265-1.7674-.8526-2.3798-1.0756-1.252-2.9855-1.5562-4.6474.2674z"/>
        <path d="m8.10627 18.2468c-2.80808-2.1635-6.10627-4.7046-6.10627-9.1097 0-4.86294 5.50016-8.311636 10-3.63647 4.4998-4.675166 10-1.22647 10 3.63647 0 .83357-.1181 1.6004-.3286 2.3106-.719-.5776-1.6204-.9421-2.6194-.9477-.89-.005-1.7584.2745-2.5532.8101-1.3889-.9328-2.9559-1.0583-4.329-.3954-1.6353.7895-2.6698 2.5558-2.6698 4.4847 0 2.3052 1.1485 3.9223 2.3415 5.0943-.9473-.0753-1.89636-.8076-2.87977-1.5828-.27702-.2184-.56359-.4392-.85546-.6641z"/>
    </g>
</svg>