<svg fill="none" height="800" viewBox="0 0 24 24" width="800" xmlns="http://www.w3.org/2000/svg">
    <path clip-rule="evenodd"
          d="m2 12c0-4.71405 0-7.07107 1.46447-8.53553 1.46446-1.46447 3.82148-1.46447 8.53553-1.46447 4.714 0 7.0711 0 8.5355 1.46447 1.4645 1.46446 1.4645 3.82148 1.4645 8.53553 0 4.714 0 7.0711-1.4645 8.5355-1.4644 1.4645-3.8215 1.4645-8.5355 1.4645-4.71405 0-7.07107 0-8.53553-1.4645-1.46447-1.4644-1.46447-3.8215-1.46447-8.5355zm10-5.75c.4142 0 .75.33579.75.75v5.1893l1.7197-1.7196c.2929-.2929.7677-.2929 1.0606 0s.2929.7677 0 1.0606l-3 3c-.1406.1407-.3314.2197-.5303.2197s-.3897-.079-.5303-.2197l-3.00003-3c-.29289-.2929-.29289-.7677 0-1.0606s.76777-.2929 1.06066 0l1.71967 1.7196v-5.1893c0-.41421.3358-.75.75-.75zm-4 10c-.41421 0-.75.3358-.75.75s.33579.75.75.75h8c.4142 0 .75-.3358.75-.75s-.3358-.75-.75-.75z"
          fill="#ffffff" fill-rule="evenodd"/>
</svg>