<?xml version="1.0" encoding="UTF-8" standalone="no"?>
<svg width="100%" height="100%" viewBox="0 0 800 800" version="1.1" xmlns="http://www.w3.org/2000/svg"
     style="fill-rule:evenodd;clip-rule:evenodd;stroke-linejoin:round;stroke-miterlimit:2;">
    <g transform="matrix(25,0,0,25,100,100)">
        <path fill="black"
              d="M2,12C2,7.286 2,4.929 3.464,3.464C4.929,2 7.286,2 12,2C16.714,2 19.071,2 20.535,3.464C22,4.929 22,7.286 22,12C22,16.714 22,19.071 20.535,20.535C19.071,22 16.714,22 12,22C7.286,22 4.929,22 3.464,20.535C2,19.071 2,16.714 2,12ZM8,16.25C7.586,16.25 7.25,16.586 7.25,17C7.25,17.414 7.586,17.75 8,17.75L16,17.75C16.414,17.75 16.75,17.414 16.75,17C16.75,16.586 16.414,16.25 16,16.25L8,16.25ZM12,6.25C11.586,6.25 11.25,6.586 11.25,7L11.25,12.189L9.53,10.47C9.237,10.177 8.763,10.177 8.47,10.47C8.177,10.763 8.177,11.237 8.47,11.53L11.47,14.53C11.61,14.671 11.801,14.75 12,14.75C12.199,14.75 12.39,14.671 12.53,14.53L15.53,11.53C15.823,11.237 15.823,10.763 15.53,10.47C15.237,10.177 14.763,10.177 14.47,10.47L12.75,12.189L12.75,7C12.75,6.586 12.414,6.25 12,6.25Z"/>
    </g>
</svg>
