<?xml version="1.0" encoding="UTF-8" standalone="no"?>
<svg width="100%" height="100%" viewBox="0 0 800 800" version="1.1" xmlns="http://www.w3.org/2000/svg"
     style="fill-rule:evenodd;clip-rule:evenodd;stroke-linejoin:round;stroke-miterlimit:2;">
    <g transform="matrix(33.1988,0,0,33.1988,123.678,142.693)">
        <path fill="black" d="M15.662,1.808C15.922,2.083 15.917,2.523 15.649,2.792L14.606,3.836C14.567,3.875 14.514,3.897 14.459,3.897C14.404,3.897 14.351,3.875 14.313,3.836L12.313,1.836C12.232,1.756 12.232,1.625 12.312,1.544L13.356,0.5C13.63,0.225 14.081,0.225 14.355,0.5L15.648,1.793C15.653,1.797 15.658,1.802 15.662,1.808ZM15.614,2.114C15.649,2.092 15.677,2.059 15.693,2.019C15.704,1.993 15.709,1.966 15.709,1.939C15.709,1.966 15.704,1.993 15.693,2.018C15.677,2.058 15.649,2.091 15.614,2.113C15.614,2.114 15.614,2.114 15.614,2.114ZM13.959,4.396C13.959,4.423 13.954,4.45 13.943,4.475C13.932,4.502 13.916,4.525 13.897,4.544L13.898,4.543L7.085,11.357L7.085,11.358C7.007,11.435 6.912,11.493 6.808,11.528L4.394,12.333C4.348,12.348 4.299,12.356 4.25,12.356C4,12.356 3.793,12.149 3.793,11.899C3.793,11.85 3.801,11.801 3.816,11.755L4.621,9.341C4.656,9.236 4.715,9.141 4.793,9.064L11.606,2.25C11.644,2.211 11.697,2.189 11.752,2.189C11.807,2.189 11.86,2.211 11.898,2.25L13.898,4.25C13.938,4.289 13.959,4.342 13.959,4.396ZM13.754,4.603L13.753,4.603L13.752,4.604L13.754,4.603ZM0.793,13.5L0.793,2.5C0.793,1.563 1.563,0.793 2.5,0.793L9,0.793C9.388,0.793 9.707,1.112 9.707,1.5C9.707,1.888 9.388,2.207 9,2.207L2.5,2.207C2.339,2.207 2.207,2.339 2.207,2.5L2.207,13.5C2.207,13.661 2.339,13.793 2.5,13.793L13.5,13.793C13.661,13.793 13.793,13.661 13.793,13.5L13.793,7.5C13.793,7.112 14.112,6.793 14.5,6.793C14.888,6.793 15.207,7.112 15.207,7.5L15.207,13.5C15.207,14.437 14.437,15.207 13.5,15.207L2.5,15.207C1.563,15.207 0.793,14.437 0.793,13.5Z"/>
    </g>
</svg>
