<?xml version="1.0" encoding="UTF-8" standalone="no"?>
<svg width="100%" height="100%" viewBox="0 0 800 800" version="1.1" xmlns="http://www.w3.org/2000/svg"
     style="fill-rule:evenodd;clip-rule:evenodd;stroke-linejoin:round;stroke-miterlimit:2;">
    <g transform="matrix(25,0,0,25,100,100)">
        <path fill="black" d="M15.604,15.466C14.694,16.412 13.416,17 12,17C9.239,17 7,14.761 7,12C7,9.239 9.239,7 12,7C14.761,7 17,9.239 17,12L17,13.5C17,14.328 17.672,15 18.5,15C19.328,15 20,14.328 20,13.5L20,12C20,7.582 16.418,4 12,4C7.582,4 4,7.582 4,12C4,16.418 7.582,20 12,20L16,20C16.552,20 17,20.448 17,21C17,21.552 16.552,22 16,22L12,22C6.477,22 2,17.523 2,12C2,6.477 6.477,2 12,2C17.523,2 22,6.477 22,12L22,13.5C22,15.433 20.433,17 18.5,17C17.296,17 16.234,16.392 15.604,15.466ZM15,12C15,10.343 13.657,9 12,9C10.343,9 9,10.343 9,12C9,13.657 10.343,15 12,15C13.657,15 15,13.657 15,12Z"/>
    </g>
</svg>
