<?xml version="1.0" encoding="UTF-8" standalone="no"?>
<svg width="100%" height="100%" viewBox="0 0 800 800" version="1.1" xmlns="http://www.w3.org/2000/svg"
     style="fill-rule:evenodd;clip-rule:evenodd;stroke-linejoin:round;stroke-miterlimit:2;">
    <g transform="matrix(0.750001,0,0,0.750001,103.541,99.9997)">
        <path fill="black" d="M650,517.205L650,666.667C650,703.333 620,733.333 583.333,733.333L183.333,733.333C146.667,733.333 116.667,703.333 116.667,666.667L116.667,133.333C116.667,96.667 146.667,66.667 183.333,66.667L583.333,66.667C620,66.667 650,96.667 650,133.333L650,282.795L483.333,142.609L483.333,300L183.333,300L183.333,500L483.333,500L483.333,657.391L650,517.205ZM533.333,450L233.333,450L233.333,350L533.333,350L533.333,250L711.667,400L533.333,550L533.333,450Z"/>
    </g>
</svg>
