<?xml version="1.0" encoding="UTF-8" standalone="no"?>
<svg width="20px" height="20px" viewBox="0 0 800 800" version="1.1" xmlns="http://www.w3.org/2000/svg"
     style="fill-rule:evenodd;clip-rule:evenodd;stroke-linejoin:round;stroke-miterlimit:2;">
    <g transform="matrix(24.0385,0,0,24.0385,111.538,111.538)">
        <path fill="black" d="M12,1.6C12.773,1.6 13.4,2.227 13.4,3C13.4,3.773 12.773,4.4 12,4.4C10.272,4.4 8.882,4.484 7.771,4.73C6.884,4.928 6.204,5.218 5.711,5.711C5.218,6.204 4.928,6.884 4.73,7.771C4.484,8.882 4.4,10.272 4.4,12C4.4,13.728 4.484,15.118 4.73,16.229C4.928,17.116 5.218,17.796 5.711,18.289C6.204,18.782 6.884,19.072 7.771,19.27C8.882,19.516 10.272,19.6 12,19.6C13.728,19.6 15.118,19.516 16.229,19.27C17.116,19.072 17.796,18.782 18.289,18.289C18.782,17.796 19.072,17.116 19.27,16.229C19.516,15.118 19.6,13.728 19.6,12C19.6,11.227 20.227,10.6 21,10.6C21.773,10.6 22.4,11.227 22.4,12C22.4,16.231 21.78,18.758 20.269,20.269C18.758,21.78 16.231,22.4 12,22.4C7.769,22.4 5.242,21.78 3.731,20.269C2.22,18.758 1.6,16.231 1.6,12C1.6,7.769 2.22,5.242 3.731,3.731C5.242,2.22 7.769,1.6 12,1.6ZM19.6,6.38L15.99,9.99C15.444,10.536 14.556,10.536 14.01,9.99C13.464,9.444 13.464,8.556 14.01,8.01L17.62,4.4L16,4.4C15.227,4.4 14.6,3.773 14.6,3C14.6,2.227 15.227,1.6 16,1.6L20.672,1.6C20.685,1.6 20.699,1.601 20.712,1.602L20.978,1.629C21.005,1.632 21.031,1.637 21.057,1.645L21.308,1.723C21.345,1.735 21.38,1.751 21.412,1.773L21.834,2.057C21.877,2.086 21.914,2.123 21.943,2.166L22.227,2.588C22.249,2.62 22.265,2.655 22.277,2.692L22.355,2.943C22.363,2.969 22.368,2.995 22.371,3.022L22.398,3.288C22.399,3.301 22.4,3.315 22.4,3.328L22.4,8C22.4,8.773 21.773,9.4 21,9.4C20.227,9.4 19.6,8.773 19.6,8L19.6,6.38Z"/>
    </g>
</svg>
