<?xml version="1.0" encoding="UTF-8" standalone="no"?>
<svg width="100%" height="100%" viewBox="0 0 800 800" version="1.1" xmlns="http://www.w3.org/2000/svg"
     style="fill-rule:evenodd;clip-rule:evenodd;stroke-linejoin:round;stroke-miterlimit:2;">
    <g transform="matrix(25,0,0,25,100,100)">
        <path fill="black" d="M19,3L5,3C3.586,3 2.879,3 2.439,3.412C2,3.824 2,4.488 2,5.815L2,6.504C2,7.542 2,8.061 2.26,8.491C2.519,8.922 2.993,9.189 3.942,9.723L6.855,11.362C7.491,11.721 7.81,11.9 8.038,12.098C8.512,12.51 8.804,12.994 8.936,13.587C9,13.872 9,14.206 9,14.873L9,17.542C9,18.452 9,18.907 9.252,19.261C9.504,19.616 9.951,19.791 10.846,20.141C12.725,20.875 13.664,21.242 14.332,20.824C15,20.407 15,19.452 15,17.542L15,14.873C15,14.206 15,13.872 15.064,13.587C15.196,12.994 15.488,12.51 15.962,12.098C16.19,11.9 16.508,11.721 17.145,11.362L20.058,9.723C21.007,9.189 21.481,8.922 21.74,8.491C22,8.061 22,7.542 22,6.504L22,5.815C22,4.488 22,3.824 21.561,3.412C21.121,3 20.414,3 19,3Z"
              style="fill-rule:nonzero;"/>
    </g>
</svg>
