<?xml version="1.0" encoding="UTF-8" standalone="no"?>
<!DOCTYPE svg PUBLIC "-//W3C//DTD SVG 1.1//EN" "http://www.w3.org/Graphics/SVG/1.1/DTD/svg11.dtd">
<svg width="100%" height="100%" viewBox="0 0 16 16" version="1.1" xmlns="http://www.w3.org/2000/svg" xmlns:xlink="http://www.w3.org/1999/xlink" xml:space="preserve" xmlns:serif="http://www.serif.com/" style="fill-rule:evenodd;clip-rule:evenodd;stroke-linejoin:round;stroke-miterlimit:2;">
    <path d="M6.6,8.4C6.6,7.8 4.9,8.7 4.9,8.1C4.9,7.7 3.2,5.4 3.2,5.4L13,5.4C13,5.4 11.2,7.4 11.2,8.1C11.2,8.4 9.1,8 9.1,8.4L9.1,14.5L7,14.5C7,14.5 6.6,10.4 6.6,8.4Z" style="fill:white;fill-opacity:0.3;fill-rule:nonzero;"/>
    <path d="M2,2L2,4.3L4.7,9L6,9L6,14.4L8.1,15.4L9.9,14.5L9.9,9L11.2,9L14,4.3L14,2L2,2ZM13,4L10.8,8L9,8L9,13.8L8.1,14.2L7,13.7L7,8L5.2,8L3,4L3,3L13,3L13,4Z" style="fill:white;fill-rule:nonzero;"/>
</svg>
