<svg fill="none" height="800" viewBox="0 0 24 24" width="800" xmlns="http://www.w3.org/2000/svg">
    <path d="m19 3h-14c-1.41421 0-2.12132 0-2.56066.4122s-.43934 1.07562-.43934 2.40246v.68982c0 1.03784 0 1.55676.2596 1.98694s.73387.69716 1.68242 1.23113l2.91302 1.63985c.63642.3582.95463.5374 1.18247.7352.47448.4119.76657.8959.89893 1.4896.06356.285.06356.6186.06356 1.2857v2.6695c0 .9096 0 1.3643.25192 1.7189.25193.3545.69936.5294 1.59428.8793 1.8786.7344 2.8179 1.1016 3.4859.6838.6679-.4178.6679-1.3725.6679-3.282v-2.6695c0-.6671 0-1.0007.0636-1.2857.1323-.5937.4244-1.0777.8989-1.4896.2278-.1978.546-.377 1.1825-.7352l2.913-1.63985c.9485-.53397 1.4228-.80095 1.6824-1.23113s.2596-.9491.2596-1.98694v-.68982c0-1.32684 0-1.99026-.4393-2.40246-.4394-.4122-1.1465-.4122-2.5607-.4122z"
          fill="#ffffff"/>
</svg>