<?xml version="1.0" encoding="UTF-8" standalone="no"?>
<svg width="100%" height="100%" viewBox="0 0 800 800" version="1.1" xmlns="http://www.w3.org/2000/svg"
     style="fill-rule:evenodd;clip-rule:evenodd;stroke-linejoin:round;stroke-miterlimit:2;">
    <g transform="matrix(17.8571,0,0,17.8571,114.286,114.286)">
        <path color="black"
              d="M28,2L4,2C2.9,2 2,2.9 2,4L2,28C2,29.1 2.9,30 4,30L28,30C29.1,30 30,29.1 30,28L30,4C30,2.9 29.1,2 28,2ZM24.414,14.414L15.414,23.414C15.024,23.805 14.512,24 14,24C13.488,24 12.976,23.805 12.586,23.414L7.586,18.414C6.805,17.633 6.805,16.367 7.586,15.586C8.366,14.805 9.634,14.805 10.414,15.586L14,19.171L21.586,11.586C22.366,10.805 23.634,10.805 24.414,11.586C25.195,12.367 25.195,13.633 24.414,14.414Z"/>
    </g>
</svg>
