<?xml version="1.0" encoding="utf-8"?>
<!-- Uploaded to: SVG Repo, www.svgrepo.com, Generator: SVG Repo Mixer Tools -->
<svg fill="#FFFFFF" width="800px" height="800px" viewBox="0 0 32 32" version="1.1" xmlns="http://www.w3.org/2000/svg">
    <title>firefoxbrowser</title>
    <path d="M29.469 11.061c-0.613-1.515-1.617-2.765-2.89-3.66l-0.026-0.017c0.674 1.276 1.187 2.757 1.458 4.321l0.013 0.090 0.003 0.025c-1.642-4.096-4.429-5.748-6.706-9.344-0.114-0.184-0.23-0.365-0.341-0.557q-0.087-0.147-0.162-0.3c-0.087-0.165-0.16-0.356-0.211-0.557l-0.004-0.018c0-0 0-0 0-0 0-0.019-0.015-0.035-0.034-0.037h-0c-0.004-0.001-0.008-0.002-0.013-0.002s-0.009 0.001-0.013 0.002l0-0-0.007 0.001-0.012 0.006 0.006-0.010c-2.571 1.601-4.387 4.207-4.905 7.255l-0.009 0.063c-1.057 0.061-2.039 0.325-2.927 0.754l0.046-0.020c-0.124 0.062-0.207 0.188-0.207 0.333 0 0.046 0.009 0.091 0.024 0.132l-0.001-0.003c0.052 0.144 0.187 0.245 0.345 0.245 0.054 0 0.106-0.012 0.152-0.033l-0.002 0.001c0.733-0.354 1.586-0.588 2.487-0.652l0.023-0.001 0.084-0.006c0.123-0.007 0.266-0.012 0.411-0.012 0.725 0 1.425 0.106 2.086 0.302l-0.052-0.013 0.119 0.037c0.313 0.096 0.568 0.193 0.816 0.303l-0.046-0.018c0.1 0.045 0.2 0.091 0.297 0.14l0.134 0.069q0.235 0.123 0.46 0.264c1.056 0.661 1.914 1.546 2.523 2.594l0.019 0.036c-0.796-0.559-1.786-0.893-2.854-0.893-0.229 0-0.454 0.015-0.675 0.045l0.026-0.003c1.888 1.039 3.146 3.015 3.146 5.285 0 3.32-2.692 6.012-6.012 6.012-0.195 0-0.388-0.009-0.578-0.027l0.024 0.002c-0.686-0.029-1.332-0.16-1.936-0.379l0.045 0.014c-0.267-0.095-0.489-0.193-0.703-0.305l0.031 0.015c-1.842-0.903-3.149-2.651-3.421-4.725l-0.003-0.031s0.671-2.499 4.805-2.499c0.759-0.325 1.365-0.886 1.738-1.589l0.009-0.019c-1.349-0.653-2.503-1.35-3.585-2.141l0.065 0.045c-0.527-0.52-0.777-0.77-1-0.958-0.111-0.094-0.234-0.187-0.361-0.274l-0.015-0.010c-0.164-0.554-0.259-1.19-0.259-1.849 0-0.605 0.080-1.192 0.23-1.75l-0.011 0.047c-1.379 0.676-2.542 1.586-3.487 2.688l-0.012 0.015h-0.007c-0.341-0.854-0.539-1.844-0.539-2.879 0-0.268 0.013-0.533 0.039-0.794l-0.003 0.033c-0.186 0.076-0.346 0.162-0.496 0.263l0.009-0.006c-0.527 0.379-0.991 0.779-1.418 1.215l-0.002 0.002c-0.484 0.491-0.929 1.023-1.329 1.588l-0.027 0.040c-0.894 1.251-1.57 2.724-1.936 4.316l-0.016 0.083c-0.004 0.016-0.137 0.608-0.237 1.341-0.016 0.112-0.032 0.226-0.046 0.34q-0.061 0.415-0.086 0.834l-0.002 0.043-0.029 0.484-0.001 0.075c0.002 8.025 6.508 14.53 14.534 14.53 7.157 0 13.106-5.173 14.311-11.985l0.013-0.088c0.025-0.186 0.044-0.372 0.065-0.56 0.069-0.541 0.109-1.166 0.109-1.801 0-1.981-0.386-3.872-1.086-5.602l0.036 0.1z"></path>
</svg>