<svg fill="#ffffff" height="800" viewBox="0 0 32 32" width="800" xmlns="http://www.w3.org/2000/svg">
    <path d="m29.469 11.061c-.613-1.515-1.617-2.765-2.89-3.66l-.026-.017c.674 1.276 1.187 2.757 1.458 4.321l.013.09.003.025c-1.642-4.096-4.429-5.748-6.706-9.344-.114-.184-.23-.365-.341-.557q-.087-.147-.162-.3c-.087-.165-.16-.356-.211-.557l-.004-.018c0-.019-.015-.035-.034-.037-.004-.001-.008-.002-.013-.002s-.009.001-.013.002l-.007.001-.012.006.006-.01c-2.571 1.601-4.387 4.207-4.905 7.255l-.009.063c-1.057.061-2.039.325-2.927.754l.046-.02c-.124.062-.207.188-.207.333 0 .046.009.091.024.132l-.001-.003c.052.144.187.245.345.245.054 0 .106-.012.152-.033l-.002.001c.733-.354 1.586-.588 2.487-.652l.023-.001.084-.006c.123-.007.266-.012.411-.012.725 0 1.425.106 2.086.302l-.052-.013.119.037c.313.096.568.193.816.303l-.046-.018c.1.045.2.091.297.14l.134.069q.235.123.46.264c1.056.661 1.914 1.546 2.523 2.594l.019.036c-.796-.559-1.786-.893-2.854-.893-.229 0-.454.015-.675.045l.026-.003c1.888 1.039 3.146 3.015 3.146 5.285 0 3.32-2.692 6.012-6.012 6.012-.195 0-.388-.009-.578-.027l.024.002c-.686-.029-1.332-.16-1.936-.379l.045.014c-.267-.095-.489-.193-.703-.305l.031.015c-1.842-.903-3.149-2.651-3.421-4.725l-.003-.031s.671-2.499 4.805-2.499c.759-.325 1.365-.886 1.738-1.589l.009-.019c-1.349-.653-2.503-1.35-3.585-2.141l.065.045c-.527-.52-.777-.77-1-.958-.111-.094-.234-.187-.361-.274l-.015-.01c-.164-.554-.259-1.19-.259-1.849 0-.605.08-1.192.23-1.75l-.011.047c-1.379.676-2.542 1.586-3.487 2.688l-.012.015h-.007c-.341-.854-.539-1.844-.539-2.879 0-.268.013-.533.039-.794l-.003.033c-.186.076-.346.162-.496.263l.009-.006c-.527.379-.991.779-1.418 1.215l-.002.002c-.484.491-.929 1.023-1.329 1.588l-.027.04c-.894 1.251-1.57 2.724-1.936 4.316l-.016.083c-.004.016-.137.608-.237 1.341-.016.112-.032.226-.046.34q-.061.415-.086.834l-.002.043-.029.484-.001.075c.002 8.025 6.508 14.53 14.534 14.53 7.157 0 13.106-5.173 14.311-11.985l.013-.088c.025-.186.044-.372.065-.56.069-.541.109-1.166.109-1.801 0-1.981-.386-3.872-1.086-5.602l.036.1z"/>
</svg>