<?xml version="1.0" encoding="UTF-8" standalone="no"?>
<!DOCTYPE svg PUBLIC "-//W3C//DTD SVG 1.1//EN" "http://www.w3.org/Graphics/SVG/1.1/DTD/svg11.dtd">
<svg width="100%" height="100%" viewBox="0 0 16 16" version="1.1" xmlns="http://www.w3.org/2000/svg" xmlns:xlink="http://www.w3.org/1999/xlink" xml:space="preserve" xmlns:serif="http://www.serif.com/" style="fill-rule:evenodd;clip-rule:evenodd;stroke-linejoin:round;stroke-miterlimit:2;">
    <path d="M8,0C3.611,0 -0,3.611 0,8C0,12.389 3.611,16 8,16C12.389,16 16,12.389 16,8C15.995,3.613 12.387,0.005 8,0ZM13.163,4.958L11.611,4.958C11.398,4.112 11.042,3.309 10.56,2.582C11.645,3.097 12.551,3.925 13.163,4.958ZM14,8C13.999,8.667 13.885,9.329 13.665,9.958L11.844,9.958C11.948,9.311 12,8.656 12,8C12,7.344 11.948,6.689 11.844,6.042L13.665,6.042C13.885,6.671 13.999,7.333 14,8ZM8,14C6.925,14 5.963,12.8 5.433,11.042L10.568,11.042C10.037,12.8 9.075,14 8,14ZM5.174,9.958C4.942,8.663 4.942,7.337 5.174,6.042L10.825,6.042C10.941,6.688 11,7.343 11,8C11,8.657 10.942,9.312 10.826,9.958L5.174,9.958ZM2,8C2.001,7.333 2.115,6.671 2.335,6.042L4.156,6.042C3.948,7.339 3.948,8.661 4.156,9.958L2.335,9.958C2.115,9.329 2.001,8.667 2,8ZM8,2C9.075,2 10.037,3.2 10.567,4.958L5.433,4.958C5.963,3.2 6.925,2 8,2ZM5.44,2.582C4.958,3.309 4.602,4.112 4.389,4.958L2.837,4.958C3.449,3.925 4.355,3.097 5.44,2.582ZM2.837,11.042L4.389,11.042C4.602,11.888 4.958,12.691 5.44,13.418C4.355,12.903 3.449,12.075 2.837,11.042ZM10.563,13.418C11.045,12.691 11.401,11.888 11.614,11.042L13.166,11.042C12.554,12.076 11.646,12.903 10.56,13.418L10.563,13.418Z" style="fill:rgb(249,249,250);fill-rule:nonzero;"/>
</svg>
