<svg fill="none" height="800" viewBox="0 0 24 24" width="800" xmlns="http://www.w3.org/2000/svg">
    <g fill="#ffffff">
        <path d="m8.38729 5.07916c-.16149-.26746-.33103-.51718-.49949-.74456 1.15452-.83945 2.5755-1.3346 4.1122-1.3346 1.32 0 2.5547.36536 3.6084 1.00047-.0152.08912-.0367.19007-.0665.30245-.1056.39911-.2718.78003-.4131 1.00238-.0487.07667-.249.2725-.6124.54324-.162.1207-.3419.23154-.5561.35957l-.0743.04432c-.1875.11173-.4021.23956-.6089.3813-.488.33434-.9962.78625-1.338 1.51702-.2472.52852-.2302 1.04327-.1209 1.45611.0357.13477.0553.27045.0556.38966.0001.03708-.0144.09628-.0972.16538-.089.0744-.2144.1193-.3271.1181-1.077-.0122-1.92651-.90425-2.0498-2.32729-.0937-1.08151-.5356-2.08389-1.01241-2.87355z"/>
        <path d="m16.6517 14.5089c.2645-.0027.5126-.0201.7452-.0507-.8776 1.0613-2.0623 1.8593-3.4178 2.2581-.0465-.3814-.016-.8397.2088-1.2632.1919-.3617.6778-.6334 1.3337-.7946.3013-.0741.5878-.1121.8006-.1312.1055-.0094.1903-.014.2468-.0163.0282-.0011.0491-.0016.0618-.0018l.0121-.0002z"/>
        <path d="m5 10c0-1.71937.6199-3.29396 1.64838-4.51247.10118.14353.20259.29744.30075.46.40143.66485.71325 1.41614.77684 2.15019.17077 1.97108 1.48149 3.83698 3.70453 3.86218.9618.0109 2.1264-.712 2.1233-1.96756-.0007-.2875-.0459-.56766-.1115-.81545-.0316-.11928-.0271-.2167.0186-.31441.1705-.36461.4222-.60751.7657-.84285.16-.10961.3263-.20877.5186-.32349l.077-.046c.2153-.12868.4608-.2777.698-.45444.3448-.25693.7905-.61776 1.0266-.98947.187-.29423.3602-.67153.4944-1.06282 1.2129 1.25871 1.9588 2.97054 1.9588 4.85659 0 .5323-.0594 1.0508-.172 1.5491-.0674.1996-.1514.3861-.3027.5824-.2372.3078-.7122.6852-1.8911.6975h-.006l-.0287.0005c-.0237.0004-.0563.0012-.0968.0028-.0809.0032-.194.0095-.3306.0218-.2713.0243-.6457.0732-1.0515.1729-.7582.1864-1.8708.6098-2.4167 1.6386-.4308.8117-.4793 1.645-.3823 2.3271-.1066.0049-.2138.0073-.3216.0073-3.86599 0-7-3.134-7-7z"/>
        <path clip-rule="evenodd"
              d="m18.0035 1.49982c.2762-.30864.7504-.33491 1.059-.05866 2.2621 2.02464 3.6875 4.96928 3.6875 8.24584 0 5.7514-4.3888 10.4777-10 11.0126v.5504h1.25c.4142 0 .75.3358.75.75s-.3358.75-.75.75h-4c-.41421 0-.74999-.3358-.74999-.75s.33578-.75.74999-.75h1.25v-.5085c-3.10077-.1205-5.87463-1.5179-7.80884-3.679-.27625-.3086-.24998-.7828.05866-1.059.30865-.2763.78279-.25 1.05904.0587 1.75212 1.9576 4.29597 3.1878 7.12814 3.1878 5.2815 0 9.563-4.2815 9.563-9.563 0-2.83217-1.2302-5.37602-3.1878-7.12814-.3087-.27625-.335-.75039-.0587-1.05904z"
              fill-rule="evenodd"/>
    </g>
</svg>