<svg fill="none" height="800" viewBox="0 0 24 24" width="800" xmlns="http://www.w3.org/2000/svg">
    <path clip-rule="evenodd"
          d="m2 12c0-5.52285 4.47715-10 10-10 5.5228 0 10 4.47715 10 10 0 5.5228-4.4772 10-10 10-5.52285 0-10-4.4772-10-10zm10-3c-.2985 0-.5656.12956-.7503.33882-.3654.41407-.9974.45347-1.41143.08801-.41407-.36547-.45347-.99741-.08801-1.41148.54824-.62115 1.35354-1.01535 2.24974-1.01535 1.6569 0 3 1.34315 3 3 0 1.3072-.8353 2.4171-2 2.829v.171c0 .5523-.4477 1-1 1s-1-.4477-1-1v-.5c0-.8716.6873-1.388 1.2482-1.5308.4328-.1102.7518-.5037.7518-.9692 0-.55228-.4477-1-1-1zm0 6c-.5523 0-1 .4477-1 1s.4477 1 1 1h.01c.5523 0 1-.4477 1-1s-.4477-1-1-1z"
          fill="#ffffff" fill-rule="evenodd"/>
</svg>