<svg fill="#ffffff" height="800" viewBox="0 0 512 512" width="800" xmlns="http://www.w3.org/2000/svg">
    <path d="m405.333333 381.709781-42.666666 42.666667h-277.3333337l42.6666667-42.666667zm-364.165333-82.337781 62.502 62.502-61.0033333 30.502448-42.6666667 10.666667 10.6666667-42.666667zm19.932-108.068 151.037 151.037-5.165443 5.314494-5.874225-.290446-6.152892-.095807c-10.487039.002521-22.135186.816034-34.94444 2.44054l-8.029896 1.127653-7.846153 1.291683-7.506601 1.38912-9.23035 1.902763-78.4378625-78.437984c1.5580445-6.273428 3.1369387-14.043521 4.3841958-23.273235 2.5311812-18.730762 3.4607735-37.698674 2.788777-56.903734l3.3063773-3.721907zm221.227442-191.304 120.679557 120.679557-18.036051 23.249252-32.555232 41.500321-19.0984 23.964523-17.014329 21.002636-11.393076 13.80824-13.367207 15.819335-8.657733 9.920763-7.485444 8.254702-6.313154 6.588642-14.992178 14.827498-27.059195 27.453531-151.059-151.059 2.5629897-2.620992 37.8540603-37.624506 11.667015-11.195831 12.973484-11.881018 11.319445-9.998149 12.155586-10.4366694 12.991725-10.8751887 13.827866-11.3137085 14.664006-11.7522283 23.563773-18.4505669 16.754357-12.8485277 17.590497-13.2870474z"
          fill-rule="evenodd" transform="translate(64 44.956885)"/>
</svg>