<?xml version="1.0" encoding="UTF-8" standalone="no"?>
<!DOCTYPE svg PUBLIC "-//W3C//DTD SVG 1.1//EN" "http://www.w3.org/Graphics/SVG/1.1/DTD/svg11.dtd">
<svg width="100%" height="100%" viewBox="0 0 35 35" version="1.1" xmlns="http://www.w3.org/2000/svg"
     xmlns:xlink="http://www.w3.org/1999/xlink" xml:space="preserve" xmlns:serif="http://www.serif.com/"
     style="fill-rule:evenodd;clip-rule:evenodd;stroke-linejoin:round;stroke-miterlimit:2;">
    <g transform="matrix(1,0,0,1,0,-48.2291)">
        <g id="Notefox-5.0---icon---not-enabled" serif:id="Notefox 5.0 - icon - not enabled"
           transform="matrix(0.938173,0,0,1.01558,2.22765,6.37427)">
            <rect x="-2.374" y="41.213" width="36.774" height="33.971" style="fill:none;"/>
            <g transform="matrix(0.00326297,-8.1738e-35,8.84822e-35,-0.00301426,-3.83293,50.0037)">
                <g>
                    <g transform="matrix(1,1.09476e-47,-1.09476e-47,1,-736.712,51.3984)">
                        <path d="M9902,1717.33C9862.5,1951.56 9792.24,2109.66 9492.23,2169.47C9050.83,2257.48 3901.8,2277.56 2927.36,2162.12C2561.16,2118.74 2352.33,2037.45 2321.45,1769.86C2137.7,177.424 2120.97,-4700.85 2317.54,-6623.36C2384.5,-7278.28 2707.79,-7485.84 3102.39,-7529.4C4186.31,-7649.05 8108.14,-7655.12 9215.9,-7490.99C9572.98,-7438.08 9722.26,-7264.1 9788.66,-6841.08C10023.4,-5345.51 10159.3,191.648 9902,1717.33Z"
                              style="fill:rgb(255,183,136);fill-rule:nonzero;"/>
                    </g>
                    <g transform="matrix(1,5.47382e-48,-1.64215e-47,1,-736.712,51.3984)">
                        <path d="M10224.1,1771.65C10484.6,227.261 10349,-5377.82 10111.4,-6891.73C10066,-7180.53 9980.19,-7379.51 9856.96,-7520.13C9720.23,-7676.14 9534.25,-7774.05 9263.78,-7814.12C8140.84,-7980.51 4165.31,-7975.38 3066.55,-7854.09C2792.99,-7823.9 2547.6,-7729.06 2355.54,-7536.06C2175.9,-7355.53 2035.99,-7081.29 1992.57,-6656.59C1794.34,-4717.89 1811.64,201.462 1996.94,1807.3C2044.9,2222.95 2320.12,2419.14 2888.93,2486.52C3878.56,2603.75 9107.83,2579.21 9556.1,2489.83C9749.06,2451.36 9879.49,2380.16 9974.71,2293.4C10115.2,2165.37 10186.6,1993.95 10224.1,1771.65ZM9902,1717.33C9862.5,1951.56 9792.24,2109.66 9492.23,2169.47C9050.83,2257.48 3901.8,2277.56 2927.36,2162.12C2561.16,2118.74 2352.33,2037.45 2321.45,1769.86C2137.7,177.424 2120.97,-4700.85 2317.54,-6623.36C2384.5,-7278.28 2707.79,-7485.84 3102.39,-7529.4C4186.31,-7649.05 8108.14,-7655.12 9215.9,-7490.99C9572.98,-7438.08 9722.26,-7264.1 9788.66,-6841.08C10023.4,-5345.51 10159.3,191.648 9902,1717.33Z"
                              style="fill:white;fill-opacity:0.7;"/>
                    </g>
                </g>
                <g transform="matrix(0.836377,0.548155,-0.548155,0.836377,1628.43,-5055.66)">
                    <g transform="matrix(-0.975524,-2.34562e-34,2.34562e-34,-0.984174,10684,-4202.33)">
                        <path d="M5460.4,-848.9C5460.4,-848.9 2731.14,-2829.86 311.464,-3908.33C110.077,-3998.09 86.573,-4171.24 176.962,-4377.36C307.743,-4675.6 670.875,-5266.86 918.113,-5483.08C1037.62,-5587.59 1214.17,-5664.81 1374.57,-5528.48C2978.61,-4165.18 6430.3,-2337.1 6430.3,-2337.1C6430.3,-2337.1 7262.79,-1115.02 7118.75,-903.027C6991.2,-715.281 5460.4,-848.9 5460.4,-848.9Z"
                              style="fill:rgb(255,98,0);fill-rule:nonzero;"/>
                    </g>
                    <g transform="matrix(-0.975524,-2.34562e-34,2.34562e-34,-0.984174,10684,-4202.33)">
                        <path d="M5431.03,-518.26C5431.03,-518.26 6461.69,-431.303 6942.64,-496.44C7072.24,-513.993 7174.1,-545.512 7238.82,-579.715L7331.35,-643.479L7396.5,-717.621L7450.27,-830.662L7470.36,-972.736C7470.24,-1043.1 7454.78,-1133.82 7420.66,-1236.98C7272.01,-1686.42 6707.82,-2522.84 6707.82,-2522.84C6677.3,-2567.64 6636.21,-2604.38 6588.11,-2629.85C6588.11,-2629.85 3177.08,-4433.72 1592.54,-5780.45C1278.81,-6047.1 930.324,-5936.4 696.571,-5731.98C422.504,-5492.3 14.828,-4840.27 -130.143,-4509.68C-229.555,-4282.98 -229.024,-4076.61 -152.786,-3913.39L-93.19,-3813.54L-15.259,-3727.52C35.253,-3681.46 97.53,-3639.75 174.133,-3605.61C2565.59,-2539.71 5262.56,-581.101 5262.56,-581.101C5311.88,-545.307 5370.14,-523.575 5431.03,-518.26ZM5460.4,-848.9C5460.4,-848.9 2731.14,-2829.86 311.464,-3908.33C110.077,-3998.09 86.573,-4171.24 176.962,-4377.36C307.743,-4675.6 670.875,-5266.86 918.113,-5483.08C1037.62,-5587.59 1214.17,-5664.81 1374.57,-5528.48C2978.61,-4165.18 6430.3,-2337.1 6430.3,-2337.1C6430.3,-2337.1 7262.79,-1115.02 7118.75,-903.027C6991.2,-715.281 5460.4,-848.9 5460.4,-848.9Z"
                              style="fill:white;fill-opacity:0.7;"/>
                    </g>
                </g>
            </g>
        </g>
    </g>
</svg>
