<?xml version="1.0" encoding="UTF-8" standalone="no"?>
<!DOCTYPE svg PUBLIC "-//W3C//DTD SVG 1.1//EN" "http://www.w3.org/Graphics/SVG/1.1/DTD/svg11.dtd">
<svg width="100%" height="100%" viewBox="0 0 36 36" version="1.1" xmlns="http://www.w3.org/2000/svg" xmlns:xlink="http://www.w3.org/1999/xlink" xml:space="preserve" xmlns:serif="http://www.serif.com/" style="fill-rule:evenodd;clip-rule:evenodd;stroke-linejoin:round;stroke-miterlimit:2;">
    <g transform="matrix(0.00336735,0,0,-0.00336735,1.16324,8.9755)">
        <g>
            <path d="M2337.6,2060.6C2249.8,1951.9 2249.8,1910.1 2249.8,-117.4C2249.8,-1760.3 2237.63,-2033.28 2304.1,-2153.3C2364.99,-2263.24 2821.28,-1875.96 2848.22,-1844.78C2886.07,-1800.98 2876.8,-125.7 2876.8,-125.7L2876.8,1542.3L9272.8,1542.3L9272.8,-1225.2C9272.8,-4410.7 9297.9,-4205.8 8896.5,-4402.3C8629,-4531.9 8190,-4603 7625.7,-4603C7299.6,-4603 7220.2,-4615.5 7128.2,-4686.6C7027.8,-4766.1 7023.7,-4778.6 7006.9,-5510.2C6981.8,-6358.8 6931.7,-6567.8 6697.6,-6776.9L6551.3,-6902.3L2876.9,-6902.3L2876.9,-6003.5C2876.9,-5510.2 2891.38,-5116.34 2819.14,-5118.99C2756.77,-5121.28 2396.2,-5363.9 2325.1,-5430.8C2258.2,-5485.1 2249.9,-5589.6 2249.9,-6400.7C2249.9,-7257.7 2254.1,-7316.2 2337.7,-7420.7L2421.3,-7529.4L4586.8,-7529.4C6430.4,-7529.4 6777.3,-7521 6940.4,-7462.5C7220.5,-7370.5 7621.8,-7006.8 8650.2,-5928.3C9628.3,-4895.6 9770.4,-4695 9858.2,-4230.9C9883.3,-4093 9900,-2838.8 9900,-1007.8L9900,1989.6L9803.9,2077.4L9707.7,2169.4L2421.2,2169.4L2337.6,2060.6Z" style="fill:rgb(255,87,87);fill-rule:nonzero;"/>
            <path d="M2421.2,2169.4L2421.2,2466.37L9707.7,2466.37C9787.36,2466.37 9859.69,2435 9912.99,2383.87L10006.9,2294.18C10020.9,2281.38 10085.4,2222.5 10098.1,2210.85C10194.6,2122.7 10194.3,2029.86 10154.9,1947.49L10197,1989.6L10197,-1007.8C10197,-2869.04 10175.9,-4143.9 10150.4,-4284.08C10150.2,-4284.75 10150.1,-4285.43 10150,-4286.1C10055.2,-4787.12 9921.71,-5017.67 8865.81,-6132.51C8865.58,-6132.75 8865.35,-6133 8865.12,-6133.24C7776.28,-7275.13 7333.35,-7644.61 7035.88,-7743.72C6863.74,-7803.47 6491.45,-7826.37 4586.8,-7826.37C4586.8,-7826.37 2421.3,-7826.37 2421.3,-7826.37C2421.3,-7826.37 2303.69,-7841.65 2202.91,-7730.58L2104.72,-7604.83C2033.49,-7515.74 1986.22,-7448.63 1966.56,-7218.13C1954.69,-7079.02 1952.93,-6842.86 1952.93,-6400.7C1952.93,-5890 1957.98,-5646.29 1975.66,-5520.69C2003.37,-5323.71 2067.71,-5257.75 2132.03,-5205.13C2213.07,-5134.77 2474.16,-4954.52 2614.23,-4882.09C2701.5,-4836.96 2773.83,-4823.48 2808.25,-4822.22C2917.98,-4818.19 3075.01,-4861.37 3138.2,-5080.23C3174.75,-5206.82 3173.87,-5570.05 3173.87,-6003.5C3173.87,-6003.5 3173.87,-6605.33 3173.87,-6605.33L6441.45,-6605.33C6441.45,-6605.33 6501.61,-6553.76 6503.59,-6551.97C6592.9,-6470.88 6634.07,-6385.52 6661.39,-6215.37C6688.15,-6048.75 6700.51,-5823.9 6710.04,-5502.18C6718.9,-5116.39 6725.97,-4920.15 6742.52,-4809.82C6776.1,-4585.88 6836.29,-4538.95 6943.85,-4453.78C6944.76,-4453.06 6945.68,-4452.34 6946.6,-4451.62C7073.26,-4353.74 7176.75,-4306.03 7625.7,-4306.03C8131.81,-4306.03 8526.95,-4251.31 8766.91,-4135.1L8905.4,-4067.82C8908.81,-4059.03 8915.01,-4042.11 8918.35,-4028.92C8927.22,-3993.83 8934.15,-3951.44 8940.26,-3899.78C8983.59,-3533.03 8975.83,-2797.45 8975.83,-1225.2C8975.83,-1225.2 8975.83,1245.34 8975.83,1245.33L3173.77,1245.33C3173.77,1245.33 3173.77,-125.177 3173.77,-125.184C3173.98,-169.516 3180.17,-1508.29 3154.1,-1811.45C3142.35,-1947.99 3088.26,-2021.2 3072.92,-2038.94C3045.01,-2071.25 2658.22,-2394.48 2465.41,-2451.29C2252.81,-2513.92 2113.88,-2422.8 2044.31,-2297.18C2011.15,-2237.31 1980.86,-2156.7 1967.17,-1996.41C1947.68,-1768.42 1952.83,-1283.12 1952.83,-117.4C1952.83,1114.33 1953.6,1622.25 1972.8,1855.29C1994.37,2117.05 2044.68,2170.82 2104.37,2244.47L2183.38,2347.29L2331.08,2052.38C2249.8,1948.48 2249.8,1858.4 2249.8,-117.4C2249.8,-1760.3 2237.63,-2033.28 2304.1,-2153.3C2364.99,-2263.24 2821.28,-1875.96 2848.22,-1844.78C2886.07,-1800.98 2876.8,-125.7 2876.8,-125.7L2876.8,1542.3L9272.8,1542.3L9272.8,-1225.2C9272.8,-4410.7 9297.9,-4205.8 8896.5,-4402.3C8629,-4531.9 8190,-4603 7625.7,-4603C7299.6,-4603 7220.2,-4615.5 7128.2,-4686.6C7027.8,-4766.1 7023.7,-4778.6 7006.9,-5510.2C6981.8,-6358.8 6931.7,-6567.8 6697.6,-6776.9L6551.3,-6902.3L2876.9,-6902.3L2876.9,-6003.5C2876.9,-5510.2 2891.38,-5116.34 2819.14,-5118.99C2756.77,-5121.28 2396.2,-5363.9 2325.1,-5430.8C2258.2,-5485.1 2249.9,-5589.6 2249.9,-6400.7C2249.9,-7257.7 2254.1,-7316.2 2337.7,-7420.7L2421.3,-7529.4L4586.8,-7529.4C6430.4,-7529.4 6777.3,-7521 6940.4,-7462.5C7220.5,-7370.5 7621.8,-7006.8 8650.2,-5928.3C9628.3,-4895.6 9770.4,-4695 9858.2,-4230.9C9883.3,-4093 9900,-2838.8 9900,-1007.8L9900,1989.6L9803.9,2077.4L9707.7,2169.4L2421.2,2169.4Z" style="fill:white;fill-opacity:0.33;"/>
            <path d="M2963.46,-2483.19C1504.46,-3386.19 130.4,-4038.7 117.8,-4051.2C105.3,-4059.6 96.9,-4201.7 101.1,-4364.7C105.3,-4883.1 360.3,-5280.2 836.9,-5518.5L1087.7,-5643.9C1087.7,-5643.9 2529.42,-4538.25 3827.77,-3740.84L6430.3,-2337.1C6430.3,-2337.1 7217.28,-934.507 7084.9,-815.068C6973.6,-714.648 5761.36,-818.125 5460.4,-848.9C5453,-849.656 4629.81,-1451.86 2963.46,-2483.19Z" style="fill:rgb(255,87,87);fill-rule:nonzero;"/>
            <path d="M-68.081,-3821.31L-47.838,-3804.72C-81.278,-3827.19 -135.885,-3870.81 -166.903,-3961.79C-180.814,-4002.6 -200.654,-4174.36 -195.837,-4369.71C-189.862,-5004.34 120.255,-5492.2 704.091,-5784.12C704.091,-5784.12 954.891,-5909.52 954.891,-5909.52C1056.53,-5960.34 1178.25,-5948.7 1268.42,-5879.55C1268.42,-5879.55 2689.9,-4789.25 3973.87,-3999.62C3976.21,-3998.18 6571.28,-2598.47 6571.28,-2598.47C6620.82,-2571.75 6661.74,-2531.5 6689.29,-2482.41C6689.29,-2482.41 7211.46,-1546.76 7350.65,-1109.26C7390.61,-983.655 7401.2,-881.342 7394.46,-818.276C7383.23,-713.217 7336.57,-642.156 7283.84,-594.58C7238.49,-553.664 7112.91,-492.891 6920.93,-480.698C6531.18,-455.945 5679.13,-528.015 5430.19,-553.471C5426.05,-553.895 5359.28,-556.727 5263.63,-623.538C5110.74,-730.329 4298.52,-1307.65 2807.18,-2230.67C1504.91,-3036.66 270.808,-3641.3 27.915,-3763.23C-17.559,-3786.06 -48.955,-3806.94 -68.081,-3821.31ZM2963.46,-2483.19C1504.46,-3386.19 130.4,-4038.7 117.8,-4051.2C105.3,-4059.6 96.9,-4201.7 101.1,-4364.7C105.3,-4883.1 360.3,-5280.2 836.9,-5518.5L1087.7,-5643.9C1087.7,-5643.9 2529.42,-4538.25 3827.77,-3740.84L6430.3,-2337.1C6430.3,-2337.1 7217.28,-934.507 7084.9,-815.068C6973.6,-714.648 5761.36,-818.125 5460.4,-848.9C5453,-849.656 4629.81,-1451.86 2963.46,-2483.19Z" style="fill:white;fill-opacity:0.33;"/>
        </g>
    </g>
</svg>
