<?xml version="1.0" encoding="UTF-8" standalone="no"?>
<!DOCTYPE svg PUBLIC "-//W3C//DTD SVG 1.1//EN" "http://www.w3.org/Graphics/SVG/1.1/DTD/svg11.dtd">
<svg width="100%" height="100%" viewBox="0 0 35 35" version="1.1" xmlns="http://www.w3.org/2000/svg"
     xmlns:xlink="http://www.w3.org/1999/xlink" xml:space="preserve" xmlns:serif="http://www.serif.com/"
     style="fill-rule:evenodd;clip-rule:evenodd;stroke-linejoin:round;stroke-miterlimit:2;">
    <g id="Notefox-5.0---icon---enabled" serif:id="Notefox 5.0 - icon - enabled"
       transform="matrix(0.938173,0,0,1.01558,2.22765,-41.8549)">
        <rect x="-2.374" y="41.213" width="36.774" height="33.971" style="fill:none;"/>
        <g transform="matrix(0.888251,0,0,0.820548,-3.49735,43.646)">
            <g transform="matrix(0.00367347,-9.96139e-35,9.96139e-35,-0.00367347,-0.377797,7.74807)">
                <g>
                    <g transform="matrix(1,1.09476e-47,-1.09476e-47,1,-736.712,51.3984)">
                        <path d="M9902,1717.33C9862.5,1951.56 9792.24,2109.66 9492.23,2169.47C9050.83,2257.48 3901.8,2277.56 2927.36,2162.12C2561.16,2118.74 2352.33,2037.45 2321.45,1769.86C2137.7,177.424 2120.97,-4700.85 2317.54,-6623.36C2384.5,-7278.28 2707.79,-7485.84 3102.39,-7529.4C4186.31,-7649.05 8108.14,-7655.12 9215.9,-7490.99C9572.98,-7438.08 9722.26,-7264.1 9788.66,-6841.08C10023.4,-5345.51 10159.3,191.648 9902,1717.33Z"
                              style="fill:rgb(0,168,28);fill-rule:nonzero;"/>
                    </g>
                    <g transform="matrix(1,5.47382e-48,-1.64215e-47,1,-736.712,51.3984)">
                        <path d="M10224.1,1771.65C10484.6,227.261 10349,-5377.82 10111.4,-6891.73C10066,-7180.53 9980.19,-7379.51 9856.96,-7520.13C9720.23,-7676.14 9534.25,-7774.05 9263.78,-7814.12C8140.84,-7980.51 4165.31,-7975.38 3066.55,-7854.09C2792.99,-7823.9 2547.6,-7729.06 2355.54,-7536.06C2175.9,-7355.53 2035.99,-7081.29 1992.57,-6656.59C1794.34,-4717.89 1811.64,201.462 1996.94,1807.3C2044.9,2222.95 2320.12,2419.14 2888.93,2486.52C3878.56,2603.75 9107.83,2579.21 9556.1,2489.83C9749.06,2451.36 9879.49,2380.16 9974.71,2293.4C10115.2,2165.37 10186.6,1993.95 10224.1,1771.65ZM9902,1717.33C9862.5,1951.56 9792.24,2109.66 9492.23,2169.47C9050.83,2257.48 3901.8,2277.56 2927.36,2162.12C2561.16,2118.74 2352.33,2037.45 2321.45,1769.86C2137.7,177.424 2120.97,-4700.85 2317.54,-6623.36C2384.5,-7278.28 2707.79,-7485.84 3102.39,-7529.4C4186.31,-7649.05 8108.14,-7655.12 9215.9,-7490.99C9572.98,-7438.08 9722.26,-7264.1 9788.66,-6841.08C10023.4,-5345.51 10159.3,191.648 9902,1717.33Z"
                              style="fill:white;fill-opacity:0.7;"/>
                    </g>
                </g>
                <g>
                    <g transform="matrix(-0.975524,-2.34562e-34,2.34562e-34,-0.984174,10684,-4202.33)">
                        <path d="M5460.4,-848.9C5460.4,-848.9 2731.14,-2829.86 311.464,-3908.33C110.077,-3998.09 86.573,-4171.24 176.962,-4377.36C307.743,-4675.6 670.875,-5266.86 918.113,-5483.08C1037.62,-5587.59 1214.17,-5664.81 1374.57,-5528.48C2978.61,-4165.18 6430.3,-2337.1 6430.3,-2337.1C6430.3,-2337.1 7262.79,-1115.02 7118.75,-903.027C6991.2,-715.281 5460.4,-848.9 5460.4,-848.9Z"
                              style="fill:rgb(0,54,28);fill-rule:nonzero;"/>
                    </g>
                    <g transform="matrix(-0.975524,-2.34562e-34,2.34562e-34,-0.984174,10684,-4202.33)">
                        <path d="M5431.03,-518.26C5431.03,-518.26 6461.69,-431.303 6942.64,-496.44C7072.24,-513.993 7174.1,-545.512 7238.82,-579.715L7331.35,-643.479L7396.5,-717.621L7450.27,-830.662L7470.36,-972.736C7470.24,-1043.1 7454.78,-1133.82 7420.66,-1236.98C7272.01,-1686.42 6707.82,-2522.84 6707.82,-2522.84C6677.3,-2567.64 6636.21,-2604.38 6588.11,-2629.85C6588.11,-2629.85 3177.08,-4433.72 1592.54,-5780.45C1278.81,-6047.1 930.324,-5936.4 696.571,-5731.98C422.504,-5492.3 14.828,-4840.27 -130.143,-4509.68C-229.555,-4282.98 -229.024,-4076.61 -152.786,-3913.39L-93.19,-3813.54L-15.259,-3727.52C35.253,-3681.46 97.53,-3639.75 174.133,-3605.61C2565.59,-2539.71 5262.56,-581.101 5262.56,-581.101C5311.88,-545.307 5370.14,-523.575 5431.03,-518.26ZM5460.4,-848.9C5460.4,-848.9 2731.14,-2829.86 311.464,-3908.33C110.077,-3998.09 86.573,-4171.24 176.962,-4377.36C307.743,-4675.6 670.875,-5266.86 918.113,-5483.08C1037.62,-5587.59 1214.17,-5664.81 1374.57,-5528.48C2978.61,-4165.18 6430.3,-2337.1 6430.3,-2337.1C6430.3,-2337.1 7262.79,-1115.02 7118.75,-903.027C6991.2,-715.281 5460.4,-848.9 5460.4,-848.9Z"
                              style="fill:white;fill-opacity:0.7;"/>
                    </g>
                </g>
            </g>
            <g transform="matrix(1.2,0,0,1.2,0.186572,-4.16549)">
                <path d="M7.283,6.554C7.286,6.551 7.288,6.546 7.291,6.541C7.327,6.481 7.467,6.244 7.543,6.173C7.545,6.171 7.547,6.168 7.55,6.166L7.696,6.03L7.849,5.966L7.982,5.952L8.098,5.969L8.291,6.07L8.419,6.232L8.46,6.351L8.472,6.463C8.472,7.098 8.55,7.725 8.557,8.36C8.822,8.085 9.101,7.836 9.403,7.684L9.591,7.63L9.774,7.642L9.963,7.726C10.018,7.763 10.077,7.832 10.122,7.877C10.148,7.903 10.172,7.932 10.199,7.96C10.207,7.951 10.214,7.944 10.222,7.938L10.333,7.86L10.482,7.802C10.641,7.762 10.801,7.769 10.963,7.806C11.033,7.821 11.103,7.842 11.173,7.863C11.219,7.877 11.263,7.912 11.312,7.896C11.722,7.763 11.974,7.48 12.308,7.225C12.386,7.166 12.614,6.977 12.797,6.934L13.008,6.919L13.18,6.96L13.359,7.062L13.483,7.178C13.517,7.216 13.538,7.264 13.578,7.303C13.711,7.429 13.859,7.565 14.009,7.689C14.049,7.645 14.083,7.608 14.095,7.598C14.479,7.266 14.944,6.998 15.439,6.881C15.564,6.852 15.716,6.797 15.837,6.81L15.975,6.841L16.113,6.909L16.256,7.038L16.372,7.232C16.422,7.351 16.436,7.509 16.463,7.614C16.485,7.704 16.54,7.875 16.623,8.027C16.645,8.067 16.688,8.126 16.713,8.157C16.806,8.148 16.885,8.085 16.966,8.022C17.09,7.926 17.209,7.809 17.329,7.697C17.618,7.427 17.923,7.195 18.259,7.12L18.443,7.104L18.619,7.133L18.791,7.21L18.969,7.35C19.043,7.424 19.115,7.518 19.184,7.616C19.21,7.652 19.249,7.702 19.28,7.741C19.372,7.71 19.531,7.66 19.628,7.649C19.963,7.612 20.308,7.66 20.645,7.66C20.921,7.66 21.145,7.884 21.145,8.16C21.145,8.436 20.921,8.66 20.645,8.66C20.345,8.66 20.037,8.609 19.738,8.643C19.658,8.652 19.583,8.699 19.505,8.722C19.423,8.747 19.339,8.763 19.254,8.766L19.037,8.747L18.883,8.695L18.757,8.623C18.672,8.564 18.589,8.484 18.513,8.39C18.464,8.329 18.39,8.231 18.336,8.157C18.276,8.194 18.219,8.243 18.161,8.293C17.992,8.437 17.829,8.607 17.658,8.748C17.322,9.027 16.955,9.201 16.536,9.148L16.377,9.112L16.239,9.05C16.135,8.992 16.035,8.909 15.946,8.804C15.724,8.544 15.567,8.125 15.504,7.902C15.234,7.995 14.983,8.155 14.766,8.339C14.711,8.401 14.446,8.693 14.309,8.76L14.161,8.812L14.018,8.824L13.875,8.799L13.734,8.731C13.457,8.547 13.151,8.276 12.896,8.034C12.477,8.356 12.137,8.68 11.62,8.848C11.403,8.918 11.192,8.902 10.986,8.849C10.929,8.834 10.873,8.817 10.817,8.801C10.814,8.8 10.81,8.799 10.806,8.798C10.787,8.821 10.768,8.843 10.752,8.859L10.539,8.998L10.33,9.046L10.127,9.03C9.921,8.984 9.747,8.877 9.594,8.75C9.468,8.854 9.347,8.979 9.227,9.106C8.969,9.378 8.716,9.662 8.449,9.87L8.29,9.956L8.13,9.986L7.982,9.968L7.852,9.915L7.717,9.803L7.628,9.664L7.576,9.495C7.56,9.412 7.557,9.319 7.557,9.291L7.557,8.443C7.557,8.307 7.554,8.172 7.548,8.037C7.535,8.057 7.522,8.076 7.511,8.09C7.46,8.311 7.261,8.476 7.025,8.476C6.749,8.476 6.525,8.252 6.525,7.976L6.54,7.835L6.597,7.671C6.629,7.604 6.688,7.543 6.722,7.477C6.887,7.161 7.098,6.856 7.283,6.554Z"
                      style="fill:white;"/>
            </g>
            <g transform="matrix(1.2,0,0,1.2,0.186572,-4.16549)">
                <path d="M6.299,14.717C6.298,14.694 6.298,14.671 6.299,14.653C6.311,14.43 6.322,14.206 6.343,13.983C6.388,13.502 6.508,12.996 6.781,12.587C6.841,12.496 6.973,12.329 7.105,12.228L7.28,12.125L7.462,12.076C7.988,12.015 8.303,12.221 8.537,12.531C8.638,12.663 8.72,12.821 8.798,12.984C8.835,13.062 8.87,13.143 8.91,13.218C8.953,13.204 8.995,13.19 9.026,13.178C9.158,13.127 9.265,13.091 9.297,13.085L9.426,13.074L9.557,13.089L9.696,13.136L9.848,13.232C9.904,13.278 10.004,13.393 10.045,13.441C10.309,13.506 10.792,13.46 10.996,13.405C11.114,13.374 11.286,13.336 11.391,13.254C11.412,13.195 11.448,13.097 11.471,13.059L11.621,12.891L11.765,12.815L11.95,12.786L12.089,12.808L12.238,12.878C12.428,13.005 12.748,13.132 13.041,13.182C13.165,13.203 13.283,13.227 13.364,13.186C13.61,13.063 13.911,13.163 14.034,13.41C14.158,13.657 14.058,13.957 13.811,14.081C13.576,14.198 13.237,14.229 12.875,14.168C12.621,14.125 12.355,14.041 12.12,13.94C11.897,14.148 11.526,14.298 11.256,14.371C10.914,14.463 10.075,14.508 9.681,14.377C9.567,14.338 9.429,14.222 9.332,14.128C9.17,14.185 8.948,14.257 8.824,14.267L8.576,14.245L8.43,14.182L8.326,14.1C8.128,13.903 7.998,13.622 7.866,13.355C7.812,13.244 7.78,13.109 7.666,13.075C7.645,13.101 7.622,13.128 7.613,13.142C7.432,13.414 7.369,13.756 7.339,14.076C7.319,14.281 7.309,14.487 7.298,14.692C7.298,14.696 7.298,14.701 7.298,14.707C7.3,14.75 7.305,14.876 7.294,14.936L7.23,15.121L7.145,15.241L7.033,15.337C6.804,15.49 6.493,15.428 6.34,15.198C6.241,15.05 6.232,14.869 6.299,14.717Z"
                      style="fill:white;"/>
            </g>
        </g>
    </g>
</svg>
