<?xml version="1.0" encoding="UTF-8" standalone="no"?>
<!DOCTYPE svg PUBLIC "-//W3C//DTD SVG 1.1//EN" "http://www.w3.org/Graphics/SVG/1.1/DTD/svg11.dtd">
<svg width="100%" height="100%" viewBox="0 0 36 36" version="1.1" xmlns="http://www.w3.org/2000/svg" xmlns:xlink="http://www.w3.org/1999/xlink" xml:space="preserve" xmlns:serif="http://www.serif.com/" style="fill-rule:evenodd;clip-rule:evenodd;stroke-linejoin:round;stroke-miterlimit:2;">
    <g id="Layer1">
        <g transform="matrix(0.00306122,0,0,-0.00306122,-2.77494,9.8101)">
            <path d="M9707.7,2169.4C9707.7,2169.4 3617.54,2262.14 2522.17,2161.68C2423.83,2152.66 2356.55,2124.83 2321.45,2004.41C2284.75,1878.48 2249.8,659.559 2249.8,-117.4C2249.8,-1760.3 2249.9,-5589.6 2249.9,-6400.7C2249.9,-6922.52 2297.45,-7339.61 2317.54,-7459.99C2330.44,-7537.32 2421.3,-7529.4 2421.3,-7529.4L4586.8,-7529.4C6430.4,-7529.4 9035.57,-7617.26 9565.31,-7490.99C9727.52,-7452.32 9760.92,-7371.07 9783.87,-7221.07C9865.28,-6688.92 9900,-2838.8 9900,-1007.8L9900,1989.6C9901.78,2109.98 9834.17,2163.21 9707.7,2169.4Z" style="fill:rgb(255,183,136);"/>
            <path d="M2421.3,-7856.08C2337.04,-7855.32 2045.43,-7814.06 1995.33,-7513.75C1974.22,-7387.24 1923.23,-6949.02 1923.23,-6400.7C1923.23,-5589.6 1923.13,-1760.3 1923.13,-117.4C1923.13,693.158 1969.55,1964.44 2007.83,2095.82C2052.26,2248.23 2127.65,2335.04 2212.45,2393.61C2288.81,2446.35 2380.25,2476.7 2492.33,2486.98C3593.01,2587.93 9712.67,2496.03 9712.67,2496.03C9716.34,2495.97 9720.01,2495.86 9723.67,2495.68C9877.86,2488.13 9990.79,2436.57 10070,2365.54C10164.1,2281.23 10228.2,2162.17 10226.7,1988.8L10226.7,-1007.8C10226.7,-2853.37 10188.8,-6734.09 10106.8,-7270.47C10079.9,-7446.01 10026.3,-7565.19 9934.93,-7655.21C9868.63,-7720.51 9778.76,-7775.93 9641.06,-7808.75C9103.25,-7936.95 6458.48,-7856.07 4586.8,-7856.07L2431.65,-7855.85C2428.28,-7855.95 2424.83,-7856.02 2421.3,-7856.08L2421.3,-7529.4L4586.8,-7529.4C6430.4,-7529.4 9035.57,-7617.26 9565.31,-7490.99C9727.52,-7452.32 9760.92,-7371.07 9783.87,-7221.07C9865.28,-6688.92 9900,-2838.8 9900,-1007.8L9900,1989.6C9901.78,2109.98 9834.17,2163.21 9707.7,2169.4C9707.7,2169.4 3617.54,2262.14 2522.17,2161.68C2423.83,2152.66 2356.55,2124.83 2321.45,2004.41C2284.75,1878.48 2249.8,659.559 2249.8,-117.4C2249.8,-1760.3 2249.9,-5589.6 2249.9,-6400.7C2249.9,-6740.28 2270.04,-7035.51 2289.64,-7233.48C2083.36,-7362.7 2421.3,-7856.08 2421.3,-7856.08Z" style="fill:white;"/>
        </g>
        <g transform="matrix(-0.0029863,0,0,0.00301278,32.1864,22.8317)">
            <path d="M2963.46,-2483.19C1504.46,-3386.19 130.4,-4038.7 117.8,-4051.2C105.3,-4059.6 96.9,-4201.7 101.1,-4364.7C105.3,-4883.1 360.3,-5280.2 836.9,-5518.5L1087.7,-5643.9C1087.7,-5643.9 2529.42,-4538.25 3827.77,-3740.84L6430.3,-2337.1C6430.3,-2337.1 7217.28,-934.507 7084.9,-815.068C6973.6,-714.648 5761.36,-818.125 5460.4,-848.9C5453,-849.656 4629.81,-1451.86 2963.46,-2483.19Z" style="fill:rgb(255,98,0);"/>
        </g>
        <g transform="matrix(-0.0029863,0,0,0.00301278,32.1864,22.8317)">
            <path d="M-88.819,-3791.8C-67.834,-3776.39 -35.504,-3755.3 9.853,-3732.53C252.482,-3610.73 1485.26,-3006.76 2786.11,-2201.65C4276.37,-1279.3 5088.01,-702.39 5240.79,-595.677C5346.81,-521.622 5421.45,-519.202 5426.04,-518.733C5676.1,-493.162 6532.01,-420.966 6923.52,-445.831C7128.6,-458.855 7261.87,-525.903 7310.31,-569.61C7368.15,-621.796 7419.85,-699.629 7432.17,-814.867C7439.22,-880.781 7428.78,-987.776 7387.02,-1119.05C7247.21,-1558.5 6722.95,-2498.43 6722.95,-2498.43C6692.1,-2553.41 6646.11,-2598.58 6590.36,-2628.65C6590.36,-2628.65 3996.26,-4027.84 3993.97,-4029.24C2711.75,-4817.89 1292.61,-5906.42 1292.61,-5906.42C1190.52,-5984.71 1052.13,-5997.87 936.885,-5940.25L686.085,-5814.85C89.646,-5516.63 -227.56,-5018.52 -233.728,-4370.21C-238.644,-4169.58 -217.347,-3993.27 -203.058,-3951.36C-168.524,-3850.06 -107.34,-3801.49 -70.109,-3776.47L-88.819,-3791.8ZM2963.46,-2483.19C1504.46,-3386.19 130.4,-4038.7 117.8,-4051.2C105.3,-4059.6 96.9,-4201.7 101.1,-4364.7C105.3,-4883.1 360.3,-5280.2 836.9,-5518.5L1087.7,-5643.9C1087.7,-5643.9 2529.42,-4538.25 3827.77,-3740.84L6430.3,-2337.1C6430.3,-2337.1 7217.28,-934.507 7084.9,-815.068C6973.6,-714.648 5761.36,-818.125 5460.4,-848.9C5453,-849.656 4629.81,-1451.86 2963.46,-2483.19Z" style="fill:white;"/>
        </g>
    </g>
</svg>
