<?xml version="1.0" encoding="UTF-8" standalone="no"?>
<!DOCTYPE svg PUBLIC "-//W3C//DTD SVG 1.1//EN" "http://www.w3.org/Graphics/SVG/1.1/DTD/svg11.dtd">
<svg width="100%" height="100%" viewBox="0 0 36 36" version="1.1" xmlns="http://www.w3.org/2000/svg" xmlns:xlink="http://www.w3.org/1999/xlink" xml:space="preserve" xmlns:serif="http://www.serif.com/" style="fill-rule:evenodd;clip-rule:evenodd;stroke-linejoin:round;stroke-miterlimit:2;">
    <g transform="matrix(0.00306123,-8.30116e-35,8.30116e-35,-0.00306123,0.280124,9.96745)">
        <g>
            <g transform="matrix(1,1.09476e-47,-1.09476e-47,1,-736.712,51.3984)">
                <path d="M9707.7,2169.4C9707.7,2169.4 3617.54,2262.14 2522.17,2161.68C2423.83,2152.66 2356.55,2124.83 2321.45,2004.41C2284.75,1878.48 2249.8,659.559 2249.8,-117.4C2249.8,-1760.3 2249.9,-5589.6 2249.9,-6400.7C2249.9,-6922.52 2297.45,-7339.61 2317.54,-7459.99C2330.44,-7537.32 2421.3,-7529.4 2421.3,-7529.4L4586.8,-7529.4C6430.4,-7529.4 9035.57,-7617.26 9565.31,-7490.99C9727.52,-7452.32 9760.92,-7371.07 9783.87,-7221.07C9865.28,-6688.92 9900,-2838.8 9900,-1007.8L9900,1989.6L9803.9,2077.4L9707.7,2169.4Z" style="fill:rgb(255,87,87);fill-rule:nonzero;"/>
                <path d="M2289.71,-7233.57C2084.86,-7361.72 2416.42,-7848.91 2421.25,-7855.99C2336.92,-7855.31 2045.43,-7813.98 1995.33,-7513.77C1974.22,-7387.27 1923.23,-6949.04 1923.23,-6400.7C1923.23,-5589.6 1923.13,-1760.3 1923.13,-117.4C1923.13,693.158 1969.55,1964.43 2007.84,2095.81C2052.26,2248.24 2127.65,2335.05 2212.46,2393.62C2288.82,2446.35 2380.25,2476.7 2492.34,2486.98C3593.01,2587.93 9712.67,2496.03 9712.67,2496.03C9798.55,2494.72 9876.22,2460.38 9933.66,2405.2L10027,2316.06L10118.1,2232.77C10224.1,2135.98 10223.8,2034.07 10180.7,1943.64L10226.7,1989.6C10226.7,1989.6 10226.7,-1007.8 10226.7,-1007.8C10226.7,-2853.37 10188.8,-6734.08 10106.8,-7270.47C10079.9,-7446.01 10026.3,-7565.19 9934.94,-7655.21C9868.63,-7720.51 9778.77,-7775.92 9641.06,-7808.75C9103.24,-7936.95 6458.48,-7856.07 4586.8,-7856.07C4586.8,-7856.07 2421.3,-7856.07 2421.3,-7856.07L2423.39,-7855.98L2421.3,-7855.99L2421.3,-7529.4C2421.3,-7529.4 4586.8,-7529.4 4586.8,-7529.4C6430.4,-7529.4 9035.57,-7617.26 9565.31,-7490.99C9727.52,-7452.32 9760.92,-7371.07 9783.87,-7221.07C9865.28,-6688.92 9900,-2838.8 9900,-1007.8L9900,1989.6L9803.9,2077.4L9707.7,2169.4C9707.7,2169.4 3617.54,2262.14 2522.17,2161.68C2423.83,2152.66 2356.55,2124.83 2321.45,2004.41C2284.75,1878.48 2249.8,659.559 2249.8,-117.4C2249.8,-1760.3 2249.9,-5589.6 2249.9,-6400.7C2249.9,-6740.35 2270.05,-7035.63 2289.71,-7233.57Z" style="fill:white;"/>
            </g>
            <g transform="matrix(-0.975524,-2.34562e-34,2.34562e-34,-0.984174,10684,-4202.33)">
                <path d="M2963.46,-2483.19C1504.46,-3386.19 130.4,-4038.7 117.8,-4051.2C105.3,-4059.6 96.9,-4201.7 101.1,-4364.7C105.3,-4883.1 360.3,-5280.2 836.9,-5518.5L1087.7,-5643.9C1087.7,-5643.9 2529.42,-4538.25 3827.77,-3740.84L6430.3,-2337.1C6430.3,-2337.1 7217.28,-934.507 7084.9,-815.068C6973.6,-714.648 5761.36,-818.125 5460.4,-848.9C5453,-849.656 4629.81,-1451.86 2963.46,-2483.19Z" style="fill:rgb(151,0,0);fill-rule:nonzero;"/>
                <path d="M-89.91,-3792.69L-70.109,-3776.47C-107.34,-3801.49 -168.524,-3850.06 -203.058,-3951.36C-217.347,-3993.27 -238.644,-4169.58 -233.728,-4370.21C-227.56,-5018.52 89.646,-5516.63 686.085,-5814.85C686.085,-5814.85 936.885,-5940.25 936.885,-5940.25C1052.13,-5997.87 1190.52,-5984.71 1292.61,-5906.42C1292.61,-5906.42 2711.75,-4817.89 3993.97,-4029.24C3996.26,-4027.84 6590.36,-2628.65 6590.36,-2628.65C6646.11,-2598.58 6692.1,-2553.41 6722.95,-2498.43C6722.95,-2498.43 7247.21,-1558.5 7387.02,-1119.05C7428.78,-987.776 7439.22,-880.781 7432.17,-814.867C7419.85,-699.629 7368.15,-621.796 7310.31,-569.61C7261.87,-525.903 7128.6,-458.855 6923.52,-445.831C6532.01,-420.966 5676.1,-493.162 5426.04,-518.733C5421.45,-519.202 5346.81,-521.622 5240.79,-595.677C5088.01,-702.39 4276.38,-1279.29 2786.12,-2201.64L2786.1,-2201.66C1485.25,-3006.77 252.482,-3610.73 9.853,-3732.53C-36.331,-3755.71 -69.009,-3777.16 -89.91,-3792.69ZM2963.46,-2483.19C1504.46,-3386.19 130.4,-4038.7 117.8,-4051.2C105.3,-4059.6 96.9,-4201.7 101.1,-4364.7C105.3,-4883.1 360.3,-5280.2 836.9,-5518.5L1087.7,-5643.9C1087.7,-5643.9 2529.42,-4538.25 3827.77,-3740.84L6430.3,-2337.1C6430.3,-2337.1 7217.28,-934.507 7084.9,-815.068C6973.6,-714.648 5761.36,-818.125 5460.4,-848.9C5453,-849.656 4629.81,-1451.86 2963.46,-2483.19Z" style="fill:white;"/>
            </g>
        </g>
    </g>
</svg>
