<?xml version="1.0" encoding="UTF-8" standalone="no"?>
<!DOCTYPE svg PUBLIC "-//W3C//DTD SVG 1.1//EN" "http://www.w3.org/Graphics/SVG/1.1/DTD/svg11.dtd">
<svg width="100%" height="100%" viewBox="0 0 36 36" version="1.1" xmlns="http://www.w3.org/2000/svg" xmlns:xlink="http://www.w3.org/1999/xlink" xml:space="preserve" xmlns:serif="http://www.serif.com/" style="fill-rule:evenodd;clip-rule:evenodd;stroke-linejoin:round;stroke-miterlimit:2;">
    <g transform="matrix(0.00306123,-8.30116e-35,8.30116e-35,-0.00306123,0.693856,9.79591)">
        <g>
            <path d="M9707.7,2169.4C9707.7,2169.4 3617.54,2262.14 2522.17,2161.68C2423.83,2152.66 2356.55,2124.83 2321.45,2004.41C2284.75,1878.48 2249.8,659.559 2249.8,-117.4C2249.8,-1760.3 2249.9,-5589.6 2249.9,-6400.7C2249.9,-6922.52 2297.45,-7339.61 2317.54,-7459.99C2330.44,-7537.32 2421.3,-7529.4 2421.3,-7529.4L4586.8,-7529.4C6430.4,-7529.4 6777.3,-7521 6940.4,-7462.5C7220.5,-7370.5 7621.8,-7006.8 8650.2,-5928.3C9628.3,-4895.6 9770.4,-4695 9858.2,-4230.9C9883.3,-4093 9900,-2838.8 9900,-1007.8L9900,1989.6L9803.9,2077.4L9707.7,2169.4Z" style="fill:rgb(255,87,87);fill-rule:nonzero;"/>
            <path d="M2289.71,-7233.57C2084.86,-7361.72 2416.42,-7848.91 2421.25,-7855.99C2336.92,-7855.31 2045.43,-7813.98 1995.33,-7513.77C1974.22,-7387.27 1923.23,-6949.04 1923.23,-6400.7C1923.23,-5589.6 1923.13,-1760.3 1923.13,-117.4C1923.13,693.158 1969.55,1964.43 2007.84,2095.81C2052.26,2248.24 2127.65,2335.05 2212.46,2393.62C2288.82,2446.35 2380.25,2476.7 2492.34,2486.98C3593.01,2587.93 9712.67,2496.03 9712.67,2496.03C9798.55,2494.72 9876.22,2460.38 9933.66,2405.2L10027,2316.06L10118.1,2232.77C10224.1,2135.98 10223.8,2034.07 10180.7,1943.64L10226.7,1989.6L10226.7,-1007.8C10226.7,-2872.07 10205.1,-4148.99 10179.6,-4289.4C10179.5,-4290.14 10179.3,-4290.88 10179.2,-4291.62C10083.7,-4796.33 9951.06,-5029.87 8887.37,-6152.93C8887.12,-6153.2 8886.87,-6153.47 8886.61,-6153.73C7791.76,-7301.93 7344.67,-7672.01 7045.46,-7771.83C6872.43,-7831.74 6497.71,-7856.07 4586.8,-7856.07C4586.8,-7856.07 2421.3,-7856.07 2421.3,-7856.07L2423.39,-7855.98L2421.3,-7855.99L2421.3,-7529.4L4586.8,-7529.4C6430.4,-7529.4 6777.3,-7521 6940.4,-7462.5C7220.5,-7370.5 7621.8,-7006.8 8650.2,-5928.3C9628.3,-4895.6 9770.4,-4695 9858.2,-4230.9C9883.3,-4093 9900,-2838.8 9900,-1007.8L9900,1989.6L9803.9,2077.4L9707.7,2169.4C9707.7,2169.4 3617.54,2262.14 2522.17,2161.68C2423.83,2152.66 2356.55,2124.83 2321.45,2004.41C2284.75,1878.48 2249.8,659.559 2249.8,-117.4C2249.8,-1760.3 2249.9,-5589.6 2249.9,-6400.7C2249.9,-6740.35 2270.05,-7035.63 2289.71,-7233.57Z" style="fill:white;"/>
            <path d="M2963.46,-2483.19C1504.46,-3386.19 130.4,-4038.7 117.8,-4051.2C105.3,-4059.6 96.9,-4201.7 101.1,-4364.7C105.3,-4883.1 360.3,-5280.2 836.9,-5518.5L1087.7,-5643.9C1087.7,-5643.9 2529.42,-4538.25 3827.77,-3740.84L6430.3,-2337.1C6430.3,-2337.1 7217.28,-934.507 7084.9,-815.068C6973.6,-714.648 5761.36,-818.125 5460.4,-848.9C5453,-849.656 4629.81,-1451.86 2963.46,-2483.19Z" style="fill:rgb(151,0,0);fill-rule:nonzero;"/>
            <path d="M2877.49,-2344.31C1570.36,-3153.32 331.672,-3760.28 87.87,-3882.67C32.162,-3910.63 5.346,-3932.69 2.767,-3935.25L26.699,-3915.63C7.75,-3928.37 -22.838,-3953.36 -40.415,-4004.91C-52.763,-4041.14 -66.591,-4194.07 -62.214,-4367.55C-57.006,-4949.83 228.305,-5396.82 763.855,-5664.59C763.855,-5664.59 1014.65,-5789.99 1014.65,-5789.99C1070.56,-5817.94 1137.5,-5811.54 1187.1,-5773.51C1187.1,-5773.51 2616.75,-4677.01 3906.86,-3883.94C3909.41,-3882.38 6507.84,-2480.86 6507.84,-2480.86C6535.09,-2466.16 6557.59,-2444.02 6572.74,-2417.02C6572.74,-2417.02 7086.59,-1498.47 7223.3,-1068.74C7255.8,-966.582 7267.06,-883.778 7261.58,-832.482C7254.64,-767.594 7226.89,-723.184 7194.32,-693.8C7174.79,-676.179 7145.45,-657.338 7104.01,-643.836C7062.1,-630.179 6996.09,-619.377 6912.46,-614.066C6528.47,-589.679 5689.05,-661.335 5443.78,-686.414C5441.18,-686.68 5400.32,-691.07 5340.15,-733.095C5186.88,-840.155 4372.62,-1418.95 2877.52,-2344.3L2877.49,-2344.31ZM2963.46,-2483.19C1504.46,-3386.19 130.4,-4038.7 117.8,-4051.2C105.3,-4059.6 96.9,-4201.7 101.1,-4364.7C105.3,-4883.1 360.3,-5280.2 836.9,-5518.5L1087.7,-5643.9C1087.7,-5643.9 2529.42,-4538.25 3827.77,-3740.84L6430.3,-2337.1C6430.3,-2337.1 7217.28,-934.507 7084.9,-815.068C6973.6,-714.648 5761.36,-818.125 5460.4,-848.9C5453,-849.656 4629.81,-1451.86 2963.46,-2483.19Z" style="fill:white;"/>
        </g>
    </g>
</svg>
