<?xml version="1.0" encoding="UTF-8" standalone="no"?>
<svg width="100%" height="100%" viewBox="0 0 800 800" version="1.1" xmlns="http://www.w3.org/2000/svg"
     style="fill-rule:evenodd;clip-rule:evenodd;stroke-linejoin:round;stroke-miterlimit:2;">
    <g transform="matrix(0.750001,0,0,0.750001,102.083,99.9997)">
        <path fill="black" d="M650,500L650,666.667C650,703.333 620,733.333 583.333,733.333L183.333,733.333C146.667,733.333 116.667,703.333 116.667,666.667L116.667,133.333C116.667,96.667 146.667,66.667 183.333,66.667L583.333,66.667C620,66.667 650,96.667 650,133.333L650,300L450,300L450,142.608L143.991,400L450,657.392L450,500L650,500ZM400,450L400,550L221.667,400L400,250L400,350L700,350L700,450L400,450Z"/>
    </g>
</svg>
