<?xml version="1.0" encoding="UTF-8" standalone="no"?>
<!DOCTYPE svg PUBLIC "-//W3C//DTD SVG 1.1//EN" "http://www.w3.org/Graphics/SVG/1.1/DTD/svg11.dtd">
<svg width="100%" height="100%" viewBox="0 0 800 800" version="1.1" xmlns="http://www.w3.org/2000/svg"
     xmlns:xlink="http://www.w3.org/1999/xlink" xml:space="preserve" xmlns:serif="http://www.serif.com/"
     style="fill-rule:evenodd;clip-rule:evenodd;stroke-linejoin:round;stroke-miterlimit:2;">
    <g transform="matrix(24.0385,0,0,24.0385,111.538,111.538)">
        <path d="M12,22.4C6.256,22.4 1.6,17.744 1.6,12C1.6,6.256 6.256,1.6 12,1.6C17.744,1.6 22.4,6.256 22.4,12C22.4,17.744 17.744,22.4 12,22.4ZM12,19.6C16.197,19.6 19.6,16.197 19.6,12C19.6,7.803 16.197,4.4 12,4.4C7.803,4.4 4.4,7.803 4.4,12C4.4,16.197 7.803,19.6 12,19.6ZM13.45,7.661L13.45,7.761C13.45,8.533 12.825,9.159 12.053,9.161L11.953,9.161C11.581,9.162 11.224,9.015 10.961,8.752C10.698,8.49 10.55,8.133 10.55,7.761L10.55,7.661C10.55,6.888 11.177,6.261 11.95,6.261L12.05,6.261C12.823,6.261 13.45,6.888 13.45,7.661ZM10.6,11.339C10.6,10.566 11.227,9.939 12,9.939C12.773,9.939 13.4,10.566 13.4,11.339L13.4,16.339C13.4,17.112 12.773,17.739 12,17.739C11.227,17.739 10.6,17.112 10.6,16.339L10.6,11.339Z"/>
    </g>
</svg>
