<?xml version="1.0" encoding="UTF-8" standalone="no"?>
<!DOCTYPE svg PUBLIC "-//W3C//DTD SVG 1.1//EN" "http://www.w3.org/Graphics/SVG/1.1/DTD/svg11.dtd">
<svg width="100%" height="100%" viewBox="0 0 693 504" version="1.1" xmlns="http://www.w3.org/2000/svg" xmlns:xlink="http://www.w3.org/1999/xlink" xml:space="preserve" xmlns:serif="http://www.serif.com/" style="fill-rule:evenodd;clip-rule:evenodd;stroke-linejoin:round;stroke-miterlimit:2;">
    <g transform="matrix(1,0,0,1,-106.185,-106.185)">
        <g transform="matrix(1,0,0,1,52.3274,-41.9636)">
            <path d="M282.296,563.495C296.013,550.691 317.546,551.432 330.351,565.15C343.155,578.867 342.414,600.4 328.696,613.205C318.341,622.87 310.192,629.166 302.001,633.897L301.999,633.898C260.538,657.836 209.458,657.835 167.999,633.898C154.895,626.332 141.868,614.224 116.677,589.035C91.484,563.842 79.376,550.814 71.81,537.709C47.874,496.249 47.874,445.169 71.811,403.71C79.376,390.608 91.484,377.581 116.676,352.388L210.957,258.107C236.148,232.917 249.175,220.808 262.279,213.242C303.74,189.306 354.821,189.306 396.282,213.243C409.383,220.809 422.41,232.917 447.601,258.107C472.793,283.299 484.902,296.326 492.467,309.429C516.405,350.889 516.406,401.971 492.467,443.432L492.466,443.434C487.735,451.625 481.437,459.779 471.764,470.135C458.955,483.849 437.422,484.583 423.709,471.774C409.995,458.965 409.261,437.432 422.07,423.719C427.323,418.094 431.01,413.876 433.58,409.427C445.368,389.008 445.368,363.85 433.579,343.431C427.977,333.73 418.169,324.841 399.519,306.191C380.868,287.541 371.978,277.733 362.279,272.131C341.859,260.342 316.7,260.343 296.279,272.132C286.579,277.733 277.69,287.541 259.041,306.191L164.76,400.472C146.109,419.122 136.301,428.011 130.701,437.711C118.911,458.131 118.911,483.289 130.702,503.711L130.703,503.713C136.302,513.414 146.11,522.302 164.759,540.951C183.409,559.599 192.298,569.407 201.999,575.008C222.419,586.798 247.576,586.798 267.996,575.01C272.448,572.439 276.667,568.75 282.296,563.495ZM328.216,329.865C341.025,316.151 362.558,315.417 376.271,328.226C389.985,341.035 390.719,362.568 377.91,376.281C372.657,381.905 368.97,386.124 366.401,390.572C354.613,410.992 354.614,436.151 366.402,456.571C372.003,466.272 381.811,475.161 400.461,493.808C419.112,512.459 428.002,522.268 437.702,527.869C458.121,539.658 483.28,539.658 503.701,527.868C513.402,522.267 522.291,512.458 540.941,493.808L635.221,399.528C653.87,380.88 663.678,371.992 669.277,362.291L669.278,362.289C681.068,341.869 681.068,316.711 669.277,296.287L669.275,296.284C663.677,286.585 653.869,277.698 635.222,259.051C616.571,240.401 607.682,230.592 597.983,224.992C577.561,213.202 552.404,213.201 531.981,224.993L531.977,224.995C527.526,227.564 523.311,231.253 517.683,236.506C503.966,249.311 482.433,248.57 469.629,234.852C456.824,221.135 457.565,199.602 471.283,186.798C481.642,177.127 489.792,170.83 497.986,166.101C539.445,142.165 590.52,142.165 631.983,166.102C645.085,173.667 658.112,185.775 683.304,210.967C708.497,236.159 720.606,249.188 728.169,262.293C752.105,303.751 752.105,354.83 728.169,396.289C720.606,409.391 708.497,422.419 683.305,447.612L589.025,541.892C563.832,567.084 550.805,579.192 537.7,586.758C496.24,610.696 445.159,610.695 403.698,586.757C390.597,579.191 377.57,567.083 352.379,541.892C327.186,516.703 315.078,503.675 307.512,490.569C283.577,449.11 283.577,398.03 307.513,356.568L307.514,356.566C312.245,348.375 318.543,340.221 328.216,329.865Z"/>
        </g>
    </g>
</svg>
