<?xml version="1.0" encoding="UTF-8" standalone="no"?>
<svg width="100%" height="100%" viewBox="0 0 800 800" version="1.1" xmlns="http://www.w3.org/2000/svg"
     style="fill-rule:evenodd;clip-rule:evenodd;stroke-linejoin:round;stroke-miterlimit:2;">
    <g transform="matrix(25,0,0,25,100,100)">
        <path fill="black" d="M20.163,4.093C21.184,4.396 22,5.509 22,6.622L22,17.245C22,18.459 21.286,19.471 20.163,19.875L15.061,21.798C14.755,21.899 14.347,22 14.041,22C13.429,22 12.918,21.798 12.408,21.494C12.204,21.393 12,21.09 11.796,20.887L7.918,20.887C6.286,20.887 5.061,19.572 5.061,18.054L5.061,17.043C5.061,16.638 5.367,16.334 5.878,16.334C6.388,16.334 6.694,16.739 6.694,17.144L6.694,18.156C6.694,18.763 7.204,19.37 7.918,19.37L11.286,19.37L11.286,4.7L7.918,4.7C7.306,4.7 6.694,5.206 6.694,5.914L6.694,6.926C6.694,7.33 6.388,7.735 5.878,7.735C5.367,7.735 5.061,7.33 5.061,6.926L5.061,5.914C5.061,4.396 6.388,3.081 7.918,3.081L11.796,3.081C12,2.879 12.204,2.677 12.51,2.474C13.224,1.968 14.143,1.867 15.061,2.171L20.163,4.093ZM6.388,13.502L7.102,12.996L2.816,12.996C2.306,12.996 2,12.692 2,12.186C2,11.681 2.408,11.377 2.816,11.377L7,11.377L6.286,10.669C5.98,10.365 5.98,9.86 6.286,9.556C6.592,9.253 7.102,9.253 7.408,9.556C7.408,9.556 9.755,11.409 9.755,12.085C9.755,12.761 7.408,14.615 7.408,14.615C7.306,14.716 7.102,14.817 6.898,14.817C6.694,14.817 6.49,14.716 6.388,14.615C6.082,14.311 6.082,13.805 6.388,13.502Z"/>
    </g>
</svg>
