<svg fill="#ffffff" height="800" viewBox="0 0 24 24" width="800" xmlns="http://www.w3.org/2000/svg">
    <g>
        <path d="m20.1633 4.09295-5.1021-1.92223c-.9183-.30351-1.8367-.20234-2.551.30351-.3061.20234-.5102.40468-.7143.60702h-3.87753c-1.53061 0-2.85715 1.31521-2.85715 2.83276v1.01169c0 .40468.30613.80936.81633.80936.51021 0 .81633-.40468.81633-.80936v-1.01169c0-.70819.61224-1.21404 1.22449-1.21404h3.36733v14.66963h-3.36733c-.71429 0-1.22449-.607-1.22449-1.2141v-1.0116c0-.4047-.30612-.8094-.81633-.8094-.5102 0-.81633.3035-.81633.7082v1.0117c0 1.5175 1.2245 2.8327 2.85715 2.8327h3.87753c.2041.2024.4082.5059.6123.6071.5102.3035 1.0204.5058 1.6326.5058.3061 0 .7143-.1012 1.0204-.2023l5.1021-1.9223c1.1224-.4046 1.8367-1.4163 1.8367-2.6304v-10.62281c0-1.11286-.8163-2.22573-1.8367-2.52924z"/>
        <path d="m6.38776 13.5017c-.30613.3035-.30613.8094 0 1.1129.10204.1012.30612.2023.5102.2023s.40816-.1011.5102-.2023l2.04082-2.0234c.10204-.1012.10204-.2023.20408-.2023 0-.1012.10204-.2024.10204-.3035 0-.1012 0-.2024-.10204-.3035 0-.1012-.10204-.2024-.20408-.2024l-2.04082-2.02338c-.30612-.30351-.81632-.30351-1.12245 0-.30612.30351-.30612.80938 0 1.11288l.71429.7082h-4.18367c-.40817 0-.81633.3035-.81633.8093 0 .5059.30612.8094.81633.8094h4.28571z"/>
    </g>
</svg>