<svg clip-rule="evenodd" fill-rule="evenodd" stroke-linecap="round" stroke-linejoin="round" stroke-miterlimit="1.5" viewBox="0 0 130 36" xmlns="http://www.w3.org/2000/svg"><g transform="matrix(.00306122 0 0 -.00306122 -2.774941 9.810104)"><path d="m9707.7 2169.4s-6090.16 92.74-7185.53-7.72c-98.34-9.02-165.62-36.85-200.72-157.27-36.7-125.93-71.65-1344.851-71.65-2121.81 0-1642.9.1-5472.2.1-6283.3 0-521.82 47.55-938.91 67.64-1059.29 12.9-77.33 103.76-69.41 103.76-69.41h2165.5c1843.6 0 4448.77-87.86 4978.51 38.41 162.21 38.67 195.61 119.92 218.56 269.92 81.41 532.15 116.13 4382.27 116.13 6213.27v2997.4c1.78 120.38-65.83 173.61-192.3 179.8z" fill="#00a81c"/><path d="m2421.3-7856.07c-84.23.76-375.86 42.01-425.97 342.3-21.11 126.5-72.1 564.73-72.1 1113.07 0 811.1-.1 4640.4-.1 6283.3 0 810.558 46.42 2081.83 84.71 2213.21 44.42 152.43 119.81 239.24 204.62 297.81 76.36 52.73 167.79 83.08 279.88 93.36 1100.67 100.95 7220.33 9.05 7220.33 9.05 3.67-.06 7.33-.17 10.99-.35 154.2-7.55 267.13-59.11 346.34-130.14 94.1-84.32 158.2-203.38 156.7-376.75v-2996.59c0-1845.57-37.9-5726.28-119.9-6262.67-26.9-175.54-80.5-294.72-171.86-384.74-66.31-65.3-156.17-120.71-293.88-153.54-537.82-128.2-3182.58-47.32-5054.26-47.32l-2155.16.22c-3.37-.1-6.82-.17-10.34-.22v326.67h2165.5c1843.6 0 4448.77-87.86 4978.51 38.41 162.21 38.67 195.61 119.92 218.56 269.92 81.41 532.15 116.13 4382.27 116.13 6213.27v2997.4c1.78 120.38-65.83 173.61-192.3 179.8 0 0-6090.16 92.74-7185.53-7.72-98.34-9.02-165.62-36.85-200.72-157.27-36.7-125.93-71.65-1344.851-71.65-2121.81 0-1642.9.1-5472.2.1-6283.3 0-339.58 20.14-634.81 39.74-832.78-206.25-129.23 131.66-622.59 131.66-622.59z" fill="#fff"/></g><g transform="matrix(-.0029863 0 0 .00301278 32.186414 22.831718)"><path d="m2963.46-2483.19c-1459-903-2833.06-1555.51-2845.66-1568.01-12.5-8.4-20.9-150.5-16.7-313.5 4.2-518.4 259.2-915.5 735.8-1153.8l250.8-125.4s1441.72 1105.65 2740.07 1903.06l2602.53 1403.74s786.98 1402.593 654.6 1522.032c-111.3 100.42-1323.54-3.057-1624.5-33.832-7.4-.756-830.59-602.96-2496.94-1634.29z" fill="#00361c"/><path d="m-88.819-3791.8c20.985 15.41 53.315 36.5 98.672 59.27 242.629 121.8 1475.407 725.77 2776.257 1530.88 1490.26 922.35 2301.9 1499.26 2454.68 1605.973 106.02 74.055 180.66 76.475 185.25 76.944 250.06 25.571 1105.97 97.767 1497.48 72.902 205.08-13.024 338.35-80.072 386.79-123.779 57.84-52.186 109.54-130.019 121.86-245.257 7.05-65.914-3.39-172.909-45.15-304.183-139.81-439.45-664.07-1379.38-664.07-1379.38-30.85-54.98-76.84-100.15-132.59-130.22 0 0-2594.1-1399.19-2596.39-1400.59-1282.22-788.65-2701.36-1877.18-2701.36-1877.18-102.09-78.29-240.48-91.45-355.725-33.83l-250.8 125.4c-596.439 298.22-913.645 796.33-919.813 1444.64-4.916 200.63 16.381 376.94 30.67 418.85 34.534 101.3 95.718 149.87 132.949 174.89zm3052.279 1308.61c-1459-903-2833.06-1555.51-2845.66-1568.01-12.5-8.4-20.9-150.5-16.7-313.5 4.2-518.4 259.2-915.5 735.8-1153.8l250.8-125.4s1441.72 1105.65 2740.07 1903.06l2602.53 1403.74s786.98 1402.593 654.6 1522.032c-111.3 100.42-1323.54-3.057-1624.5-33.832-7.4-.756-830.59-602.96-2496.94-1634.29z" fill="#fff"/></g><g fill="none"><path d="m7.025 7.976c0-.101.094-.179.141-.269.161-.31.37-.609.552-.905.018-.03.099-.207.155-.254.033-.029.099-.129.099-.085 0 .663.085 1.316.085 1.98v.848c0 .034.008.244.085.184.497-.387.934-1.068 1.485-1.343.051-.026.101.058.141.099.131.13.273.268.467.311.222.049.227-.22.368-.255.276-.069.56.183.863.085.467-.151.764-.459 1.145-.75.062-.047.257-.248.382-.198.126.051.154.158.241.241.235.224.52.479.778.65.104.07.356-.292.41-.339.324-.28.714-.51 1.131-.608.093-.022.204-.095.283-.043.114.076.111.289.141.411.058.231.284.874.621.916.699.088 1.131-.902 1.77-1.044.316-.07.47.583.778.651.186.041.354-.093.537-.113.317-.035.644.014.962.014" stroke="#fff" transform="matrix(.9999996 0 0 .9999996 .000001 -0)"/><path d="m6.756 14.921c.077-.052.038-.153.042-.241.012-.217.022-.434.043-.651.037-.4.129-.824.356-1.164.057-.086.204-.279.323-.292.756-.088.758.772 1.159 1.174.1.099.641-.158.708-.17.193-.035.251.258.452.325.322.108 1.007.061 1.287-.014.215-.058.526-.166.679-.339.066-.075.073-.31.156-.255.394.263 1.232.536 1.626.339" stroke="#fff" transform="matrix(.9999996 0 0 .9999996 .000001 -0)"/><path d="m32.9999874 5.99999732h19.999992v15.9999936h-19.999992z"/></g><g fill="#00a81c" fill-rule="nonzero" transform="matrix(1.31431614 0 0 .60803309 -7.372365 6.447364)"><path d="m35.29 34.551c-.377 0-.656-.212-.835-.636-.179-.423-.268-.985-.268-1.685 0-.542.027-1.082.082-1.618.055-.537.12-1.204.196-2.002.075-.797.14-1.84.195-3.129.055-1.29.082-2.95.082-4.982 0-1.131-.015-2.309-.045-3.533-.031-1.223-.064-2.394-.101-3.513-.036-1.118-.07-2.092-.1-2.92-.031-.829-.046-1.402-.046-1.717 0-.79.103-1.461.31-2.014.207-.552.512-.828.913-.828.509 0 .984.3 1.425.899.44.6.851 1.419 1.232 2.456s.74 2.209 1.078 3.517c.337 1.307.658 2.665.964 4.073.305 1.408.603 2.795.894 4.16.291 1.366.577 2.627.859 3.782.281 1.155.567 2.125.858 2.909s.59 1.302.897 1.555l-1.253 1.279c.161-.321.31-.699.449-1.133s.251-1.013.336-1.737.128-1.675.128-2.854c0-1.568-.021-3.073-.064-4.515s-.076-2.84-.1-4.192c-.025-1.353-.02-2.672.012-3.959.033-1.287.121-2.575.265-3.864.105-.868.241-1.488.409-1.859s.393-.557.676-.557c.37 0 .651.215.843.643.193.429.318.942.377 1.54.058.597.059 1.17.003 1.717-.122 1.263-.197 2.465-.226 3.607s-.035 2.277-.018 3.403.039 2.307.067 3.541.042 2.588.042 4.061c0 1.953-.054 3.691-.163 5.214-.108 1.524-.328 2.721-.66 3.592-.333.871-.831 1.307-1.496 1.307-.477 0-.905-.267-1.284-.801-.378-.535-.726-1.272-1.042-2.211-.317-.939-.615-2.015-.895-3.229-.28-1.213-.557-2.506-.831-3.88-.274-1.373-.562-2.768-.864-4.184-.301-1.415-.628-2.784-.98-4.105s-.748-2.529-1.189-3.623l.42-.206c.078 1.2.134 2.265.17 3.194.035.929.061 1.791.078 2.585.017.795.026 1.595.026 2.4 0 2.474-.051 4.718-.153 6.734-.103 2.016-.26 3.795-.472 5.336-.07.611-.205 1.094-.405 1.449s-.465.533-.796.533z"/><path d="m52.568 34.472c-1.013 0-1.912-.449-2.699-1.346-.786-.897-1.404-2.138-1.852-3.722s-.672-3.395-.672-5.431c0-1.384.131-2.688.393-3.912.262-1.223.6-2.305 1.015-3.244.415-.94.861-1.676 1.337-2.207.476-.532.925-.798 1.346-.798.185 0 .355.062.509.186.155.124.28.316.375.576.094.261.142.615.142 1.062 0 .8-.077 1.508-.23 2.124-.154.616-.465 1.118-.935 1.507-.309.337-.579.745-.809 1.224s-.41 1.02-.541 1.622c-.13.603-.195 1.241-.195 1.915 0 1.711.247 3.085.741 4.125.495 1.039 1.161 1.559 1.998 1.559.704 0 1.275-.529 1.713-1.587s.657-2.463.657-4.215c0-1.558-.187-2.794-.562-3.707s-.874-1.37-1.497-1.37c-.319 0-.58.158-.782.474s-.425.737-.668 1.263c-.18.389-.329.717-.448.983-.118.266-.236.466-.356.6-.119.134-.269.201-.449.201-.202 0-.375-.159-.52-.477-.145-.319-.218-.912-.218-1.781 0-.699.093-1.411.278-2.135.185-.723.431-1.384.738-1.981.306-.598.65-1.081 1.03-1.449.379-.369.766-.553 1.161-.553.979 0 1.817.402 2.514 1.204.698.803 1.232 1.938 1.604 3.407.371 1.468.556 3.21.556 5.226 0 2.015-.205 3.828-.617 5.439-.411 1.61-.967 2.883-1.669 3.817-.701.934-1.497 1.401-2.388 1.401z"/><path d="m62.556 34.511c-1.027 0-1.852-.494-2.476-1.484-.623-.989-1.072-2.379-1.346-4.168-.273-1.789-.41-3.865-.41-6.228 0-1.353.031-2.564.093-3.632s.127-2.09.195-3.067c.068-.976.115-2.001.139-3.074.029-1.148.033-2.079.011-2.795s-.026-1.395-.011-2.037c.01-.558.095-1.053.257-1.484.162-.432.425-.647.788-.647.501 0 .87.476 1.106 1.429.236.952.33 2.508.281 4.665-.029.858-.069 1.676-.12 2.455-.052.779-.104 1.567-.157 2.365-.054.797-.1 1.649-.139 2.557s-.059 1.928-.059 3.059c0 1.737.079 3.118.238 4.145.158 1.026.393 1.758.706 2.194.313.437.702.656 1.167.656.29 0 .52-.062.691-.186.17-.123.32-.244.449-.363.129-.118.276-.177.442-.177.25 0 .442.163.573.489.132.326.197.816.197 1.468 0 1.053-.209 1.959-.628 2.72-.419.76-1.081 1.14-1.987 1.14zm-2.052-14.367c-.443.405-.786.401-1.028-.012s-.364-1.009-.364-1.788c0-.695.066-1.318.198-1.871.131-.553.46-1.037.986-1.452.477-.385 1.01-.693 1.597-.924.588-.232 1.144-.348 1.668-.348.589 0 1.007.249 1.254.746.247.498.371 1.136.371 1.915 0 .589-.084 1.042-.25 1.358-.167.315-.395.5-.685.552-.536.079-1.01.192-1.423.34-.412.147-.8.339-1.163.576s-.75.539-1.161.908z"/><path d="m69.408 34.393c-1.018 0-1.85-.375-2.496-1.125-.647-.75-1.123-1.776-1.428-3.079-.306-1.302-.459-2.796-.459-4.48 0-1.394.121-2.796.362-4.203.241-1.408.587-2.698 1.037-3.869.451-1.171.992-2.111 1.625-2.822.633-.71 1.342-1.066 2.126-1.066.652 0 1.224.243 1.714.727.491.484.875 1.205 1.153 2.163.277.957.416 2.152.416 3.584 0 1.458-.208 2.671-.623 3.639s-.972 1.695-1.671 2.179c-.698.484-1.474.726-2.326.726-.682 0-1.189-.245-1.521-.734-.332-.49-.499-1.05-.499-1.682 0-.352.039-.616.117-.793.078-.176.21-.264.395-.264.134 0 .295.04.484.122.188.082.451.122.787.122.472 0 .905-.133 1.3-.398.394-.266.714-.636.959-1.11.244-.473.367-1.01.367-1.61 0-.684-.08-1.197-.24-1.539-.159-.342-.426-.513-.801-.513-.412 0-.789.223-1.133.671-.343.447-.641 1.048-.894 1.804-.254.755-.449 1.613-.587 2.573-.137.961-.206 1.954-.206 2.98 0 .721.059 1.354.177 1.899.119.545.315.966.59 1.263s.645.446 1.11.446c.689 0 1.267-.15 1.732-.45.464-.3.853-.646 1.164-1.038.312-.392.581-.738.806-1.038s.442-.45.652-.45c.214 0 .369.143.465.43s.144.722.144 1.307c0 .631-.12 1.281-.361 1.95-.241.668-.577 1.276-1.008 1.823s-.938.993-1.521 1.338-1.219.517-1.908.517z"/><path d="m77.19 34.37c-.433 0-.776-.339-1.03-1.015-.253-.676-.379-1.691-.379-3.043 0-1.205-.014-2.271-.042-3.197-.028-.927-.061-1.78-.099-2.562s-.077-1.55-.119-2.305c-.041-.756-.076-1.553-.104-2.392-.028-.84-.042-1.783-.042-2.83 0-2.021.129-3.83.385-5.428.257-1.597.61-2.963 1.06-4.097.449-1.134.958-2.001 1.526-2.601.569-.6 1.161-.9 1.777-.9.329 0 .63.192.906.576.275.385.412 1.021.412 1.911 0 .526-.063.967-.19 1.322-.126.355-.317.617-.573.785-.635.39-1.149.857-1.541 1.402-.392.544-.688 1.203-.888 1.977-.199.774-.334 1.692-.405 2.756-.071 1.063-.106 2.323-.106 3.78 0 .853.023 1.714.068 2.582.045.869.099 1.793.162 2.775.063.981.118 2.064.163 3.248s.067 2.505.067 3.963c0 1.305-.081 2.18-.244 2.625-.164.445-.418.668-.764.668zm-.201-14.494c-.282 0-.517-.164-.704-.49-.188-.327-.282-.748-.282-1.263 0-.737.092-1.405.276-2.005s.452-1.024.805-1.271c.463-.3.9-.52 1.312-.659.411-.14.81-.21 1.197-.21.292 0 .541.112.747.336.206.223.362.539.468.947s.159.896.159 1.465c0 .463-.063.863-.188 1.199-.126.337-.325.521-.598.553-.54.063-.987.171-1.34.324-.353.152-.641.309-.864.469-.222.161-.409.302-.56.423s-.294.182-.428.182z"/><path d="m86.021 34.472c-1.013 0-1.912-.449-2.699-1.346-.786-.897-1.403-2.138-1.851-3.722s-.673-3.395-.673-5.431c0-1.384.131-2.688.393-3.912.262-1.223.6-2.305 1.015-3.244.416-.94.861-1.676 1.337-2.207.476-.532.925-.798 1.346-.798.185 0 .355.062.509.186.155.124.28.316.375.576.095.261.142.615.142 1.062 0 .8-.077 1.508-.23 2.124s-.465 1.118-.935 1.507c-.309.337-.579.745-.809 1.224s-.41 1.02-.54 1.622c-.131.603-.196 1.241-.196 1.915 0 1.711.247 3.085.742 4.125.494 1.039 1.16 1.559 1.998 1.559.703 0 1.274-.529 1.712-1.587.439-1.058.658-2.463.658-4.215 0-1.558-.188-2.794-.563-3.707s-.874-1.37-1.497-1.37c-.319 0-.58.158-.782.474s-.425.737-.668 1.263c-.18.389-.329.717-.447.983-.119.266-.237.466-.357.6-.119.134-.268.201-.449.201-.202 0-.375-.159-.52-.477-.145-.319-.217-.912-.217-1.781 0-.699.092-1.411.277-2.135.185-.723.431-1.384.738-1.981.307-.598.65-1.081 1.03-1.449.38-.369.767-.553 1.161-.553.979 0 1.817.402 2.515 1.204.697.803 1.231 1.938 1.603 3.407.371 1.468.557 3.21.557 5.226 0 2.015-.206 3.828-.617 5.439-.412 1.61-.968 2.883-1.669 3.817-.702.934-1.498 1.401-2.389 1.401z"/><path d="m92.306 34.606c-.229 0-.42-.131-.575-.394s-.246-.671-.276-1.224c-.029-.552.027-1.255.169-2.108.146-.947.387-2.055.724-3.323.338-1.268.757-2.605 1.259-4.011.501-1.405 1.068-2.792 1.701-4.16s1.313-2.618 2.038-3.75c.307-.505.578-.896.815-1.172.236-.277.449-.47.639-.58.19-.111.363-.166.518-.166.288 0 .529.211.725.632s.294 1.031.294 1.831c0 .552-.064 1.022-.193 1.409s-.311.733-.544 1.038c-.826 1.063-1.597 2.337-2.312 3.821-.716 1.484-1.376 3.096-1.98 4.835-.604 1.74-1.16 3.514-1.669 5.325-.209.726-.423 1.241-.641 1.544-.218.302-.448.453-.692.453zm7.009-.055c-.263 0-.509-.145-.736-.434-.228-.29-.47-.845-.725-1.666-.343-1.089-.741-2.247-1.194-3.473-.453-1.227-.93-2.438-1.432-3.636-.502-1.197-.999-2.323-1.494-3.378-.494-1.056-.958-1.962-1.391-2.72-.3-.526-.536-1.016-.709-1.468-.173-.453-.259-1.016-.259-1.69 0-.663.081-1.221.243-1.674.162-.452.399-.679.71-.679.244 0 .471.123.683.368s.497.688.855 1.33c.251.452.568 1.089.951 1.91.384.821.795 1.742 1.235 2.763.439 1.021.875 2.067 1.309 3.138.433 1.071.836 2.086 1.207 3.044.371.957.67 1.786.896 2.486.368 1.121.604 1.975.709 2.562s.157 1.064.157 1.433c0 .568-.091 1.008-.272 1.318-.182.311-.429.466-.743.466z"/></g></svg>