<svg  fill="#ffffff" height="800" viewBox="0 0 24 24" width="800" xmlns="http://www.w3.org/2000/svg">
    <g>
        <path d="m22 6.62219v10.62281c0 1.1129-.7143 2.2258-1.8367 2.6304l-5.1021 1.9223c-.3061.1011-.6122.2023-1.0204.2023-.5102 0-1.1224-.2023-1.6326-.5058-.2041-.2024-.5102-.4047-.6123-.6071h-3.87753c-1.53061 0-2.85715-1.214-2.85715-2.8327v-1.0117c0-.4047.30613-.8094.81633-.8094.51021 0 .81633.3035.81633.8094v1.0117c0 .7082.61224 1.214 1.22449 1.214h3.36733v-14.56843h-3.36733c-.71429 0-1.22449.50585-1.22449 1.21404v1.01169c0 .40468-.30612.80936-.81633.80936-.5102 0-.81633-.40468-.81633-.80936v-1.01169c0-1.51755 1.2245-2.83276 2.85715-2.83276h3.87753c.2041-.20234.4082-.40468.6123-.60702.8163-.50585 1.7347-.60702 2.653-.30351l5.1021 1.92223c1.0204.30351 1.8367 1.41638 1.8367 2.52924z"/>
        <path d="m4.85714 14.8169c-.20408 0-.40816-.1011-.5102-.2023l-2.04082-2.0234c-.10204-.1012-.10204-.2023-.20408-.2023 0-.1012-.10204-.2024-.10204-.3035 0-.1012 0-.2024.10204-.3035 0-.1012.10204-.2024.20408-.2024l2.04082-2.02338c.30612-.30351.81633-.30351 1.12245 0s.30612.80938 0 1.11288l-.71429.7082h4.18368c.40816 0 .81632.3035.81632.8093 0 .5059-.40816.6071-.81632.6071h-4.28572l.71429.7081c.30612.3035.30612.8094 0 1.1129-.10204.1012-.30613.2023-.51021.2023z"/>
    </g>
</svg>