<?xml version="1.0" encoding="UTF-8" standalone="no"?>
<svg width="100%" height="100%" viewBox="0 0 800 800" version="1.1" xmlns="http://www.w3.org/2000/svg"
     style="fill-rule:evenodd;clip-rule:evenodd;stroke-linejoin:round;stroke-miterlimit:2;">
    <g transform="matrix(25,0,0,25,100,100)">
        <path fill="black"
              d="M22,6.622L22,17.245C22,18.358 21.286,19.471 20.163,19.875L15.061,21.798C14.755,21.899 14.449,22 14.041,22C13.531,22 12.918,21.798 12.408,21.494C12.204,21.292 11.898,21.09 11.796,20.887L7.918,20.887C6.388,20.887 5.061,19.673 5.061,18.054L5.061,17.043C5.061,16.638 5.367,16.233 5.878,16.233C6.388,16.233 6.694,16.537 6.694,17.043L6.694,18.054C6.694,18.763 7.306,19.268 7.918,19.268L11.286,19.268L11.286,4.7L7.918,4.7C7.204,4.7 6.694,5.206 6.694,5.914L6.694,6.926C6.694,7.33 6.388,7.735 5.878,7.735C5.367,7.735 5.061,7.33 5.061,6.926L5.061,5.914C5.061,4.396 6.286,3.081 7.918,3.081L11.796,3.081L12.408,2.474C13.224,1.968 14.143,1.867 15.061,2.171L20.163,4.093C21.184,4.396 22,5.509 22,6.622ZM4.857,14.817C4.653,14.817 4.449,14.716 4.347,14.615C4.347,14.615 2,12.928 2,12.085C2,11.242 4.347,9.556 4.347,9.556C4.653,9.253 5.163,9.253 5.469,9.556C5.776,9.86 5.776,10.365 5.469,10.669L4.755,11.377L8.939,11.377C9.347,11.377 9.755,11.681 9.755,12.187C9.755,12.692 9.347,12.794 8.939,12.794L4.653,12.794L5.367,13.502C5.673,13.805 5.673,14.311 5.367,14.615C5.265,14.716 5.061,14.817 4.857,14.817Z"/>
    </g>
</svg>
