<?xml version="1.0" encoding="UTF-8" standalone="no"?>
<!DOCTYPE svg PUBLIC "-//W3C//DTD SVG 1.1//EN" "http://www.w3.org/Graphics/SVG/1.1/DTD/svg11.dtd">
<svg width="100%" height="100%" viewBox="0 0 124 35" version="1.1" xmlns="http://www.w3.org/2000/svg"
     xmlns:xlink="http://www.w3.org/1999/xlink" xml:space="preserve" xmlns:serif="http://www.serif.com/"
     style="fill-rule:evenodd;clip-rule:evenodd;stroke-linejoin:round;stroke-miterlimit:2;">
    <g transform="matrix(1,0,0,1,-49.2854,-48.2291)">
        <g id="Notefox-5.0---logo---not-enabled" serif:id="Notefox 5.0 - logo - not enabled"
           transform="matrix(0.980713,0,0,1.00072,47.6348,47.1971)">
            <rect x="1.683" y="1.031" width="125.685" height="34.475" style="fill:none;"/>
            <g>
                <g transform="matrix(1.01967,0,0,0.999278,4.82459,10.9861)">
                    <path d="M35.59,-0.142C35.587,-0.146 35.584,-0.149 35.581,-0.153C35.191,-0.637 34.803,-0.998 34.417,-1.236C34.031,-1.474 33.726,-1.673 33.502,-1.833C33.885,-2.089 34.245,-2.269 34.582,-2.373C34.919,-2.477 35.229,-2.529 35.512,-2.529C36.063,-2.529 36.574,-2.426 37.045,-2.22C37.517,-2.014 37.936,-1.637 38.302,-1.089C38.579,-0.677 39.028,0.098 39.65,1.236C40.272,2.374 41.03,3.847 41.926,5.655C42.454,6.727 42.986,7.815 43.522,8.919C44.058,10.023 44.604,11.067 45.159,12.051C45.433,12.537 45.71,12.992 45.991,13.417C46.019,12.716 46.076,11.973 46.163,11.187C46.291,10.027 46.443,8.803 46.619,7.515C46.795,6.227 46.947,4.903 47.075,3.543C47.203,2.183 47.267,0.815 47.267,-0.561C47.267,-0.881 47.259,-1.209 47.243,-1.545C47.227,-1.881 47.203,-2.201 47.171,-2.505C47.679,-2.505 48.098,-2.465 48.429,-2.385C48.761,-2.305 49.023,-2.197 49.215,-2.061C49.407,-1.925 49.544,-1.769 49.627,-1.593C49.71,-1.417 49.752,-1.233 49.752,-1.041C49.752,-0.833 49.709,-0.405 49.624,0.243C49.539,0.891 49.431,1.683 49.299,2.619C49.167,3.555 49.027,4.567 48.876,5.655C48.726,6.743 48.586,7.835 48.455,8.931C48.324,10.027 48.216,11.063 48.13,12.039C48.044,13.015 48.001,13.855 48.001,14.559C48.001,14.879 48.009,15.195 48.025,15.507C48.03,15.621 48.038,15.732 48.049,15.841C48.254,16.004 48.462,16.145 48.673,16.263C48.196,16.615 47.771,16.863 47.4,17.007C47.028,17.151 46.651,17.223 46.269,17.223C45.978,17.223 45.714,17.167 45.478,17.054C45.242,16.942 45.027,16.781 44.833,16.573C44.639,16.365 44.447,16.11 44.257,15.807C44.053,15.503 43.769,14.987 43.405,14.259C43.04,13.531 42.614,12.667 42.126,11.667C41.638,10.667 41.114,9.607 40.554,8.487C39.994,7.367 39.426,6.259 38.85,5.163C38.405,4.317 37.965,3.521 37.531,2.775C37.48,3.519 37.397,4.288 37.284,5.079C37.076,6.535 36.864,8.075 36.648,9.699C36.432,11.323 36.324,13.039 36.324,14.847C36.324,15.183 36.336,15.519 36.36,15.855C36.384,16.191 36.404,16.519 36.42,16.839C35.913,16.839 35.49,16.799 35.153,16.719C34.816,16.639 34.551,16.527 34.356,16.383C34.162,16.239 34.023,16.079 33.94,15.903C33.857,15.727 33.815,15.535 33.815,15.327C33.815,15.119 33.857,14.703 33.942,14.079C34.026,13.455 34.138,12.683 34.276,11.763C34.415,10.843 34.557,9.855 34.703,8.799C34.849,7.743 34.991,6.675 35.129,5.595C35.268,4.515 35.379,3.491 35.464,2.523C35.548,1.555 35.59,0.727 35.59,0.039C35.59,-0.022 35.59,-0.083 35.59,-0.142Z"
                          style="fill:rgb(255,98,0);"/>
                    <path d="M56.733,17.079C56.142,17.079 55.553,16.955 54.965,16.707C54.377,16.459 53.843,16.079 53.364,15.567C52.885,15.055 52.499,14.403 52.206,13.611C51.913,12.819 51.766,11.879 51.766,10.791C51.766,9.463 51.971,8.24 52.38,7.122C52.789,6.003 53.37,5.047 54.122,4.252C54.874,3.458 55.758,2.885 56.772,2.535C56.948,2.535 57.083,2.583 57.177,2.679C57.271,2.775 57.32,2.887 57.325,3.015C56.8,3.356 56.28,3.836 55.767,4.455C55.253,5.073 54.862,5.905 54.593,6.95L54.754,6.998C55.213,5.956 55.751,5.141 56.367,4.553C56.983,3.965 57.619,3.549 58.275,3.307C58.931,3.065 59.537,2.943 60.094,2.943C60.798,2.943 61.417,3.151 61.953,3.567C62.488,3.983 62.908,4.579 63.214,5.355C63.52,6.131 63.673,7.063 63.673,8.151C63.673,9.175 63.542,10.211 63.281,11.259C63.02,12.307 62.613,13.271 62.06,14.151C61.506,15.031 60.789,15.739 59.908,16.275C59.027,16.811 57.968,17.079 56.733,17.079ZM57.06,15.519C57.703,15.519 58.274,15.31 58.772,14.894C59.27,14.477 59.692,13.925 60.037,13.239C60.383,12.553 60.647,11.797 60.829,10.973C61.011,10.148 61.102,9.335 61.102,8.535C61.102,7.111 60.907,6.088 60.516,5.464C60.125,4.84 59.624,4.528 59.013,4.528C58.418,4.528 57.854,4.733 57.322,5.141C56.789,5.55 56.314,6.086 55.896,6.748C55.477,7.41 55.149,8.138 54.911,8.93C54.673,9.723 54.553,10.495 54.553,11.247C54.553,11.999 54.638,12.701 54.807,13.353C54.975,14.005 55.243,14.529 55.61,14.925C55.977,15.321 56.461,15.519 57.06,15.519Z"
                          style="fill:rgb(255,98,0);"/>
                    <path d="M67.757,5.48C67.466,5.522 67.172,5.579 66.874,5.651C66.321,5.784 65.717,5.994 65.062,6.28C65.046,6.174 65.034,6.056 65.026,5.925C65.018,5.793 65.014,5.67 65.014,5.555C65.014,4.97 65.15,4.531 65.421,4.239C65.692,3.946 66.058,3.754 66.518,3.662C66.968,3.572 67.465,3.526 68.01,3.524C68.109,2.519 68.158,1.438 68.158,0.279C68.158,0.023 68.154,-0.237 68.146,-0.501C68.138,-0.765 68.134,-1.025 68.134,-1.281C68.966,-1.169 69.594,-0.849 70.019,-0.321C70.444,0.207 70.657,0.943 70.657,1.887C70.657,2.418 70.625,2.987 70.562,3.595C71.09,3.589 71.608,3.543 72.115,3.457C72.664,3.364 73.122,3.168 73.489,2.871C73.505,2.96 73.517,3.063 73.525,3.178C73.533,3.293 73.537,3.409 73.537,3.524C73.537,4.26 73.397,4.753 73.118,5.004C72.839,5.255 72.461,5.38 71.985,5.38C71.385,5.38 70.827,5.377 70.312,5.37C70.166,6.269 70.001,7.208 69.817,8.187C69.593,9.379 69.397,10.571 69.229,11.763C69.061,12.955 68.977,14.103 68.977,15.207C68.977,15.879 69.005,16.467 69.061,16.971C69.117,17.475 69.201,17.847 69.313,18.087C68.632,17.863 68.089,17.563 67.684,17.187C67.279,16.811 66.993,16.343 66.825,15.783C66.658,15.223 66.574,14.559 66.574,13.791C66.574,12.799 66.654,11.811 66.814,10.827C66.974,9.843 67.158,8.819 67.366,7.755C67.507,7.034 67.638,6.275 67.757,5.48Z"
                          style="fill:rgb(255,98,0);"/>
                    <path d="M76.3,10.551C76.282,10.803 76.273,11.052 76.273,11.295C76.273,12.669 76.481,13.709 76.895,14.414C77.309,15.118 77.918,15.471 78.721,15.471C80.235,15.471 81.504,14.687 82.527,13.119C83.114,13.229 83.407,13.469 83.407,13.839C82.729,14.935 81.94,15.749 81.042,16.281C80.143,16.813 79.107,17.079 77.932,17.079C77.05,17.079 76.27,16.834 75.592,16.343C74.913,15.852 74.385,15.163 74.006,14.278C73.628,13.392 73.438,12.374 73.438,11.223C73.438,10.039 73.614,8.939 73.965,7.923C74.317,6.907 74.81,6.023 75.446,5.271C76.082,4.519 76.829,3.931 77.686,3.507C78.543,3.083 79.472,2.871 80.472,2.871C81.661,2.871 82.57,3.171 83.2,3.77C83.83,4.37 84.145,5.23 84.145,6.351C84.145,7.209 83.914,7.977 83.452,8.654C82.991,9.332 82.356,9.861 81.548,10.243C80.74,10.625 79.809,10.815 78.754,10.815C78.266,10.815 77.802,10.787 77.361,10.731C76.996,10.685 76.642,10.625 76.3,10.551ZM76.401,9.627L76.971,9.627C77.87,9.627 78.651,9.472 79.315,9.163C79.978,8.853 80.495,8.414 80.865,7.845C81.234,7.277 81.419,6.619 81.419,5.871C81.419,5.345 81.292,4.934 81.037,4.637C80.783,4.341 80.431,4.192 79.98,4.192C79.391,4.192 78.868,4.418 78.409,4.869C77.951,5.32 77.563,5.907 77.244,6.63C76.925,7.353 76.683,8.126 76.519,8.949C76.474,9.178 76.434,9.404 76.401,9.627Z"
                          style="fill:rgb(255,98,0);"/>
                    <path d="M87.48,5.509C87.25,5.547 87.017,5.595 86.782,5.651C86.229,5.784 85.625,5.994 84.971,6.28C84.955,6.174 84.943,6.056 84.935,5.925C84.927,5.793 84.923,5.67 84.923,5.555C84.923,4.97 85.058,4.531 85.329,4.239C85.601,3.946 85.966,3.754 86.426,3.662C86.875,3.572 87.371,3.526 87.914,3.524C88.092,2.818 88.292,2.124 88.515,1.443C88.905,0.251 89.371,-0.821 89.913,-1.773C90.455,-2.725 91.094,-3.481 91.83,-4.041C92.567,-4.601 93.405,-4.881 94.345,-4.881C95.317,-4.881 96.108,-4.617 96.718,-4.089C97.328,-3.561 97.633,-2.897 97.633,-2.097C97.633,-1.663 97.534,-1.245 97.338,-0.845C97.141,-0.444 96.854,-0.114 96.478,0.144C96.101,0.403 95.648,0.533 95.118,0.533C94.998,0.533 94.863,0.521 94.711,0.497C94.56,0.473 94.413,0.429 94.27,0.365C94.392,0.263 94.527,0.099 94.675,-0.129C94.823,-0.357 94.953,-0.618 95.064,-0.913C95.176,-1.208 95.231,-1.498 95.231,-1.785C95.231,-2.268 95.122,-2.65 94.903,-2.932C94.685,-3.214 94.402,-3.355 94.056,-3.355C93.474,-3.355 92.953,-3.082 92.493,-2.535C92.033,-1.988 91.63,-1.253 91.285,-0.33C90.94,0.593 90.642,1.63 90.392,2.784C90.333,3.052 90.277,3.323 90.223,3.596C90.262,3.596 90.301,3.596 90.34,3.596C90.913,3.596 91.475,3.55 92.024,3.457C92.573,3.364 93.031,3.168 93.397,2.871C93.413,2.96 93.425,3.063 93.433,3.178C93.441,3.293 93.445,3.409 93.445,3.524C93.445,4.26 93.305,4.753 93.026,5.004C92.747,5.255 92.37,5.38 91.893,5.38C91.22,5.38 90.6,5.376 90.034,5.368C89.993,5.367 89.951,5.367 89.911,5.366C89.86,5.693 89.812,6.022 89.767,6.354C89.601,7.581 89.469,8.771 89.37,9.924C89.271,11.077 89.201,12.114 89.161,13.034C89.121,13.955 89.101,14.679 89.101,15.207C89.101,15.671 89.105,16.059 89.113,16.371C89.121,16.683 89.137,16.975 89.161,17.247C89.185,17.519 89.221,17.823 89.269,18.159C89.317,18.495 89.389,18.919 89.485,19.431C88.966,19.239 88.522,18.995 88.153,18.699C87.783,18.403 87.483,18.051 87.251,17.643C87.019,17.235 86.849,16.767 86.74,16.239C86.631,15.711 86.577,15.127 86.577,14.487C86.577,13.895 86.606,13.107 86.664,12.123C86.722,11.139 86.821,10.047 86.963,8.847C87.09,7.764 87.263,6.651 87.48,5.509Z"
                          style="fill:rgb(255,98,0);"/>
                    <path d="M98.121,17.079C97.531,17.079 96.941,16.955 96.353,16.707C95.765,16.459 95.232,16.079 94.752,15.567C94.273,15.055 93.887,14.403 93.594,13.611C93.301,12.819 93.155,11.879 93.155,10.791C93.155,9.463 93.359,8.24 93.768,7.122C94.177,6.003 94.758,5.047 95.51,4.252C96.262,3.458 97.146,2.885 98.161,2.535C98.337,2.535 98.472,2.583 98.565,2.679C98.659,2.775 98.708,2.887 98.713,3.015C98.188,3.356 97.669,3.836 97.155,4.455C96.641,5.073 96.25,5.905 95.982,6.95L96.142,6.998C96.602,5.956 97.139,5.141 97.755,4.553C98.371,3.965 99.007,3.549 99.663,3.307C100.319,3.065 100.926,2.943 101.482,2.943C102.186,2.943 102.806,3.151 103.341,3.567C103.876,3.983 104.297,4.579 104.602,5.355C104.908,6.131 105.061,7.063 105.061,8.151C105.061,9.175 104.931,10.211 104.67,11.259C104.409,12.307 104.002,13.271 103.448,14.151C102.894,15.031 102.177,15.739 101.296,16.275C100.415,16.811 99.357,17.079 98.121,17.079ZM98.449,15.519C99.092,15.519 99.662,15.31 100.16,14.894C100.658,14.477 101.08,13.925 101.426,13.239C101.771,12.553 102.035,11.797 102.217,10.973C102.4,10.148 102.491,9.335 102.491,8.535C102.491,7.111 102.295,6.088 101.904,5.464C101.513,4.84 101.012,4.528 100.401,4.528C99.807,4.528 99.243,4.733 98.71,5.141C98.178,5.55 97.702,6.086 97.284,6.748C96.866,7.41 96.537,8.138 96.299,8.93C96.061,9.723 95.942,10.495 95.942,11.247C95.942,11.999 96.026,12.701 96.195,13.353C96.364,14.005 96.632,14.529 96.999,14.925C97.366,15.321 97.849,15.519 98.449,15.519Z"
                          style="fill:rgb(255,98,0);"/>
                    <path d="M111.078,11.591C110.457,12.31 109.871,13.123 109.321,14.031C108.681,15.087 108.153,16.319 107.737,17.727C107.245,17.231 106.878,16.767 106.635,16.335C106.392,15.903 106.271,15.487 106.271,15.087C106.271,14.623 106.499,14.083 106.955,13.467C107.411,12.851 108.007,12.183 108.743,11.463C109.276,10.942 109.837,10.405 110.425,9.854C110.284,9.469 110.145,9.083 110.008,8.694C109.632,7.63 109.237,6.627 108.823,5.685C108.41,4.744 107.947,3.942 107.435,3.279C107.698,3.103 108.007,2.955 108.362,2.835C108.717,2.715 109.014,2.655 109.251,2.655C109.683,2.655 110.056,2.807 110.37,3.111C110.685,3.415 110.963,3.847 111.206,4.407C111.448,4.967 111.694,5.639 111.942,6.423C112.094,6.906 112.258,7.42 112.432,7.963C112.802,7.603 113.164,7.242 113.519,6.879C114.287,6.095 114.943,5.327 115.487,4.575C116.031,3.823 116.359,3.111 116.471,2.439C116.835,2.839 117.106,3.207 117.285,3.543C117.463,3.879 117.553,4.207 117.553,4.527C117.553,5.055 117.373,5.551 117.013,6.015C116.653,6.479 116.173,6.963 115.573,7.467C114.973,7.971 114.309,8.527 113.581,9.135C113.383,9.301 113.185,9.473 112.987,9.652C113.3,10.541 113.63,11.355 113.976,12.096C114.403,13.009 114.831,13.807 115.259,14.49C115.687,15.172 116.098,15.743 116.492,16.201C116.885,16.659 117.234,16.999 117.538,17.223C117.33,17.287 117.118,17.341 116.901,17.383C116.684,17.425 116.468,17.447 116.253,17.447C115.443,17.447 114.733,17.193 114.124,16.687C113.514,16.181 112.971,15.505 112.494,14.66C112.017,13.815 111.578,12.876 111.175,11.841C111.143,11.758 111.11,11.675 111.078,11.591Z"
                          style="fill:rgb(255,98,0);"/>
                </g>
                <g transform="matrix(0.00312143,-8.29516e-35,8.46441e-35,-0.00305902,0.793248,10.1901)">
                    <g>
                        <g transform="matrix(1,1.09476e-47,-1.09476e-47,1,-736.712,51.3984)">
                            <path d="M9902,1717.33C9862.5,1951.56 9792.24,2109.66 9492.23,2169.47C9050.83,2257.48 3901.8,2277.56 2927.36,2162.12C2561.16,2118.74 2352.33,2037.45 2321.45,1769.86C2137.7,177.424 2120.97,-4700.85 2317.54,-6623.36C2384.5,-7278.28 2707.79,-7485.84 3102.39,-7529.4C4186.31,-7649.05 8108.14,-7655.12 9215.9,-7490.99C9572.98,-7438.08 9722.26,-7264.1 9788.66,-6841.08C10023.4,-5345.51 10159.3,191.648 9902,1717.33Z"
                                  style="fill:rgb(255,183,136);fill-rule:nonzero;"/>
                        </g>
                        <g transform="matrix(1,5.47382e-48,-1.64215e-47,1,-736.712,51.3984)">
                            <path d="M10224.1,1771.65C10484.6,227.261 10349,-5377.82 10111.4,-6891.73C10066,-7180.53 9980.19,-7379.51 9856.96,-7520.13C9720.23,-7676.14 9534.25,-7774.05 9263.78,-7814.12C8140.84,-7980.51 4165.31,-7975.38 3066.55,-7854.09C2792.99,-7823.9 2547.6,-7729.06 2355.54,-7536.06C2175.9,-7355.53 2035.99,-7081.29 1992.57,-6656.59C1794.34,-4717.89 1811.64,201.462 1996.94,1807.3C2044.9,2222.95 2320.12,2419.14 2888.93,2486.52C3878.56,2603.75 9107.83,2579.21 9556.1,2489.83C9749.06,2451.36 9879.49,2380.16 9974.71,2293.4C10115.2,2165.37 10186.6,1993.95 10224.1,1771.65ZM9902,1717.33C9862.5,1951.56 9792.24,2109.66 9492.23,2169.47C9050.83,2257.48 3901.8,2277.56 2927.36,2162.12C2561.16,2118.74 2352.33,2037.45 2321.45,1769.86C2137.7,177.424 2120.97,-4700.85 2317.54,-6623.36C2384.5,-7278.28 2707.79,-7485.84 3102.39,-7529.4C4186.31,-7649.05 8108.14,-7655.12 9215.9,-7490.99C9572.98,-7438.08 9722.26,-7264.1 9788.66,-6841.08C10023.4,-5345.51 10159.3,191.648 9902,1717.33Z"
                                  style="fill:white;fill-opacity:0.7;"/>
                        </g>
                    </g>
                    <g transform="matrix(0.836377,0.548155,-0.548155,0.836377,1628.43,-5055.66)">
                        <g transform="matrix(-0.975524,-2.34562e-34,2.34562e-34,-0.984174,10684,-4202.33)">
                            <path d="M5460.4,-848.9C5460.4,-848.9 2731.14,-2829.86 311.464,-3908.33C110.077,-3998.09 86.573,-4171.24 176.962,-4377.36C307.743,-4675.6 670.875,-5266.86 918.113,-5483.08C1037.62,-5587.59 1214.17,-5664.81 1374.57,-5528.48C2978.61,-4165.18 6430.3,-2337.1 6430.3,-2337.1C6430.3,-2337.1 7262.79,-1115.02 7118.75,-903.027C6991.2,-715.281 5460.4,-848.9 5460.4,-848.9Z"
                                  style="fill:rgb(255,98,0);fill-rule:nonzero;"/>
                        </g>
                        <g transform="matrix(-0.975524,-2.34562e-34,2.34562e-34,-0.984174,10684,-4202.33)">
                            <path d="M5431.03,-518.26C5431.03,-518.26 6461.69,-431.303 6942.64,-496.44C7072.24,-513.993 7174.1,-545.512 7238.82,-579.715L7331.35,-643.479L7396.5,-717.621L7450.27,-830.662L7470.36,-972.736C7470.24,-1043.1 7454.78,-1133.82 7420.66,-1236.98C7272.01,-1686.42 6707.82,-2522.84 6707.82,-2522.84C6677.3,-2567.64 6636.21,-2604.38 6588.11,-2629.85C6588.11,-2629.85 3177.08,-4433.72 1592.54,-5780.45C1278.81,-6047.1 930.324,-5936.4 696.571,-5731.98C422.504,-5492.3 14.828,-4840.27 -130.143,-4509.68C-229.555,-4282.98 -229.024,-4076.61 -152.786,-3913.39L-93.19,-3813.54L-15.259,-3727.52C35.253,-3681.46 97.53,-3639.75 174.133,-3605.61C2565.59,-2539.71 5262.56,-581.101 5262.56,-581.101C5311.88,-545.307 5370.14,-523.575 5431.03,-518.26ZM5460.4,-848.9C5460.4,-848.9 2731.14,-2829.86 311.464,-3908.33C110.077,-3998.09 86.573,-4171.24 176.962,-4377.36C307.743,-4675.6 670.875,-5266.86 918.113,-5483.08C1037.62,-5587.59 1214.17,-5664.81 1374.57,-5528.48C2978.61,-4165.18 6430.3,-2337.1 6430.3,-2337.1C6430.3,-2337.1 7262.79,-1115.02 7118.75,-903.027C6991.2,-715.281 5460.4,-848.9 5460.4,-848.9Z"
                                  style="fill:white;fill-opacity:0.7;"/>
                        </g>
                    </g>
                </g>
            </g>
        </g>
    </g>
</svg>
