<svg clip-rule="evenodd" fill="#ffffff" fill-rule="evenodd" height="10" stroke-miterlimit="2" viewBox="0 0 10 10" width="10"
     xmlns="http://www.w3.org/2000/svg">
    <g fill-rule="nonzero" stroke="#ffffff" stroke-width=".5">
        <path d="m8.854 5c0 2.129-1.725 3.854-3.854 3.854s-3.854-1.725-3.854-3.854 1.725-3.854 3.854-3.854c.173 0 .313-.14.313-.313 0-.172-.14-.312-.313-.312-2.474 0-4.479 2.005-4.479 4.479s2.005 4.479 4.479 4.479 4.479-2.005 4.479-4.479c0-.173-.14-.312-.312-.312-.173 0-.313.139-.313.312z"/>
        <path d="m5.196 4.362c-.122.122-.122.32 0 .442s.32.122.442 0l3.216-3.216v1.472c0 .172.14.312.313.312.172 0 .312-.14.312-.312v-2.227c0-.172-.14-.312-.312-.312h-2.227c-.172 0-.312.14-.312.312 0 .173.14.313.312.313h1.472z"/>
    </g>
</svg>