<?xml version="1.0" encoding="UTF-8" standalone="no"?>
<svg width="100%" height="100%" viewBox="0 0 800 800" version="1.1" xmlns="http://www.w3.org/2000/svg"
     style="fill-rule:evenodd;clip-rule:evenodd;stroke-linejoin:round;stroke-miterlimit:2;">
    <g transform="matrix(0.828729,0,0,0.828729,68.5083,68.5082)">
        <path fill="black" d="M441.919,175.251C455.587,161.582 477.746,161.582 491.414,175.251L691.414,375.252C705.084,388.922 705.084,411.078 691.414,424.748L491.414,624.748C477.746,638.417 455.587,638.416 441.919,624.748C428.251,611.078 428.251,588.922 441.919,575.252L582.168,435L133.333,435C114.003,435 98.333,419.33 98.333,400C98.333,380.67 114.003,365 133.333,365L582.168,365L441.919,224.749C428.251,211.081 428.251,188.919 441.919,175.251Z"/>
    </g>
</svg>
