<svg fill="#ffffff" height="800" viewBox="0 0 24 24" width="800" xmlns="http://www.w3.org/2000/svg">
    <path clip-rule="evenodd"
          d="m3.17157 5.17157c-1.17157 1.17158-1.17157 3.05719-1.17157 6.82843 0 3.7712 0 5.6569 1.17157 6.8284 1.17158 1.1716 3.05719 1.1716 6.82843 1.1716h4c3.7712 0 5.6569 0 6.8284-1.1716 1.1716-1.1715 1.1716-3.0572 1.1716-6.8284 0-3.77124 0-5.65685-1.1716-6.82843-1.1715-1.17157-3.0572-1.17157-6.8284-1.17157h-4c-3.77124 0-5.65685 0-6.82843 1.17157zm9.57863 4.82843c0-.41421-.3358-.75-.75-.75s-.75.33579-.75.75v.7012l-.6074-.3507c-.3587-.2071-.8174-.0842-1.02451.2745-.2071.3587-.0842.8174.27452 1.0245l.60689.3504-.60712.3506c-.35872.2071-.48163.6658-.27452 1.0245s.66584.4816 1.02454.2745l.6076-.3508v.7013c0 .4142.3358.75.75.75s.75-.3358.75-.75v-.7007l.6067.3502c.3587.2071.8174.0842 1.0245-.2745s.0842-.8174-.2745-1.0245l-.6072-.3506.607-.3504c.3587-.2071.4816-.6658.2745-1.0245s-.6658-.4816-1.0245-.2745l-.6065.3501zm-6.01754-.75c.41421 0 .75.33579.75.75v.7006l.60644-.3501c.35872-.2071.81741-.0842 1.02452.2745s.0842.8174-.27452 1.0245l-.60693.3504.60717.3506c.35872.2071.48162.6658.27452 1.0245-.20711.3587-.6658.4816-1.02452.2745l-.60668-.3502v.7007c0 .4142-.33579.75-.75.75-.41422 0-.75-.3358-.75-.75v-.7013l-.60766.3508c-.35872.2071-.81741.0842-1.02452-.2745s-.0842-.8174.27452-1.0245l.60717-.3506-.60694-.3504c-.35871-.2071-.48162-.6658-.27451-1.0245.2071-.3587.6658-.4816 1.02451-.2745l.60743.3507v-.7012c0-.41421.33578-.75.75-.75zm11.28544.75c0-.41421-.3358-.75-.75-.75s-.75.33579-.75.75v.7012l-.6075-.3507c-.3587-.2071-.8174-.0842-1.0245.2745s-.0842.8174.2745 1.0245l.607.3504-.6072.3506c-.3587.2071-.4816.6658-.2745 1.0245s.6658.4816 1.0245.2745l.6077-.3508v.7013c0 .4142.3358.75.75.75s.75-.3358.75-.75v-.7007l.6066.3502c.3588.2071.8175.0842 1.0246-.2745s.0842-.8174-.2746-1.0245l-.6071-.3506.6069-.3504c.3587-.2071.4816-.6658.2745-1.0245s-.6658-.4816-1.0245-.2745l-.6064.3501z"
          fill-rule="evenodd"/>
</svg>