<?xml version="1.0" encoding="UTF-8" standalone="no"?>
<!DOCTYPE svg PUBLIC "-//W3C//DTD SVG 1.1//EN" "http://www.w3.org/Graphics/SVG/1.1/DTD/svg11.dtd">
<svg width="100%" height="100%" viewBox="0 0 800 800" version="1.1" xmlns="http://www.w3.org/2000/svg"
     xmlns:xlink="http://www.w3.org/1999/xlink" xml:space="preserve" xmlns:serif="http://www.serif.com/"
     style="fill-rule:evenodd;clip-rule:evenodd;stroke-linejoin:round;stroke-miterlimit:2;">
    <g transform="matrix(24.0376,0,0,24.0376,111.549,111.548)">
        <path d="M19.466,7.522C20.705,8.762 21.567,9.634 22.011,10.371C22.361,10.952 22.472,11.468 22.358,11.996C22.244,12.524 21.929,12.948 21.37,13.332C20.662,13.819 19.517,14.256 17.877,14.873L16.033,15.565C15.387,15.808 15.058,15.918 14.809,16.134L14.809,16.134C14.712,16.218 14.625,16.313 14.55,16.417C14.358,16.685 14.279,17.023 14.095,17.689C13.81,18.725 13.607,19.449 13.371,19.933C13.176,20.333 12.95,20.591 12.67,20.752L12.669,20.752C12.378,20.918 12.048,21.005 11.713,21.005C11.39,21.004 11.066,20.891 10.699,20.639C10.255,20.335 9.721,19.806 8.961,19.046L7.778,17.862L3.585,22.059C3.131,22.514 2.395,22.514 1.94,22.059C1.487,21.605 1.487,20.868 1.94,20.414L6.134,16.216L5.002,15.083C4.247,14.328 3.722,13.797 3.419,13.355C3.17,12.99 3.056,12.668 3.054,12.347C3.052,12.005 3.141,11.669 3.311,11.372C3.472,11.094 3.729,10.871 4.127,10.677C4.608,10.442 5.327,10.24 6.355,9.957C7.022,9.773 7.361,9.693 7.629,9.5C7.736,9.423 7.833,9.334 7.918,9.233C8.132,8.982 8.24,8.651 8.478,8L9.146,6.177C9.754,4.52 10.185,3.362 10.669,2.645C11.051,2.079 11.475,1.761 12.004,1.644C12.534,1.527 13.052,1.638 13.637,1.991C14.377,2.437 15.254,3.306 16.502,4.555L19.466,7.522Z"/>
    </g>
</svg>
