<svg fill="none" height="800" viewBox="0 0 24 24" width="800" xmlns="http://www.w3.org/2000/svg">
    <path d="m19.1835 7.80516-2.9647-2.96761c-2.0267-2.02865-3.04-3.04298-4.1284-2.80287-1.0883.24012-1.5818 1.58687-2.5687 4.28038l-.66797 1.82304c-.2631.71807-.39465 1.0771-.63134 1.35482-.1062.12462-.22703.23595-.35988.33159-.29607.21319-.6644.31469-1.40106.51779-1.66038.4577-2.49057.6866-2.80341 1.2298-.13524.2348-.20562.5014-.20391.7725.00396.6269.61285 1.2364 1.83063 2.4554l1.41459 1.4163-4.4759 4.4801c-.29793.2982-.29793.7818 0 1.08s.78098.2982 1.07891 0l4.47605-4.4803 1.466 1.4674c1.22549 1.2267 1.83829 1.8401 2.46899 1.841.2658.0004.527-.0687.7579-.2004.5479-.3127.778-1.149 1.2382-2.8216.2024-.7353.3035-1.103.5159-1.399.093-.1295.2008-.2477.3214-.3521.2753-.2384.632-.3724 1.3454-.6404l1.844-.6929c2.6638-1.0008 3.9957-1.5012 4.2305-2.5866.2347-1.0855-.7713-2.09245-2.7832-4.10634z"
          fill="#ffffff"/>
</svg>