<svg fill="none" height="800" viewBox="0 0 24 24" width="800" xmlns="http://www.w3.org/2000/svg">
    <path d="m18.2577 3.50828c.2803.11609.463.38957.463.69291v4.24264c0 .41422-.3358.75-.75.75h-4.2427c-.3033 0-.5768-.18273-.6929-.46298-.116-.28026-.0519-.60285.1626-.81735l1.603-1.603c-2.6333-1.10138-5.78464-.5796-7.92722 1.56298-2.83131 2.83132-2.83131 7.42172 0 10.25302 2.8313 2.8313 7.42172 2.8313 10.25302 0 1.6462-1.6462 2.3357-3.8864 2.067-6.0328-.0515-.411.24-.7859.651-.8374.411-.0514.7859.24.8374.651.3238 2.5861-.5073 5.2924-2.4947 7.2799-3.4171 3.4171-8.9573 3.4171-12.37438 0-3.41709-3.4171-3.41709-8.9573 0-12.37438 2.73837-2.73838 6.83868-3.28162 10.11808-1.63254l1.5095-1.50942c.2145-.21449.537-.27866.8173-.16258z"
          fill="#ffffff"/>
</svg>