<?xml version="1.0" encoding="UTF-8" standalone="no"?>
<svg width="100%" height="100%" viewBox="0 0 800 800" version="1.1" xmlns="http://www.w3.org/2000/svg"
     style="fill-rule:evenodd;clip-rule:evenodd;stroke-linejoin:round;stroke-miterlimit:2;">
    <g transform="matrix(26.4566,0,0,26.4566,82.5206,86.6507)">
        <path fill="black" d="M18.372,3.231C18.765,3.394 19.021,3.777 19.021,4.201L19.021,8.444C19.021,9.024 18.551,9.494 17.971,9.494L13.728,9.494C13.303,9.494 12.92,9.238 12.758,8.846L12.758,8.846C12.596,8.453 12.685,8.002 12.986,7.701L14.261,6.426C11.829,5.592 9.026,6.145 7.086,8.086C4.371,10.8 4.371,15.2 7.086,17.914C9.8,20.629 14.2,20.629 16.914,17.914C18.493,16.336 19.153,14.189 18.896,12.131C18.824,11.556 19.232,11.031 19.807,10.959L19.807,10.959C20.383,10.887 20.907,11.295 20.98,11.87C21.314,14.545 20.455,17.344 18.399,19.399C14.865,22.934 9.135,22.934 5.601,19.399C2.066,15.865 2.066,10.135 5.601,6.601C8.379,3.823 12.512,3.229 15.87,4.817L17.228,3.459C17.529,3.158 17.98,3.069 18.372,3.231Z"/>
    </g>
</svg>
