<svg fill="none" height="800" viewBox="0 0 24 24" width="800" xmlns="http://www.w3.org/2000/svg">
    <path d="m11.2691 4.41115c.2315-.51938.3473-.77907.5085-.85904.14-.06948.3044-.06948.4444 0 .1612.07997.277.33966.5085.85904l1.844 4.13693c.0685.15354.1027.23031.1557.2891.0468.05202.1041.09363.168.12211.0723.0322.1559.04102.3231.05866l4.5043.47541c.5655.05968.8482.08952.9741.21811.1093.11169.1601.26809.1373.42273-.0262.178-.2374.3683-.6598.749l-3.3647 3.0322c-.1248.1125-.1873.1688-.2268.2373-.035.0607-.0569.128-.0642.1976-.0083.0787.0091.1609.044.3254l.9398 4.4307c.118.5563.177.8344.0936.9938-.0725.1386-.2055.2352-.3596.2613-.1774.03-.4237-.112-.9163-.3961l-3.9235-2.263c-.1456-.084-.2184-.1259-.2958-.1424-.0685-.0145-.1393-.0145-.2078 0-.0774.0165-.1502.0584-.2958.1424l-3.92348 2.263c-.49258.2841-.73887.4261-.91628.3961-.15411-.0261-.28715-.1227-.35959-.2613-.08339-.1594-.0244-.4375.09359-.9938l.93976-4.4307c.03488-.1645.05232-.2467.04404-.3254-.00733-.0696-.0292-.1369-.0642-.1976-.03955-.0685-.10199-.1248-.22686-.2373l-3.36462-3.0322c-.42241-.3807-.63362-.571-.65988-.749-.0228-.15464.02801-.31104.13735-.42273.12588-.12859.40863-.15843.97413-.21811l4.50429-.47541c.16718-.01764.25076-.02646.32304-.05866.06395-.02848.12121-.07009.16807-.12211.05295-.05879.08717-.13556.15562-.2891z"
          stroke="#000" stroke-linecap="round" stroke-linejoin="round" stroke-width="2"/>
</svg>