<?xml version="1.0" encoding="UTF-8" standalone="no"?>
<svg width="100%" height="100%" viewBox="0 0 800 800" version="1.1" xmlns="http://www.w3.org/2000/svg"
     style="fill-rule:evenodd;clip-rule:evenodd;stroke-linejoin:round;stroke-miterlimit:2;">
    <g transform="matrix(25.414,0,0,25.414,95.0305,94.4913)">
        <path fill="black" d="M8.559,8.036L10.356,4.004C10.563,3.539 10.712,3.244 10.845,3.069L11.09,2.813L11.333,2.656L11.66,2.539L12,2.5L12.34,2.539L12.666,2.656L12.91,2.813L13.155,3.069C13.288,3.244 13.437,3.539 13.644,4.004L15.441,8.036L19.831,8.499C20.337,8.552 20.664,8.603 20.871,8.675L21.19,8.829L21.414,9.012L21.414,9.012L21.627,9.286L21.769,9.598L21.837,9.933L21.826,10.28L21.752,10.56L21.585,10.872C21.46,11.052 21.225,11.285 20.847,11.626L17.568,14.581L18.484,18.899C18.589,19.397 18.642,19.723 18.638,19.943L18.59,20.294L18.485,20.564L18.29,20.85L18.037,21.082L17.739,21.25L17.406,21.347L17.406,21.348L17.117,21.363L16.769,21.301C16.558,21.237 16.265,21.086 15.823,20.832L12,18.626L8.176,20.832C7.735,21.086 7.441,21.237 7.231,21.301L6.883,21.363L6.594,21.348L6.593,21.347L6.26,21.25L5.962,21.082L5.71,20.85L5.515,20.564L5.41,20.294L5.362,19.943C5.357,19.723 5.41,19.397 5.516,18.899L6.432,14.581L3.153,11.626C2.775,11.285 2.54,11.053 2.415,10.872L2.247,10.56L2.173,10.28L2.173,10.28L2.163,9.933L2.231,9.598L2.373,9.286L2.585,9.012L2.81,8.829L3.129,8.675C3.336,8.603 3.663,8.552 4.169,8.499L8.559,8.036ZM4.825,10.441L7.856,13.172C8.1,13.392 8.203,13.519 8.28,13.653L8.28,13.653L8.407,13.939L8.473,14.246L8.473,14.246C8.489,14.399 8.48,14.562 8.412,14.883L7.566,18.875L11.1,16.836C11.384,16.673 11.537,16.614 11.687,16.582L11.689,16.582L12,16.549L12.311,16.582L12.312,16.582C12.463,16.614 12.616,16.673 12.899,16.836L16.434,18.875L15.587,14.883C15.519,14.563 15.511,14.399 15.527,14.246L15.592,13.939L15.719,13.653C15.796,13.52 15.899,13.392 16.143,13.173L19.174,10.441L15.116,10.012C14.79,9.978 14.632,9.936 14.491,9.873L14.491,9.873L14.22,9.716L13.987,9.506C13.884,9.391 13.795,9.254 13.661,8.956L12,5.228L10.338,8.955C10.205,9.255 10.116,9.392 10.013,9.506L10.012,9.506L9.78,9.716L9.508,9.873C9.367,9.936 9.209,9.978 8.883,10.012L4.825,10.441Z"/>
    </g>
</svg>
