<?xml version="1.0" encoding="UTF-8" standalone="no"?>
<svg width="100%" height="100%" viewBox="0 0 800 800" version="1.1" xmlns="http://www.w3.org/2000/svg"
     style="fill-rule:evenodd;clip-rule:evenodd;stroke-linejoin:round;stroke-miterlimit:2;">
    <g transform="matrix(24.1316,0,0,24.1316,110.42,110.42)">
        <path fill="black"
              d="M18.512,16.585L21.962,20.039C22.493,20.57 22.492,21.432 21.961,21.962C21.43,22.493 20.568,22.492 20.038,21.961L16.589,18.509C15.029,19.672 13.095,20.36 11,20.36C5.831,20.36 1.64,16.169 1.64,11C1.64,5.831 5.831,1.64 11,1.64C16.169,1.64 20.36,5.831 20.36,11C20.36,13.093 19.673,15.026 18.512,16.585ZM15.696,15.694L15.697,15.693C16.898,14.492 17.64,12.833 17.64,11C17.64,7.333 14.667,4.36 11,4.36C7.333,4.36 4.36,7.333 4.36,11C4.36,14.667 7.333,17.64 11,17.64C12.834,17.64 14.494,16.896 15.696,15.694ZM11,7.36C10.249,7.36 9.64,6.751 9.64,6C9.64,5.249 10.249,4.64 11,4.64C14.513,4.64 17.36,7.487 17.36,11C17.36,11.751 16.751,12.36 16,12.36C15.249,12.36 14.64,11.751 14.64,11C14.64,8.99 13.01,7.36 11,7.36Z"/>
    </g>
</svg>