<?xml version="1.0" encoding="UTF-8" standalone="no"?>
<!DOCTYPE svg PUBLIC "-//W3C//DTD SVG 1.1//EN" "http://www.w3.org/Graphics/SVG/1.1/DTD/svg11.dtd">
<svg width="100%" height="100%" viewBox="0 0 16 16" version="1.1" xmlns="http://www.w3.org/2000/svg" xmlns:xlink="http://www.w3.org/1999/xlink" xml:space="preserve" xmlns:serif="http://www.serif.com/" style="fill-rule:evenodd;clip-rule:evenodd;stroke-linejoin:round;stroke-miterlimit:2;">
    <path d="M15,7L12.9,7C12.771,6.374 12.523,5.779 12.168,5.247L13.658,3.757C13.838,3.571 13.939,3.321 13.939,3.062C13.939,2.514 13.487,2.062 12.939,2.062C12.68,2.062 12.43,2.163 12.244,2.343L10.754,3.833C10.222,3.478 9.626,3.229 9,3.1L9,1C9,0.451 8.549,0 8,0C7.451,-0 7,0.451 7,1L7,3.1C6.374,3.229 5.779,3.478 5.247,3.832L3.757,2.342C3.57,2.155 3.315,2.049 3.05,2.049C2.501,2.049 2.05,2.501 2.05,3.05C2.05,3.315 2.155,3.569 2.343,3.757L3.833,5.247C3.478,5.779 3.229,6.374 3.1,7L1,7C0.451,7 -0,7.451 0,8C0,8.549 0.451,9 1,9L3.1,9C3.229,9.63 3.48,10.229 3.837,10.763C3.823,10.776 3.805,10.78 3.792,10.793L2.342,12.243C2.147,12.431 2.037,12.691 2.037,12.962C2.037,13.511 2.488,13.962 3.037,13.962C3.308,13.962 3.568,13.852 3.756,13.657L5.206,12.207C5.219,12.194 5.224,12.176 5.236,12.162C5.771,12.52 6.37,12.771 7,12.9L7,15C7,15.549 7.451,16 8,16C8.549,16 9,15.549 9,15L9,12.9C9.626,12.771 10.221,12.522 10.753,12.168L12.243,13.658C12.429,13.838 12.679,13.939 12.938,13.939C13.486,13.939 13.938,13.487 13.938,12.939C13.938,12.68 13.837,12.43 13.657,12.244L12.167,10.754C12.522,10.222 12.771,9.626 12.9,9L15,9C15.549,9 16,8.549 16,8C16,7.451 15.549,7 15,7ZM5,8C5,6.354 6.354,5 8,5C9.646,5 11,6.354 11,8C11,9.646 9.646,11 8,11C6.354,11 5,9.646 5,8Z" style="fill:rgb(249,249,250);fill-rule:nonzero;"/>
</svg>
