<?xml version="1.0" encoding="UTF-8" standalone="no"?>
<svg width="100%" height="100%" viewBox="0 0 800 800" version="1.1" xmlns="http://www.w3.org/2000/svg"
     style="fill-rule:evenodd;clip-rule:evenodd;stroke-linejoin:round;stroke-miterlimit:2;">
    <g transform="matrix(8.33333,0,0,8.33333,100,100)">
        <path fill="black" d="M18.75,6L36,6L36,23.25C36,26.973 39.027,30 42.75,30L60,30L60,59.25C60,62.973 56.973,66 53.25,66L18.75,66C15.027,66 12,62.973 12,59.25L12,12.75C12,9.027 15.027,6 18.75,6ZM26.25,37.5C25.008,37.5 24,38.508 24,39.75C24,40.992 25.008,42 26.25,42L45.75,42C46.992,42 48,40.992 48,39.75C48,38.508 46.992,37.5 45.75,37.5L26.25,37.5ZM26.234,48L25.93,48.02C24.832,48.168 23.988,49.113 23.988,50.25C23.988,51.492 24.996,52.5 26.238,52.5L39.73,52.5L40.035,52.48C41.137,52.332 41.98,51.387 41.98,50.25C41.98,49.008 40.973,48 39.73,48L26.234,48ZM40.5,7.316L58.684,25.5L42.75,25.5C41.508,25.5 40.5,24.492 40.5,23.25L40.5,7.316Z"/>
    </g>
</svg>
