<?xml version="1.0" encoding="UTF-8"?>
<svg xmlns="http://www.w3.org/2000/svg" width="72pt" height="72pt"
     viewBox="0 0 72 72" version="1.1">
    <g fill="#fff">
        <path style=" stroke:none;fill-rule:nonzero;fill-opacity:1;"
              d="M 18.75 6 C 15.027344 6 12 9.027344 12 12.75 L 12 59.25 C 12 62.972656 15.027344 66 18.75 66 L 53.25 66 C 56.972656 66 60 62.972656 60 59.25 L 60 30 L 42.75 30 C 39.027344 30 36 26.972656 36 23.25 L 36 6 Z M 40.5 7.316406 L 40.5 23.25 C 40.5 24.492188 41.507812 25.5 42.75 25.5 L 58.683594 25.5 Z M 26.25 37.5 L 45.75 37.5 C 46.992188 37.5 48 38.507812 48 39.75 C 48 40.992188 46.992188 42 45.75 42 L 26.25 42 C 25.007812 42 24 40.992188 24 39.75 C 24 38.507812 25.007812 37.5 26.25 37.5 Z M 26.234375 48 L 39.730469 48 C 40.972656 48 41.980469 49.007812 41.980469 50.25 C 41.980469 51.386719 41.136719 52.332031 40.035156 52.480469 L 39.730469 52.5 L 26.238281 52.5 C 24.996094 52.5 23.988281 51.492188 23.988281 50.25 C 23.988281 49.113281 24.832031 48.167969 25.929688 48.019531 Z M 26.234375 48 "/>
    </g>
</svg>
