<svg fill="none" height="800" viewBox="0 0 24 24" width="800" xmlns="http://www.w3.org/2000/svg">
    <path clip-rule="evenodd"
          d="m3.46447 20.5355c1.46446 1.4645 3.82148 1.4645 8.53553 1.4645 4.714 0 7.0711 0 8.5355-1.4645 1.4645-1.4644 1.4645-3.8215 1.4645-8.5355 0-4.71405 0-7.07107-1.4645-8.53553-1.4644-1.46447-3.8215-1.46447-8.5355-1.46447-4.71405 0-7.07107 0-8.53553 1.46447-1.46447 1.46446-1.46447 3.82148-1.46447 8.53553 0 4.714 0 7.0711 1.46447 8.5355zm11.28553-4.5355c0 .4142-.3358.75-.75.75h-4c-.41421 0-.75-.3358-.75-.75s.33579-.75.75-.75h4c.4142 0 .75.3358.75.75zm1.25-3.25c.4142 0 .75-.3358.75-.75s-.3358-.75-.75-.75h-8c-.41421 0-.75.3358-.75.75s.33579.75.75.75zm2.75-4.75c0 .41421-.3358.75-.75.75h-12c-.41421 0-.75-.33579-.75-.75s.33579-.75.75-.75h12c.4142 0 .75.33579.75.75z"
          fill="#ffffff" fill-rule="evenodd"/>
</svg>