<?xml version="1.0" encoding="UTF-8" standalone="no"?>
<!DOCTYPE svg PUBLIC "-//W3C//DTD SVG 1.1//EN" "http://www.w3.org/Graphics/SVG/1.1/DTD/svg11.dtd">
<svg width="100%" height="100%" viewBox="0 0 16 16" version="1.1" xmlns="http://www.w3.org/2000/svg" xmlns:xlink="http://www.w3.org/1999/xlink" xml:space="preserve" xmlns:serif="http://www.serif.com/" style="fill-rule:evenodd;clip-rule:evenodd;stroke-linejoin:round;stroke-miterlimit:2;">
    <path d="M8.71,3.29L5.71,0.29C5.615,0.199 5.503,0.128 5.38,0.08C5.137,-0.02 4.863,-0.02 4.62,0.08C4.497,0.128 4.385,0.199 4.29,0.29L1.29,3.29C1.102,3.478 0.996,3.734 0.996,4C0.996,4.551 1.449,5.004 2,5.004C2.266,5.004 2.522,4.898 2.71,4.71L4,3.41L4,9C4,9.549 4.451,10 5,10C5.549,10 6,9.549 6,9L6,3.41L7.29,4.71C7.478,4.899 7.733,5.006 8,5.006C8.267,5.006 8.522,4.899 8.71,4.71C8.899,4.522 9.006,4.267 9.006,4C9.006,3.733 8.899,3.478 8.71,3.29ZM14.71,11.29C14.522,11.101 14.267,10.994 14,10.994C13.733,10.994 13.478,11.101 13.29,11.29L12,12.59L12,7C12,6.451 11.549,6 11,6C10.451,6 10,6.451 10,7L10,12.59L8.71,11.29C8.522,11.102 8.266,10.996 8,10.996C7.449,10.996 6.996,11.449 6.996,12C6.996,12.266 7.102,12.522 7.29,12.71L10.29,15.71C10.385,15.801 10.497,15.872 10.62,15.92C10.862,16.027 11.138,16.027 11.38,15.92C11.503,15.872 11.615,15.801 11.71,15.71L14.71,12.71C14.899,12.522 15.006,12.267 15.006,12C15.006,11.733 14.899,11.478 14.71,11.29Z" style="fill:white;fill-rule:nonzero;"/>
</svg>
