<?xml version="1.0" encoding="UTF-8" standalone="no"?>
<!DOCTYPE svg PUBLIC "-//W3C//DTD SVG 1.1//EN" "http://www.w3.org/Graphics/SVG/1.1/DTD/svg11.dtd">
<svg width="100%" height="100%" viewBox="0 0 800 800" version="1.1" xmlns="http://www.w3.org/2000/svg"
     xmlns:xlink="http://www.w3.org/1999/xlink" xml:space="preserve" xmlns:serif="http://www.serif.com/"
     style="fill-rule:evenodd;clip-rule:evenodd;stroke-linejoin:round;stroke-miterlimit:2;">
    <g transform="matrix(25.5374,0,0,25.5374,91.2937,95.1917)">
        <path d="M10.08,7.897C11.157,5.966 11.695,5 12.5,5C13.305,5 13.843,5.966 14.92,7.897L15.198,8.397C15.504,8.946 15.657,9.22 15.896,9.401C16.134,9.582 16.431,9.649 17.026,9.784L17.566,9.906C19.657,10.379 20.703,10.616 20.951,11.416C21.2,12.215 20.487,13.049 19.062,14.715L18.693,15.147C18.288,15.62 18.086,15.857 17.995,16.15C17.903,16.443 17.934,16.759 17.995,17.391L18.051,17.966C18.267,20.19 18.374,21.302 17.723,21.796C17.072,22.291 16.093,21.84 14.136,20.938L13.629,20.705C13.073,20.449 12.795,20.321 12.5,20.321C12.205,20.321 11.927,20.449 11.371,20.705L10.864,20.938C8.907,21.84 7.928,22.291 7.277,21.796C6.626,21.302 6.734,20.19 6.949,17.966L7.005,17.391C7.066,16.759 7.097,16.443 7.005,16.15C6.914,15.857 6.712,15.62 6.307,15.147L5.938,14.715C4.513,13.049 3.8,12.215 4.049,11.416C4.298,10.616 5.343,10.379 7.434,9.906L7.975,9.784C8.569,9.649 8.866,9.582 9.104,9.401C9.343,9.22 9.496,8.946 9.802,8.397L10.08,7.897ZM4.868,2.501C4.898,2.395 5.085,2.394 5.116,2.5C5.256,2.982 5.516,3.694 5.909,4.085C6.302,4.475 7.017,4.731 7.5,4.868C7.606,4.898 7.606,5.085 7.501,5.116C7.019,5.256 6.306,5.516 5.915,5.909C5.525,6.302 5.27,7.017 5.133,7.5C5.103,7.606 4.915,7.606 4.884,7.501C4.744,7.019 4.484,6.306 4.091,5.915C3.698,5.525 2.984,5.27 2.501,5.133C2.395,5.103 2.394,4.915 2.5,4.884C2.982,4.744 3.694,4.484 4.085,4.091C4.475,3.698 4.731,2.984 4.868,2.501ZM19,3.25C19.414,3.25 19.75,3.586 19.75,4L19.75,4.25L20,4.25C20.414,4.25 20.75,4.586 20.75,5C20.75,5.414 20.414,5.75 20,5.75L19.75,5.75L19.75,6C19.75,6.414 19.414,6.75 19,6.75C18.586,6.75 18.25,6.414 18.25,6L18.25,5.75L18,5.75C17.586,5.75 17.25,5.414 17.25,5C17.25,4.586 17.586,4.25 18,4.25L18.25,4.25L18.25,4C18.25,3.586 18.586,3.25 19,3.25Z"/>
    </g>
</svg>
