<svg fill="none" height="800" viewBox="0 0 24 24" width="800" xmlns="http://www.w3.org/2000/svg">
    <g fill="#ffffff">
        <path d="m10.0802 7.89712c1.0766-1.93141 1.615-2.89712 2.4198-2.89712s1.3432.96571 2.4198 2.89712l.2786.49968c.3059.54884.4589.82327.6974 1.00434.2385.18106.5356.24828 1.1297.3827l.5409.12238c2.0907.47308 3.1361.70958 3.3848 1.50938.2487.7997-.464 1.6331-1.8893 3.2998l-.3687.4312c-.4051.4737-.6076.7105-.6987 1.0035-.0911.2929-.0605.6089.0008 1.2408l.0557.5753c.2155 2.2238.3232 3.3357-.3279 3.83s-1.6299.0436-3.5874-.8577l-.5065-.2332c-.5562-.2561-.8344-.3842-1.1292-.3842s-.573.1281-1.1292.3842l-.5065.2332c-1.95753.9013-2.9363 1.352-3.58742.8577-.65113-.4943-.54338-1.6062-.32789-3.83l.05575-.5753c.06123-.6319.09185-.9479.00074-1.2408-.0911-.293-.29362-.5298-.69865-1.0035l-.36875-.4312c-1.42532-1.6667-2.13798-2.5001-1.88927-3.2998.2487-.7998 1.29407-1.0363 3.3848-1.50938l.54089-.12238c.59412-.13442.89118-.20164 1.1297-.3827.23852-.18107.3915-.45549.69745-1.00434z"/>
        <path d="m4.86752 2.50058c.02999-.10578.21776-.10642.24846-.00084.1402.48211.40018 1.19473.7933 1.58521.39313.39048 1.10748.64563 1.59053.78257.10579.02999.10642.21776.00084.24846-.48211.1402-1.19473.40018-1.5852.7933-.39048.39313-.64564 1.10748-.78258 1.59053-.02999.10579-.21776.10642-.24846.00084-.1402-.48211-.40017-1.19473-.7933-1.5852-.39313-.39048-1.10748-.64564-1.59053-.78258-.10578-.02999-.10642-.21776-.00084-.24846.48211-.1402 1.19473-.40017 1.58521-.7933s.64563-1.10748.78257-1.59053z"/>
        <path clip-rule="evenodd"
              d="m19 3.25c.4142 0 .75.33579.75.75v.25h.25c.4142 0 .75.33579.75.75s-.3358.75-.75.75h-.25v.25c0 .41421-.3358.75-.75.75s-.75-.33579-.75-.75v-.25h-.25c-.4142 0-.75-.33579-.75-.75s.3358-.75.75-.75h.25v-.25c0-.41421.3358-.75.75-.75z"
              fill-rule="evenodd"/>
    </g>
</svg>