<svg clip-rule="evenodd" fill-rule="evenodd" stroke-linejoin="round" stroke-miterlimit="2" viewBox="0 0 334 334"
     xmlns="http://www.w3.org/2000/svg">
    <g fill="#fff" transform="scale(.416667)">
        <path d="m54.167 400c0 13.807 11.193 25 25 25h365.753l-65.357 56.02c-10.483 8.983-11.696 24.767-2.71 35.25 8.984 10.483 24.767 11.697 35.25 2.71l116.667-100c5.54-4.747 8.73-11.683 8.73-18.98s-3.19-14.233-8.73-18.98l-116.667-100.001c-10.483-8.986-26.266-7.772-35.25 2.711-8.986 10.483-7.773 26.266 2.71 35.251l65.357 56.019h-365.753c-13.807 0-25 11.193-25 25z"/>
        <path d="m312.5 325.001h12.609c-8.618-24.453-4.306-52.709 13.781-73.809 26.957-31.449 74.303-35.092 105.753-8.135l116.667 100c16.623 14.25 26.19 35.05 26.19 56.943 0 21.897-9.567 42.697-26.19 56.947l-116.667 100c-31.45 26.956-78.796 23.313-105.753-8.137-18.087-21.1-22.399-49.357-13.781-73.81h-12.609v58.333c0 94.28 0 141.42 29.29 170.71s76.43 29.29 170.71 29.29h33.333c94.28 0 141.42 0 170.71-29.29s29.29-76.43 29.29-170.71v-266.666c0-94.281 0-141.422-29.29-170.711s-76.43-29.289-170.71-29.289h-33.333c-94.28 0-141.42 0-170.71 29.289s-29.29 76.43-29.29 170.711z"
              fill-rule="nonzero"/>
    </g>
</svg>