<?xml version="1.0" encoding="UTF-8" standalone="no"?>
<svg width="100%" height="100%" viewBox="0 0 800 800" version="1.1" xmlns="http://www.w3.org/2000/svg"
     style="fill-rule:evenodd;clip-rule:evenodd;stroke-linejoin:round;stroke-miterlimit:2;">
    <g transform="matrix(0.722892,0,0,0.722892,110.843,110.843)">
        <path fill="black" d="M54.167,400C54.167,386.193 65.36,375 79.167,375L444.92,375L379.563,318.981C369.08,309.996 367.867,294.213 376.853,283.73C385.837,273.247 401.62,272.033 412.103,281.019L528.77,381.02C534.31,385.767 537.5,392.703 537.5,400C537.5,407.297 534.31,414.233 528.77,418.98L412.103,518.98C401.62,527.967 385.837,526.753 376.853,516.27C367.867,505.787 369.08,490.003 379.563,481.02L444.92,425L79.167,425C65.36,425 54.167,413.807 54.167,400ZM312.5,325.001L312.5,266.667C312.5,172.386 312.5,125.245 341.79,95.956C371.08,66.667 418.22,66.667 512.5,66.667L545.833,66.667C640.113,66.667 687.253,66.667 716.543,95.956C745.833,125.245 745.833,172.386 745.833,266.667L745.833,533.333C745.833,627.613 745.833,674.753 716.543,704.043C687.253,733.333 640.113,733.333 545.833,733.333L512.5,733.333C418.22,733.333 371.08,733.333 341.79,704.043C312.5,674.753 312.5,627.613 312.5,533.333L312.5,475L325.109,475C316.491,499.453 320.803,527.71 338.89,548.81C365.847,580.26 413.193,583.903 444.643,556.947L561.31,456.947C577.933,442.697 587.5,421.897 587.5,400C587.5,378.107 577.933,357.307 561.31,343.057L444.643,243.057C413.193,216.1 365.847,219.743 338.89,251.192C320.803,272.292 316.491,300.548 325.109,325.001L312.5,325.001Z"/>
    </g>
</svg>
