<svg clip-rule="evenodd" fill-rule="evenodd" stroke-linejoin="round" stroke-miterlimit="2" viewBox="0 0 334 334"
     xmlns="http://www.w3.org/2000/svg">
    <g fill="#ffffff" transform="scale(.416667)">
        <path d="m537.5 400c0-13.807-11.193-25-25-25h-365.752l65.355-56.019c10.483-8.985 11.697-24.768 2.712-35.251-8.986-10.483-24.768-11.697-35.251-2.711l-116.667 100.001c-5.541 4.747-8.73 11.683-8.73 18.98s3.189 14.233 8.73 18.98l116.667 100c10.483 8.987 26.265 7.773 35.251-2.71 8.985-10.483 7.771-26.267-2.712-35.25l-65.355-56.02h365.752c13.807 0 25-11.193 25-25z"/>
        <path d="m312.5 266.667c0 23.406 0 35.109 5.617 43.516 2.432 3.641 5.558 6.766 9.198 9.199 8.408 5.617 20.112 5.617 43.518 5.617h141.667c41.42 0 75 33.578 75 75.001 0 41.42-33.58 75-75 75h-141.667c-23.406 0-35.113 0-43.52 5.617-3.639 2.433-6.763 5.556-9.195 9.196-5.618 8.407-5.618 20.11-5.618 43.52 0 94.28 0 141.42 29.29 170.71s76.423 29.29 170.703 29.29h33.334c94.28 0 141.42 0 170.71-29.29s29.29-76.43 29.29-170.71v-266.666c0-94.281 0-141.422-29.29-170.711s-76.43-29.289-170.71-29.289h-33.334c-94.28 0-141.413 0-170.703 29.289s-29.29 76.43-29.29 170.711z"
              fill-rule="nonzero"/>
    </g>
</svg>