<?xml version="1.0" encoding="UTF-8" standalone="no"?>
<!DOCTYPE svg PUBLIC "-//W3C//DTD SVG 1.1//EN" "http://www.w3.org/Graphics/SVG/1.1/DTD/svg11.dtd">
<svg width="100%" height="100%" viewBox="0 0 334 334" version="1.1" xmlns="http://www.w3.org/2000/svg"
     xmlns:xlink="http://www.w3.org/1999/xlink" xml:space="preserve" xmlns:serif="http://www.serif.com/"
     style="fill-rule:evenodd;clip-rule:evenodd;stroke-linejoin:round;stroke-miterlimit:2;">
    <g transform="matrix(0.416667,0,0,0.416667,0,0)">
        <path d="M537.5,400C537.5,386.193 526.307,375 512.5,375L146.748,375L212.103,318.981C222.586,309.996 223.8,294.213 214.815,283.73C205.829,273.247 190.047,272.033 179.564,281.019L62.897,381.02C57.356,385.767 54.167,392.703 54.167,400C54.167,407.297 57.356,414.233 62.897,418.98L179.564,518.98C190.047,527.967 205.829,526.753 214.815,516.27C223.8,505.787 222.586,490.003 212.103,481.02L146.748,425L512.5,425C526.307,425 537.5,413.807 537.5,400Z"
              style="fill:white;"/>
        <path d="M312.5,266.667C312.5,290.073 312.5,301.776 318.117,310.183C320.549,313.824 323.675,316.949 327.315,319.382C335.723,324.999 347.427,324.999 370.833,324.999L512.5,324.999C553.92,324.999 587.5,358.577 587.5,400C587.5,441.42 553.92,475 512.5,475L370.833,475C347.427,475 335.72,475 327.313,480.617C323.674,483.05 320.55,486.173 318.118,489.813C312.5,498.22 312.5,509.923 312.5,533.333C312.5,627.613 312.5,674.753 341.79,704.043C371.08,733.333 418.213,733.333 512.493,733.333L545.827,733.333C640.107,733.333 687.247,733.333 716.537,704.043C745.827,674.753 745.827,627.613 745.827,533.333L745.827,266.667C745.827,172.386 745.827,125.245 716.537,95.956C687.247,66.667 640.107,66.667 545.827,66.667L512.493,66.667C418.213,66.667 371.08,66.667 341.79,95.956C312.5,125.245 312.5,172.386 312.5,266.667Z"
              style="fill:white;fill-rule:nonzero;"/>
    </g>
</svg>
