<svg clip-rule="evenodd" fill-rule="evenodd" stroke-linejoin="round" stroke-miterlimit="2" viewBox="0 0 800 800"
     xmlns="http://www.w3.org/2000/svg">
    <g fill="#ffffff" stroke="#fff">
        <path d="m66.667 600c0-62.853 0-94.28 19.526-113.807 19.526-19.526 50.953-19.526 113.807-19.526s94.281 0 113.807 19.526c19.526 19.527 19.526 50.954 19.526 113.807s0 94.28-19.526 113.807c-19.526 19.526-50.953 19.526-113.807 19.526s-94.281 0-113.807-19.526c-19.526-19.527-19.526-50.954-19.526-113.807z"
              fill-rule="nonzero"/>
        <path d="m115.482 115.482c-48.815 48.816-48.815 127.383-48.815 284.518 0 13.187 0 25.82.029 37.927 16.936-11.104 35.598-15.967 53.491-18.374 21.52-2.893 47.976-2.89 76.83-2.886h5.967c28.854-.004 55.31-.007 76.83 2.886 23.699 3.187 48.747 10.684 69.349 31.284 20.6 20.603 28.097 45.65 31.284 69.35 2.893 21.52 2.89 47.976 2.886 76.83v5.966c.004 28.857.007 55.31-2.886 76.83-2.407 17.894-7.267 36.554-18.374 53.49 12.11.03 24.74.03 37.927.03 157.133 0 235.703 0 284.517-48.816 48.816-48.814 48.816-127.384 48.816-284.517 0-157.135 0-235.702-48.816-284.518-48.814-48.815-127.384-48.815-284.517-48.815-157.135 0-235.702 0-284.518 48.815zm326.185 92.851c-13.807 0-25 11.193-25 25s11.193 25 25 25h64.643l-123.987 123.99c-9.763 9.764-9.763 25.59 0 35.354 9.764 9.763 25.59 9.763 35.354 0l123.99-123.988v64.644c0 13.807 11.193 25 25 25 13.806 0 25-11.193 25-25v-125c0-13.807-11.194-25-25-25z"/>
    </g>
</svg>