<?xml version="1.0" encoding="UTF-8" standalone="no"?>
<svg width="100%" height="100%" viewBox="0 0 800 800" version="1.1" xmlns="http://www.w3.org/2000/svg"
     style="fill-rule:evenodd;clip-rule:evenodd;stroke-linejoin:round;stroke-miterlimit:2;">
    <g transform="matrix(0.722899,0,0,0.722899,110.843,110.841)">
        <path fill="black" d="M537.5,400C537.5,413.807 526.307,425 512.5,425L146.748,425L212.103,481.02C222.586,490.003 223.8,505.787 214.815,516.27C205.829,526.753 190.047,527.967 179.564,518.98L62.897,418.98C57.356,414.233 54.167,407.297 54.167,400C54.167,392.703 57.356,385.767 62.897,381.02L179.564,281.019C190.047,272.033 205.829,273.247 214.815,283.73C223.8,294.213 222.586,309.996 212.103,318.981L146.748,375L512.5,375C526.307,375 537.5,386.193 537.5,400ZM312.5,266.667C312.5,172.386 312.5,125.245 341.79,95.956C371.08,66.667 418.213,66.667 512.493,66.667L545.827,66.667C640.107,66.667 687.247,66.667 716.537,95.956C745.827,125.245 745.827,172.386 745.827,266.667L745.827,533.333C745.827,627.613 745.827,674.753 716.537,704.043C687.247,733.333 640.107,733.333 545.827,733.333L512.493,733.333C418.213,733.333 371.08,733.333 341.79,704.043C312.5,674.753 312.5,627.613 312.5,533.333C312.5,509.923 312.5,498.22 318.118,489.813C320.55,486.173 323.674,483.05 327.313,480.617C335.72,475 347.427,475 370.833,475L512.5,475C553.92,475 587.5,441.42 587.5,400C587.5,358.577 553.92,324.999 512.5,324.999L370.833,324.999C347.427,324.999 335.723,324.999 327.315,319.382C323.675,316.949 320.549,313.824 318.117,310.183C312.5,301.776 312.5,290.073 312.5,266.667Z"/>
    </g>
</svg>
