<?xml version="1.0" encoding="UTF-8" standalone="no"?><!DOCTYPE svg PUBLIC "-//W3C//DTD SVG 1.1//EN" "http://www.w3.org/Graphics/SVG/1.1/DTD/svg11.dtd"><svg width="100%" height="100%" viewBox="0 0 800 800" version="1.1" xmlns="http://www.w3.org/2000/svg" xmlns:xlink="http://www.w3.org/1999/xlink" xml:space="preserve" xmlns:serif="http://www.serif.com/" style="fill-rule:evenodd;clip-rule:evenodd;stroke-linejoin:round;stroke-miterlimit:2;"><path d="M66.667,600c-0,-62.853 -0,-94.28 19.526,-113.807c19.526,-19.526 50.953,-19.526 113.807,-19.526c62.854,-0 94.281,-0 113.807,19.526c19.526,19.527 19.526,50.954 19.526,113.807c0,62.853 0,94.28 -19.526,113.807c-19.526,19.526 -50.953,19.526 -113.807,19.526c-62.854,0 -94.281,0 -113.807,-19.526c-19.526,-19.527 -19.526,-50.954 -19.526,-113.807Z" style="fill:#fff;fill-rule:nonzero;stroke:#fff;stroke-width:1px;"/><path d="M115.482,115.482c-48.815,48.816 -48.815,127.383 -48.815,284.518c-0,13.187 -0,25.82 0.029,37.927c16.936,-11.104 35.598,-15.967 53.491,-18.374c21.52,-2.893 47.976,-2.89 76.83,-2.886l5.967,-0c28.854,-0.004 55.31,-0.007 76.83,2.886c23.699,3.187 48.747,10.684 69.349,31.284c20.6,20.603 28.097,45.65 31.284,69.35c2.893,21.52 2.89,47.976 2.886,76.83l0,5.966c0.004,28.857 0.007,55.31 -2.886,76.83c-2.407,17.894 -7.267,36.554 -18.374,53.49c12.11,0.03 24.74,0.03 37.927,0.03c157.133,0 235.703,0 284.517,-48.816c48.816,-48.814 48.816,-127.384 48.816,-284.517c0,-157.135 0,-235.702 -48.816,-284.518c-48.814,-48.815 -127.384,-48.815 -284.517,-48.815c-157.135,-0 -235.702,-0 -284.518,48.815Zm326.185,92.851c-13.807,0 -25,11.193 -25,25c-0,13.807 11.193,25 25,25l64.643,0l-123.987,123.99c-9.763,9.764 -9.763,25.59 0,35.354c9.764,9.763 25.59,9.763 35.354,-0l123.99,-123.988l-0,64.644c-0,13.807 11.193,25 25,25c13.806,0 25,-11.193 25,-25l-0,-125c-0,-13.807 -11.194,-25 -25,-25l-125,0Z" style="fill:#fff;stroke:#fff;stroke-width:1px;"/></svg>