<svg height="800" viewBox="0 0 48 48" width="800" xmlns="http://www.w3.org/2000/svg">
    <path d="m0 0h48v48h-48z" fill="none"/>
    <path fill="#ffffff" d="m44 5.1v8.9a2 2 0 0 1 -2 2h-9a2 2 0 0 1 -2-2.3 2.1 2.1 0 0 1 2.1-1.7h4.3a18 18 0 0 0 -31.3 10.2 2 2 0 0 1 -2 1.8 2 2 0 0 1 -2-2.2 22 22 0 0 1 37.9-12.9v-3.9a2 2 0 0 1 2.3-2 2.1 2.1 0 0 1 1.7 2.1z"/>
    <path fill="#ffffff" d="m4 42.9v-8.9a2 2 0 0 1 2-2h9a2 2 0 0 1 2 2.3 2.1 2.1 0 0 1 -2.1 1.7h-4.3a18 18 0 0 0 31.3-10.2 2 2 0 0 1 2-1.8 2 2 0 0 1 2 2.2 22 22 0 0 1 -37.9 12.9v3.9a2 2 0 0 1 -2.3 2 2.1 2.1 0 0 1 -1.7-2.1z"/>
    <path fill="#ffffff" d="m24 28a2 2 0 0 0 2-2v-10a2 2 0 0 0 -4 0v10a2 2 0 0 0 2 2z"/>
    <circle cx="24" cy="32" r="2"/>
</svg>