<?xml version="1.0" encoding="UTF-8" standalone="no"?>
<svg width="100%" height="100%" viewBox="0 0 800 800" version="1.1" xmlns="http://www.w3.org/2000/svg"
     style="fill-rule:evenodd;clip-rule:evenodd;stroke-linejoin:round;stroke-miterlimit:2;">
    <g transform="matrix(10.9215,0,0,10.9215,137.883,137.883)">
        <path fill="black" d="M32.977,16.881C31.397,16.881 30.097,15.58 30.097,14C30.097,13.855 30.108,13.711 30.13,13.568C30.131,13.556 30.133,13.544 30.136,13.532C30.41,12.12 31.669,11.098 33.107,11.12L35.254,11.12C32.155,8.42 28.163,6.907 24.007,6.907C15.269,6.907 7.862,13.596 6.976,22.288C6.828,23.756 5.575,24.886 4.1,24.88L4.09,24.88C2.51,24.88 1.21,23.58 1.21,22C1.21,21.904 1.214,21.808 1.224,21.712C2.388,10.076 12.296,1.109 23.991,1.109C29.582,1.109 34.96,3.159 39.12,6.825L39.12,5.022C39.123,5.169 39.133,5.591 39.12,5L39.12,5.022L39.119,4.977C39.119,3.397 40.42,2.097 42,2.097C42.145,2.097 42.289,2.108 42.432,2.13C42.444,2.131 42.456,2.133 42.468,2.136C43.88,2.41 44.902,3.669 44.88,5.107L44.88,14C44.88,15.58 43.58,16.88 42,16.88L33,16.88L32.977,16.881L32.978,16.845L32.977,16.844L32.977,16.881ZM8.739,43.141L8.881,43.023C8.881,44.603 7.58,45.903 6,45.903C5.855,45.903 5.711,45.892 5.568,45.87C5.556,45.869 5.544,45.867 5.532,45.864C4.12,45.59 3.098,44.331 3.12,42.893L3.12,34C3.12,32.42 4.42,31.12 6,31.12L15,31.12L15.017,31.119L15.023,31.119C16.603,31.119 17.903,32.42 17.903,34C17.903,34.145 17.892,34.289 17.87,34.432C17.869,34.444 17.867,34.456 17.864,34.468C17.59,35.88 16.331,36.902 14.893,36.88L12.746,36.88C15.845,39.58 19.837,41.093 23.993,41.093C32.731,41.093 40.138,34.404 41.024,25.712C41.172,24.242 42.427,23.112 43.904,23.12L43.91,23.12C45.49,23.12 46.79,24.42 46.79,26C46.79,26.096 46.786,26.192 46.776,26.288C45.612,37.924 35.704,46.891 24.009,46.891C18.418,46.891 13.04,44.841 8.88,41.175L8.88,43L8.739,43.141ZM24,28.092C22.42,28.092 21.12,26.792 21.12,25.212L21.12,15.212C21.12,13.632 22.42,12.332 24,12.332C25.58,12.332 26.88,13.632 26.88,15.212L26.88,25.212C26.88,26.792 25.58,28.092 24,28.092ZM24,29.908C25.59,29.908 26.88,31.198 26.88,32.788C26.88,34.378 25.59,35.668 24,35.668C22.41,35.668 21.12,34.378 21.12,32.788C21.12,31.198 22.41,29.908 24,29.908Z"/>
    </g>
</svg>
