<svg fill="none" height="800" viewBox="0 0 24 24" width="800" xmlns="http://www.w3.org/2000/svg">
    <path clip-rule="evenodd"
          d="m2.12264 12.816c.28754 1.0026 1.06031 1.7754 2.60584 3.3209l1.82964 1.8296c2.68899 2.689 4.03348 4.0335 5.70418 4.0335s3.0152-1.3445 5.7042-4.0335 4.0335-4.0335 4.0335-5.7042-1.3445-3.01519-4.0335-5.70418l-1.8296-1.82964c-1.5455-1.54553-2.3183-2.3183-3.3209-2.60584-1.0026-.28755-2.0675-.04181-4.19725.44967l-1.22818.28343c-1.79177.41348-2.68765.62023-3.30113 1.2337-.61347.61348-.82022 1.50937-1.2337 3.30113l-.28343 1.22818c-.49148 2.12975-.73722 3.19465-.44967 4.19725zm8.00076-5.54502c.7876.78758.7876 2.06451 0 2.85212-.78759.7876-2.06452.7876-2.85211 0-.78758-.78761-.78758-2.06454 0-2.85212.78759-.78759 2.06452-.78759 2.85211 0zm8.9277 4.78012-6.979 6.9792c-.2929.2929-.7678.2929-1.0607 0-.2929-.2928-.2929-.7677 0-1.0606l6.979-6.9793c.2929-.2929.7678-.2929 1.0607 0s.2929.7678 0 1.0607z"
          fill="#ffffff" fill-rule="evenodd"/>
</svg>