<?xml version="1.0" encoding="UTF-8" standalone="no"?>
<svg width="100%" height="100%" viewBox="0 0 800 800" version="1.1" xmlns="http://www.w3.org/2000/svg"
     style="fill-rule:evenodd;clip-rule:evenodd;stroke-linejoin:round;stroke-miterlimit:2;">
    <g transform="matrix(25,0,0,25,100,100)">
        <path fill="black" d="M2.123,12.816C2.41,13.819 3.183,14.591 4.728,16.137L6.558,17.967C9.247,20.656 10.592,22 12.262,22C13.933,22 15.278,20.656 17.967,17.967C20.656,15.278 22,13.933 22,12.262C22,10.592 20.656,9.247 17.967,6.558L16.137,4.728C14.591,3.183 13.819,2.41 12.816,2.123C11.813,1.835 10.749,2.081 8.619,2.572L7.391,2.856C5.599,3.269 4.703,3.476 4.089,4.089C3.476,4.703 3.269,5.599 2.856,7.391L2.572,8.619C2.081,10.748 1.835,11.813 2.123,12.816ZM10.123,7.271C10.911,8.059 10.911,9.335 10.123,10.123C9.336,10.911 8.059,10.911 7.271,10.123C6.484,9.335 6.484,8.059 7.271,7.271C8.059,6.483 9.336,6.483 10.123,7.271ZM19.051,12.051L12.072,19.03C11.779,19.323 11.304,19.323 11.011,19.03C10.718,18.738 10.718,18.263 11.011,17.97L17.99,10.99C18.283,10.698 18.758,10.698 19.051,10.99C19.344,11.283 19.344,11.758 19.051,12.051Z"/>
    </g>
</svg>
