<?xml version="1.0" encoding="UTF-8" standalone="no"?>
<!DOCTYPE svg PUBLIC "-//W3C//DTD SVG 1.1//EN" "http://www.w3.org/Graphics/SVG/1.1/DTD/svg11.dtd">
<svg width="100%" height="100%" viewBox="0 0 1000 1000" version="1.1" xmlns="http://www.w3.org/2000/svg" xmlns:xlink="http://www.w3.org/1999/xlink" xml:space="preserve" xmlns:serif="http://www.serif.com/" style="fill-rule:evenodd;clip-rule:evenodd;stroke-linejoin:round;stroke-miterlimit:2;">
    <g>
        <g>
            <path d="M897.9,10L621.8,10C571.2,10 500.5,39.3 464.7,75.1L36.8,502.9C1,538.7 1,597.3 36.8,633.1L366.9,963.2C402.7,999 461.3,999 497.1,963.2L924.9,535.4C960.7,499.6 990,428.9 990,378.3L990,102.1C990,51.4 948.6,10 897.9,10ZM775.6,316.3C724.9,316.3 683.7,275.2 683.7,224.4C683.7,173.7 724.8,132.5 775.6,132.5C826.3,132.5 867.5,173.6 867.5,224.4C867.5,275.2 826.4,316.3 775.6,316.3Z" style="fill:white;fill-rule:nonzero;"/>
        </g>
    </g>
</svg>
