<svg fill="#ffffff" height="800" viewBox="0 0 32 32" width="800" xmlns="http://www.w3.org/2000/svg">
    <path d="m22.122 10.04h.022c.209 0 .403.065.562.177l-.003-.002c.116.101.194.243.213.403v.003c.02.122.031.262.031.405 0 .065-.002.129-.007.193v-.009c-.225 2.369-1.201 8.114-1.697 10.766-.21 1.123-.623 1.499-1.023 1.535-.869.081-1.529-.574-2.371-1.126-1.318-.865-2.063-1.403-3.342-2.246-1.479-.973-.52-1.51.322-2.384.221-.23 4.052-3.715 4.127-4.031.004-.019.006-.04.006-.062 0-.078-.029-.149-.076-.203-.052-.034-.117-.053-.185-.053-.045 0-.088.009-.128.024l.002-.001q-.198.045-6.316 4.174c-.445.351-1.007.573-1.619.599h-.006c-.867-.105-1.654-.298-2.401-.573l.074.024c-.938-.306-1.683-.467-1.619-.985q.051-.404 1.114-.827 6.548-2.853 8.733-3.761c1.607-.853 3.47-1.555 5.429-2.01l.157-.031zm-6.192-9.015c-8.302.02-15.025 6.755-15.025 15.06 0 8.317 6.742 15.06 15.06 15.06s15.06-6.742 15.06-15.06c0-8.305-6.723-15.04-15.023-15.06h-.002q-.035 0-.07 0z"/>
</svg>