<?xml version="1.0" encoding="UTF-8" standalone="no"?>
<svg width="100%" height="100%" viewBox="0 0 800 800" version="1.1" xmlns="http://www.w3.org/2000/svg"
     style="fill-rule:evenodd;clip-rule:evenodd;stroke-linejoin:round;stroke-miterlimit:2;">
    <g transform="matrix(22.3614,0,0,22.3614,142.636,131.664)">
        <path fill="black" d="M16.635,14.079L16.647,14.079C16.893,14.076 17.124,14.06 17.341,14.032C17.516,14.009 17.688,14.095 17.773,14.25C17.859,14.405 17.841,14.596 17.728,14.732C16.797,15.859 15.539,16.706 14.1,17.129C13.979,17.164 13.848,17.145 13.743,17.076C13.637,17.006 13.568,16.894 13.552,16.768C13.496,16.31 13.538,15.76 13.808,15.252C14.043,14.808 14.616,14.438 15.419,14.241C15.744,14.161 16.054,14.12 16.284,14.099L16.284,14.099C16.398,14.089 16.49,14.084 16.552,14.081L16.552,14.081C16.585,14.08 16.609,14.079 16.624,14.079L16.635,14.079L16.635,14.079C16.367,14.088 16.635,14.079 16.635,14.079ZM16.639,13.259L16.607,13.259C16.585,13.26 16.556,13.261 16.52,13.262C16.444,13.265 16.338,13.271 16.211,13.282L16.21,13.282C15.956,13.305 15.604,13.351 15.223,13.445C14.556,13.609 13.564,13.962 13.084,14.867C12.702,15.587 12.661,16.327 12.747,16.932C12.764,17.052 12.73,17.174 12.653,17.267C12.575,17.36 12.462,17.417 12.341,17.422C12.228,17.427 12.114,17.43 12,17.43C7.897,17.43 4.57,14.103 4.57,10C4.57,8.175 5.228,6.504 6.32,5.21C6.406,5.108 6.534,5.052 6.667,5.058C6.8,5.064 6.923,5.131 7,5.24C7.107,5.391 7.214,5.554 7.317,5.725C7.753,6.447 8.085,7.264 8.154,8.061C8.307,9.819 9.452,11.507 11.435,11.53C12.194,11.539 13.126,10.984 13.124,9.993C13.123,9.744 13.083,9.502 13.027,9.287C12.966,9.057 12.983,8.869 13.071,8.68C13.276,8.243 13.572,7.947 13.984,7.665C14.151,7.55 14.324,7.447 14.525,7.327L14.602,7.281C14.806,7.159 15.039,7.018 15.263,6.851C15.57,6.622 15.973,6.307 16.184,5.976L16.184,5.976C16.355,5.707 16.512,5.361 16.634,5.004C16.683,4.862 16.802,4.756 16.948,4.724C17.094,4.691 17.247,4.737 17.351,4.845C18.638,6.181 19.43,7.998 19.43,10C19.43,10.565 19.367,11.115 19.247,11.644C19.244,11.658 19.24,11.673 19.235,11.687C19.153,11.929 19.05,12.155 18.866,12.394C18.585,12.759 18.036,13.244 16.639,13.259ZM14.345,20.871C14.828,21.019 15.18,21.468 15.18,22C15.18,22.652 14.652,23.18 14,23.18L10,23.18C9.348,23.18 8.82,22.652 8.82,22C8.82,21.551 9.071,21.16 9.441,20.961C6.95,20.467 4.749,19.169 3.121,17.349C2.686,16.864 2.727,16.118 3.213,15.683C3.699,15.248 4.445,15.29 4.879,15.775C6.553,17.645 8.982,18.82 11.687,18.82C16.731,18.82 20.82,14.731 20.82,9.687C20.82,6.982 19.645,4.553 17.775,2.879C17.29,2.445 17.248,1.699 17.683,1.213C18.118,0.727 18.864,0.686 19.349,1.121C21.699,3.224 23.18,6.283 23.18,9.687C23.18,15.12 19.411,19.672 14.345,20.871ZM8.019,5.301C7.865,5.046 7.703,4.808 7.542,4.591C7.474,4.498 7.445,4.383 7.463,4.269C7.48,4.156 7.542,4.054 7.635,3.987C8.86,3.096 10.369,2.57 12,2.57C13.401,2.57 14.712,2.958 15.83,3.632C15.982,3.724 16.062,3.898 16.032,4.073C16.015,4.173 15.991,4.287 15.958,4.413C15.839,4.861 15.65,5.287 15.492,5.536C15.434,5.627 15.206,5.871 14.773,6.193C14.601,6.322 14.409,6.441 14.181,6.577L14.106,6.622C13.926,6.729 13.719,6.852 13.52,6.988L13.52,6.988C13.087,7.285 12.632,7.684 12.329,8.333C12.131,8.755 12.147,9.167 12.234,9.497C12.28,9.669 12.303,9.843 12.304,9.995L12.29,10.122L12.241,10.259L12.159,10.385L12.052,10.492C11.887,10.63 11.654,10.712 11.445,10.71L11.445,10.71C10.168,10.696 9.117,9.677 8.971,7.99C8.884,6.977 8.466,6.041 8.019,5.301Z"/>
    </g>
</svg>
