<?xml version="1.0" encoding="UTF-8" standalone="no"?>
<svg width="100%" height="100%" viewBox="0 0 800 800" version="1.1" xmlns="http://www.w3.org/2000/svg"
     style="fill-rule:evenodd;clip-rule:evenodd;stroke-linejoin:round;stroke-miterlimit:2;">
    <g transform="matrix(26.0273,0,0,26.0273,87.6768,86.1326)">
        <path fill="black"
              d="M9.377,4.661C10.52,2.604 13.479,2.604 14.622,4.661L21.223,16.543C22.334,18.543 20.888,21 18.601,21L5.399,21C3.111,21 1.665,18.543 2.776,16.543L9.377,4.661ZM10.616,16.348C10.616,17.113 11.236,17.732 12,17.732C12.765,17.732 13.384,17.113 13.384,16.348L13.384,16.337C13.384,15.572 12.765,14.953 12,14.953C11.236,14.953 10.616,15.572 10.616,16.337L10.616,16.348ZM10.616,12.595C10.616,13.36 11.236,13.98 12,13.98C12.765,13.98 13.384,13.36 13.384,12.595L13.384,9.595C13.384,8.831 12.765,8.211 12,8.211C11.236,8.211 10.616,8.831 10.616,9.595L10.616,12.595Z"/>
    </g>
</svg>
