<svg fill="none" height="800" stroke="#ffffff" stroke-width="3" viewBox="0 0 64 64" width="800"
     xmlns="http://www.w3.org/2000/svg">
    <path d="m39.93 55.72a24.86 24.86 0 1 1 16.93-23.57 37.24 37.24 0 0 1 -.73 6"/>
    <path d="m37.86 51.1a47 47 0 0 1 -5.86 5.6"/>
    <path d="m32 7a34.14 34.14 0 0 1 11.57 23 34.07 34.07 0 0 1 .09 4.85"/>
    <path d="m32 7a34.09 34.09 0 0 0 -11.69 25.46c0 16.2 7.28 21 11.66 24.24"/>
    <path d="m10.37 19.9h43.38"/>
    <path d="m32 6.99v49.71"/>
    <path d="m11.05 45.48h25.99"/>
    <path d="m7.14 32.46 49.72-.61"/>
    <path d="m53.57 57 4.43-4.44-8-8 4.55-2.91a.38.38 0 0 0 -.12-.7l-15.29-3.58a.39.39 0 0 0 -.46.46l3.32 15.58a.39.39 0 0 0 .71.13l2.86-4.54z"/>
</svg>