<?xml version="1.0" encoding="UTF-8" standalone="no"?>
<svg width="100%" height="100%" viewBox="0 0 800 800" version="1.1" xmlns="http://www.w3.org/2000/svg"
     style="fill-rule:evenodd;clip-rule:evenodd;stroke-linejoin:round;stroke-miterlimit:2;">
    <g transform="matrix(9.20471,0,0,9.20471,105.449,105.972)">
        <path fill="black" d="M59.159,32.212C59.159,32.212 59.141,32.671 59.158,32.242C59.073,34.383 58.814,36.513 58.383,38.612C58.294,39.045 57.871,39.324 57.439,39.235L54.5,38.632C54.067,38.543 53.788,38.121 53.877,37.688C54.115,36.528 54.294,35.357 54.412,34.18L45.987,34.284C45.979,34.513 45.969,34.742 45.957,34.971C45.934,35.412 45.557,35.751 45.116,35.728L42.12,35.57C41.679,35.547 41.34,35.17 41.363,34.729C41.37,34.599 41.376,34.47 41.381,34.34L34.3,34.427L34.3,43.18L37.04,43.18C37.482,43.18 37.84,43.538 37.84,43.98L37.84,46.98C37.84,47.422 37.482,47.78 37.04,47.78L34.3,47.78L34.3,51.542C34.93,50.907 35.542,50.253 36.133,49.58C36.425,49.249 36.931,49.217 37.263,49.508L39.515,51.491C39.846,51.782 39.878,52.288 39.587,52.62C39.253,52.999 38.913,53.373 38.568,53.741C38.778,53.677 38.988,53.61 39.196,53.54C39.615,53.399 40.069,53.624 40.21,54.043L41.167,56.886C41.308,57.305 41.082,57.759 40.664,57.9C37.872,58.839 34.946,59.319 32,59.319C17.1,59.319 4.84,47.058 4.84,32.159C4.84,17.259 17.1,4.999 32,4.999C46.896,4.999 59.155,17.253 59.16,32.179C59.16,32.19 59.16,32.201 59.159,32.212ZM25.519,10.56C21.314,11.837 17.613,14.321 14.824,17.6L21.291,17.6C22.427,15.109 23.844,12.746 25.519,10.56ZM29.7,51.971L29.7,47.78L26.208,47.78C27.282,49.519 28.497,50.867 29.7,51.971ZM37.563,17.6C36.632,15.872 35.54,14.229 34.3,12.695L34.3,17.6L37.563,17.6ZM41.239,29.741C40.996,27.151 40.439,24.62 39.593,22.2L34.3,22.2L34.3,29.827L41.239,29.741ZM24.394,22.2C23.521,24.693 22.957,27.302 22.727,29.969L29.7,29.883L29.7,22.2L24.394,22.2ZM29.7,43.18L29.7,34.483L22.656,34.57C22.809,38.001 23.335,40.827 24.102,43.18L29.7,43.18ZM49.176,17.6C46.385,14.318 42.679,11.833 38.47,10.556C40.143,12.742 41.56,15.105 42.696,17.6L49.176,17.6ZM45.852,29.685L54.411,29.58C54.108,26.962 53.348,24.474 52.215,22.2L44.429,22.2C45.158,24.621 45.639,27.129 45.852,29.685ZM29.7,12.685C28.454,14.223 27.359,15.87 26.425,17.6L29.7,17.6L29.7,12.685ZM9.588,34.73C9.939,37.765 10.903,40.624 12.35,43.18L19.264,43.18C18.621,40.752 18.185,37.93 18.053,34.626L9.588,34.73ZM11.785,22.2C10.573,24.633 9.788,27.31 9.532,30.13L18.108,30.025C18.304,27.354 18.794,24.731 19.558,22.2L11.785,22.2ZM15.787,47.78C18.239,50.323 21.275,52.299 24.67,53.481C23.31,51.966 22.005,50.117 20.915,47.78L15.787,47.78ZM49.458,44.238C49.792,44.654 50.3,45.176 50.868,45.756C53.291,48.231 56.922,51.347 56.922,51.347C57.091,51.492 57.226,51.669 57.321,51.865C57.368,51.963 57.405,52.066 57.432,52.173L57.479,52.5L57.457,52.829C57.439,52.937 57.41,53.043 57.37,53.144C57.33,53.246 57.28,53.343 57.22,53.435L57.013,53.691L54.701,56.008C54.387,56.323 53.956,56.493 53.511,56.476L53.184,56.43C53.077,56.404 52.974,56.367 52.876,56.32C52.778,56.273 52.684,56.215 52.597,56.149L52.357,55.922C52.357,55.922 49.229,52.294 46.752,49.866C46.185,49.311 45.672,48.813 45.259,48.476C44.76,49.455 44.457,50.786 44.457,50.786L44.457,50.788C44.288,51.518 43.634,52.034 42.884,52.027C42.134,52.021 41.49,51.494 41.333,50.761L38.948,39.565L38.914,39.163C38.92,39.029 38.942,38.897 38.98,38.77C39.057,38.516 39.197,38.281 39.392,38.089C39.784,37.706 40.344,37.549 40.877,37.674L51.883,40.251C52.605,40.42 53.117,41.064 53.118,41.806C53.119,42.548 52.61,43.194 51.888,43.365L51.886,43.366C51.886,43.366 50.494,43.691 49.489,44.221L49.458,44.238Z"/>
    </g>
</svg>
